<svg width="121" height="121" viewBox="0 0 121 121" fill="none" xmlns="http://www.w3.org/2000/svg">
<rect width="121" height="121" rx="10" fill="white" fill-opacity="0.2"/>
<g clip-path="url(#clip0_1_6154)">
<path d="M58.0896 78.0403H54.1376V111H58.0896V78.0403Z" fill="#88FFDB"/>
<path d="M57.5628 34.5605H58.643C61.2074 34.5605 63.6668 33.5202 65.4801 31.6684C67.2934 29.8166 68.3122 27.305 68.3122 24.6861V18.8744C68.3122 16.2556 67.2934 13.744 65.4801 11.8922C63.6668 10.0403 61.2074 9 58.643 9H57.5628C54.9983 9 52.539 10.0403 50.7256 11.8922C48.9123 13.744 47.8936 16.2556 47.8936 18.8744V24.6861C47.8936 27.305 48.9123 29.8166 50.7256 31.6684C52.539 33.5202 54.9983 34.5605 57.5628 34.5605V34.5605ZM51.8456 18.8744C51.8456 17.326 52.4479 15.8409 53.5201 14.7459C54.5923 13.651 56.0465 13.0359 57.5628 13.0359H58.643C60.1593 13.0359 61.6135 13.651 62.6857 14.7459C63.7578 15.8409 64.3602 17.326 64.3602 18.8744V24.6861C64.3602 26.2346 63.7578 27.7197 62.6857 28.8146C61.6135 29.9095 60.1593 30.5247 58.643 30.5247H57.5628C56.0465 30.5247 54.5923 29.9095 53.5201 28.8146C52.4479 27.7197 51.8456 26.2346 51.8456 24.6861V18.8744Z" fill="#88FFDB"/>
<path d="M93.473 105.834C93.3939 105.747 85.4373 96.8946 85.4373 89.6905V66.8206C85.4373 49.5807 79.6279 42.6053 78.4093 41.3205C78.2694 41.0148 78.111 40.7183 77.9351 40.4327C77.1994 39.2447 76.1797 38.2676 74.9721 37.5933C73.7644 36.919 72.4086 36.5697 71.0323 36.5784H46.5695C45.0668 36.5789 43.5937 37.0056 42.3144 37.8108C41.0352 38.616 40 39.7682 39.3242 41.139L32.9022 54.0941C32.2664 55.361 31.9619 56.7743 32.0185 58.1968C32.075 59.6193 32.4906 61.0028 33.225 62.2129C33.9505 63.4276 34.9707 64.4305 36.1869 65.1245C37.4031 65.8186 38.7741 66.1804 40.1673 66.1748L43.6121 65.8385V111H47.5641V65.4551L53.4921 64.8766C55.478 65.7576 57.6238 66.1999 59.7889 66.1748H65.0582C65.6137 66.1743 66.1677 66.1157 66.7115 65.9999V111H70.6634V63.8811C71.3912 63.1831 71.9854 62.3528 72.4155 61.4327L78.3435 48.6524C79.8979 52.1838 81.5182 57.9887 81.5182 66.8138V89.6838C81.5182 95.3878 85.2133 101.482 87.8941 105.155H73.6143V109.19H92.0568C92.4414 109.191 92.8176 109.076 93.1393 108.861C93.461 108.646 93.7143 108.34 93.8682 107.98C94.0108 107.621 94.0493 107.228 93.9793 106.848C93.9092 106.467 93.7334 106.115 93.473 105.834V105.834ZM74.8328 46.7421L68.7862 59.6972C68.444 60.427 67.907 61.0433 67.237 61.4753C66.567 61.9072 65.7913 62.1373 64.9989 62.1389H59.7296C53.2418 62.1389 50.3898 57.6322 49.2239 54.7398H63.9055L65.5983 47.8318L61.7649 46.8497L60.823 50.704H44.2247L44.6331 53.0717C45.2206 56.1293 46.6039 58.9687 48.6377 61.2914L40.0751 62.1389C39.3739 62.1301 38.6862 61.9405 38.0759 61.5877C37.4656 61.2349 36.9525 60.7304 36.5842 60.121C36.2079 59.4977 35.9951 58.7861 35.9663 58.0545C35.9374 57.3229 36.0935 56.596 36.4195 55.9439L42.8415 42.9685C43.1895 42.2606 43.724 41.6658 44.385 41.251C45.0459 40.8363 45.807 40.6182 46.5827 40.621H71.0323C71.7443 40.6157 72.4455 40.7988 73.0677 41.1524C73.6898 41.506 74.2117 42.0182 74.5825 42.6389C74.9641 43.244 75.1875 43.9389 75.2313 44.6572C75.2751 45.3755 75.1379 46.0933 74.8328 46.7421V46.7421Z" fill="#88FFDB"/>
</g>
<defs>
<clipPath id="clip0_1_6154">
<rect width="62" height="102" fill="white" transform="translate(32 9)"/>
</clipPath>
</defs>
</svg>
