<svg width="19" height="17" viewBox="0 0 19 17" fill="none" xmlns="http://www.w3.org/2000/svg">
<path d="M16.5104 5.77077H11.529L12.279 2.00328L12.3027 1.73948C12.3027 1.40147 12.1685 1.0882 11.9553 0.865616L11.1185 0L5.92406 5.43277C5.63196 5.72955 5.45829 6.14175 5.45829 6.59517V14.8391C5.45829 15.746 6.16878 16.4879 7.03716 16.4879H14.1421C14.7973 16.4879 15.3578 16.0757 15.5946 15.4822L17.9787 9.67016C18.0498 9.48055 18.0892 9.2827 18.0892 9.06836V7.41956C18.0892 6.51273 17.3788 5.77077 16.5104 5.77077ZM16.5104 9.06836L14.1421 14.8391H7.03716V6.59517L10.4633 3.01729L9.58703 7.41956H16.5104V9.06836ZM0.72168 6.59517H3.87942V16.4879H0.72168V6.59517Z" fill="#3A3A3A"/>
</svg>
