<svg width="133" height="133" viewBox="0 0 133 133" fill="none" xmlns="http://www.w3.org/2000/svg">
<rect width="133" height="133" rx="10" fill="white" fill-opacity="0.2"/>
<g clip-path="url(#clip0_1_6148)">
<path d="M111 91.5278H106.846V41.3147C106.799 40.1724 106.303 39.0949 105.465 38.3169C104.628 37.5389 103.516 37.1234 102.374 37.1609H29.6192C28.4773 37.1234 27.3669 37.5391 26.5303 38.3173C25.6937 39.0955 25.1989 40.173 25.1538 41.3147V91.5278H21V41.3147C21.0455 39.0714 21.9781 36.9376 23.5936 35.3805C25.2091 33.8234 27.3758 32.9699 29.6192 33.007H102.374C104.618 32.9699 106.785 33.8232 108.402 35.3801C110.019 36.937 110.953 39.0708 111 41.3147V91.5278Z" fill="#88FFDB"/>
<path d="M110.439 105H21.54C19.011 104.996 16.5866 103.99 14.7983 102.202C13.01 100.413 12.0037 97.989 12 95.4599V91.1538H54.9231V94.0269C54.9205 94.2284 54.9582 94.4285 55.0338 94.6153H76.9592C77.041 94.4302 77.0812 94.2293 77.0769 94.0269V91.1538H120V95.4599C119.995 97.992 118.985 100.419 117.192 102.207C115.4 103.996 112.971 105 110.439 105V105ZM16.14 95.3077V95.4599C16.1418 96.8879 16.7099 98.2568 17.7196 99.2665C18.7293 100.276 20.0982 100.844 21.5262 100.846H110.439C111.868 100.844 113.237 100.276 114.248 99.267C115.259 98.2575 115.829 96.8885 115.832 95.4599V95.3077H81.0854C80.6285 97.3223 79.1123 98.7692 77.2569 98.7692H54.7361C52.8808 98.7692 51.3646 97.3223 50.9077 95.3077H16.14Z" fill="#88FFDB"/>
<path d="M40.1077 54.33H44.6216L53.6216 77.7023H48.997L47.1693 72.8907H37.6362L35.7324 77.7023H31.1077L40.1077 54.33ZM42.3924 60.5607L39.2562 68.5845H45.487L42.3924 60.5607Z" fill="#88FFDB"/>
<path d="M57.0484 77.7023V54.33H60.7246C62.2935 54.2737 63.8633 54.4132 65.3976 54.7454C66.7049 55.0641 67.8763 55.7917 68.7415 56.8223C69.5651 57.8258 70.0044 59.0898 69.9807 60.3877C69.9923 61.2266 69.7998 62.0558 69.4199 62.8039C68.9692 63.6135 68.3422 64.3115 67.5853 64.8462C68.8338 65.3773 69.91 66.2449 70.6938 67.3523C71.3706 68.411 71.7153 69.6478 71.6838 70.9039C71.6963 72.1722 71.343 73.4173 70.6661 74.49C70.0333 75.528 69.1218 76.3676 68.0353 76.9131C66.6389 77.515 65.1234 77.7896 63.6045 77.7162L57.0484 77.7023ZM61.4999 58.5739V63.5031H62.4692C63.3315 63.5695 64.189 63.3238 64.8853 62.8108C65.1482 62.5795 65.3556 62.292 65.4922 61.9696C65.6289 61.6472 65.6912 61.2982 65.6745 60.9485C65.6884 60.6213 65.6284 60.2951 65.4989 59.9943C65.3695 59.6935 65.174 59.4257 64.9269 59.2108C64.265 58.7336 63.4559 58.5056 62.6423 58.5669L61.4999 58.5739ZM61.4999 67.47V73.4654H62.6145C64.463 73.4654 65.7022 73.23 66.3461 72.7731C66.6641 72.5411 66.9193 72.2335 67.0885 71.8781C67.2577 71.5228 67.3357 71.1308 67.3153 70.7377C67.3318 70.2787 67.2372 69.8224 67.0395 69.4078C66.8419 68.9931 66.547 68.6324 66.1799 68.3562C65.4276 67.77 64.1746 67.4769 62.4207 67.4769L61.4999 67.47Z" fill="#88FFDB"/>
<path d="M97.403 58.4424L94.2945 61.4054C92.176 59.167 89.7945 58.0477 87.1499 58.0477C86.1029 58.0251 85.0623 58.2167 84.092 58.6108C83.1218 59.0048 82.2423 59.593 81.5076 60.3393C80.7589 61.074 80.1687 61.9543 79.7733 62.9259C79.378 63.8975 79.186 64.9398 79.2091 65.9885C79.1801 67.4382 79.5309 68.8703 80.2268 70.1423C80.8963 71.3451 81.8923 72.3339 83.0999 72.9947C84.3721 73.6918 85.8032 74.0472 87.2537 74.0262C88.4738 74.0413 89.6827 73.7934 90.7984 73.2993C92.1182 72.6359 93.311 71.7453 94.3222 70.6685L97.3337 73.8185C95.9303 75.2759 94.2713 76.4633 92.4391 77.3216C90.7714 77.9981 88.984 78.3301 87.1845 78.2978C85.5399 78.3575 83.9004 78.0814 82.366 77.4862C80.8317 76.891 79.4348 75.9893 78.2607 74.8362C77.1092 73.6752 76.2079 72.2905 75.6125 70.7676C75.0172 69.2446 74.7403 67.6157 74.7991 65.9816C74.7567 63.8007 75.302 61.6485 76.3776 59.7508C77.4624 57.9108 79.0276 56.4007 80.9053 55.3824C82.8422 54.2905 85.0303 53.7226 87.2537 53.7347C89.1663 53.7351 91.056 54.1508 92.7922 54.9532C94.5654 55.7658 96.1391 56.9567 97.403 58.4424Z" fill="#88FFDB"/>
</g>
<defs>
<clipPath id="clip0_1_6148">
<rect width="108" height="72" fill="white" transform="translate(12 33)"/>
</clipPath>
</defs>
</svg>
