<svg width="130" height="130" viewBox="0 0 130 130" fill="none" xmlns="http://www.w3.org/2000/svg">
<rect opacity="0.2" width="130" height="130" rx="10" fill="white"/>
<g clip-path="url(#clip0_1_6146)">
<path d="M74.3257 40.0677H55.6742C47.5001 40.0677 41.9999 46.4817 41.9999 56.0527V67.7416C41.9869 70.556 42.715 73.3237 44.1101 75.7629C45.5052 78.2022 47.5176 80.2261 49.9424 81.6286V112.02H53.9136V56.0726H49.9424V76.7198C48.686 75.589 47.6824 74.2029 46.9979 72.6529C46.3133 71.1029 45.9633 69.4244 45.9712 67.7283V56.0393C45.9712 50.5179 48.5128 44.0506 55.6742 44.0506H74.3257C81.4871 44.0506 84.0287 50.4979 84.0287 56.0393V67.7283C84.0326 69.4968 83.6491 71.2445 82.9055 72.8469C82.1619 74.4493 81.0765 75.8672 79.7265 76.9996V56.0593H75.7553V112.007H79.7265V81.8083C82.2379 80.4288 84.3323 78.3923 85.7885 75.9139C87.2448 73.4356 88.0088 70.6074 87.9999 67.7283V56.0393C87.9999 46.4817 82.5064 40.0677 74.3257 40.0677Z" fill="#88FFDB"/>
<path d="M67.151 79.364H63.1798V112H67.151V79.364Z" fill="#88FFDB"/>
<path d="M63.9742 38.296H65.0663C66.3419 38.296 67.6051 38.0431 68.7835 37.5516C69.962 37.0602 71.0327 36.3399 71.9344 35.4319C72.8361 34.5239 73.5511 33.446 74.0387 32.2597C74.5263 31.0735 74.7768 29.8022 74.7759 28.5186V22.7574C74.7759 20.166 73.7529 17.6808 71.932 15.8484C70.1111 14.016 67.6414 12.9866 65.0663 12.9866H63.9742C62.6985 12.9857 61.4353 13.2378 60.2565 13.7284C59.0777 14.219 58.0065 14.9386 57.1042 15.846C56.2018 16.7534 55.4861 17.8308 54.9977 19.0167C54.5093 20.2026 54.2579 21.4737 54.2579 22.7574V28.5186C54.2579 31.1117 55.2816 33.5987 57.1038 35.4323C58.9259 37.2659 61.3973 38.296 63.9742 38.296ZM58.2292 22.7574C58.2327 21.2258 58.8393 19.7581 59.9161 18.6757C60.9929 17.5933 62.4522 16.9846 63.9742 16.9828H65.0663C66.5877 16.9846 68.0462 17.5936 69.122 18.6761C70.1978 19.7587 70.8029 21.2264 70.8047 22.7574V28.5186C70.8047 30.0507 70.2003 31.5202 69.1244 32.6041C68.0484 33.6881 66.5888 34.298 65.0663 34.2998H63.9742C62.451 34.2981 60.9908 33.6884 59.9138 32.6046C58.8367 31.5207 58.2309 30.0513 58.2292 28.5186V22.7574Z" fill="#88FFDB"/>
</g>
<defs>
<clipPath id="clip0_1_6146">
<rect width="46" height="99" fill="white" transform="translate(42 13)"/>
</clipPath>
</defs>
</svg>
