<svg width="95" height="95" viewBox="0 0 95 95" fill="none" xmlns="http://www.w3.org/2000/svg">
<rect width="95" height="95" rx="10" fill="white" fill-opacity="0.2"/>
<g clip-path="url(#clip0_1_6147)">
<path d="M46.7706 19.817C50.5746 19.8696 54.3167 20.7742 57.7144 22.4624L53.6365 23.6966L54.4899 26.4376L60.7497 24.548L63.5281 23.7109L60.8322 15.019L58.049 15.8562L59.3533 20.0514C55.4619 18.065 51.1519 17.0081 46.7706 16.966C37.7615 16.966 29.9016 21.2713 29.567 21.4578L30.9926 23.9597C31.0701 23.8975 38.5422 19.817 46.7706 19.817Z" fill="#88FFDB"/>
<path d="M72.2461 60.9372C70.5473 64.2952 68.0967 67.2282 65.0796 69.5142L65.7342 65.3572L62.8588 64.9171L61.443 73.896L61.4091 74.1304L70.5103 75.5272L70.9564 72.6905L66.5682 72.0161C70.0717 69.4258 72.9101 66.0603 74.8548 62.1905C76.3996 58.9518 77.4206 55.4944 77.8805 51.9439L74.9712 51.5469C74.5662 54.7983 73.6467 57.9669 72.2461 60.9372V60.9372Z" fill="#88FFDB"/>
<path d="M26.0805 66.6104C23.5569 63.8019 21.7118 60.4654 20.6838 56.8519L24.3495 58.9997L25.8381 56.5313L20.2086 53.2354L17.7066 51.7668L13.0033 59.5833L15.5053 61.0519L17.7745 57.2824C18.9092 61.4588 21.0218 65.3142 23.9422 68.5383C26.4123 71.1593 29.2837 73.382 32.4519 75.1253L33.9065 72.6378C30.9951 71.0438 28.3545 69.01 26.0805 66.6104V66.6104Z" fill="#88FFDB"/>
<path d="M18.7152 47.3901H32.3791C33.3945 47.3582 34.403 47.566 35.3205 47.9962C36.2381 48.4263 37.0384 49.0664 37.6547 49.8632L39.9675 48.122C39.0856 46.968 37.9366 46.0389 36.6165 45.4123C35.2964 44.7856 33.8435 44.4797 32.3791 44.5199H18.7152C17.25 44.4789 15.7962 44.7845 14.4752 45.4111C13.1542 46.0378 12.0044 46.9673 11.1219 48.122L13.4348 49.8632C14.0519 49.0661 14.8529 48.4258 15.7713 47.9956C16.6898 47.5654 17.699 47.3578 18.7152 47.3901V47.3901Z" fill="#88FFDB"/>
<path d="M24.7904 43.257H25.5905C27.4775 43.257 29.2873 42.5179 30.622 41.2019C31.9568 39.886 32.7073 38.1011 32.7086 36.2394V32.1016C32.7086 30.2392 31.9586 28.453 30.6237 27.136C29.2888 25.8191 27.4783 25.0792 25.5905 25.0792H24.7904C23.8559 25.0792 22.9306 25.2609 22.0672 25.6139C21.2039 25.9668 20.4195 26.4842 19.7589 27.1363C19.0984 27.7885 18.5745 28.5627 18.2173 29.4146C17.8601 30.2666 17.6766 31.1797 17.6772 32.1016V36.2394C17.6772 38.1006 18.4267 39.8856 19.7607 41.2016C21.0946 42.5177 22.9039 43.257 24.7904 43.257ZM20.5865 32.1016C20.5878 31.0016 21.031 29.9469 21.819 29.1686C22.6069 28.3904 23.6754 27.9519 24.7904 27.9494H25.5905C26.706 27.9519 27.775 28.3902 28.5637 29.1683C29.3525 29.9465 29.7967 31.0012 29.7993 32.1016V36.2394C29.7967 37.3395 29.3523 38.3936 28.5634 39.171C27.7745 39.9484 26.7055 40.3856 25.5905 40.3868H24.7904C23.6759 40.3856 22.6074 39.9482 21.8192 39.1707C21.0311 38.3932 20.5878 37.339 20.5865 36.2394V32.1016Z" fill="#88FFDB"/>
<path d="M75.5339 44.5199H61.87C60.4048 44.4789 58.9509 44.7845 57.6299 45.4111C56.3089 46.0378 55.1592 46.9673 54.2767 48.122L56.5896 49.8632C57.2067 49.0661 58.0077 48.4258 58.9261 47.9956C59.8446 47.5654 60.8538 47.3578 61.87 47.3901H75.5339C76.5493 47.3582 77.5577 47.566 78.4753 47.9962C79.3929 48.4263 80.1931 49.0664 80.8094 49.8632L83.1223 48.122C82.2403 46.968 81.0914 46.0389 79.7713 45.4123C78.4512 44.7856 76.9983 44.4797 75.5339 44.5199Z" fill="#88FFDB"/>
<path d="M60.832 32.1016V36.2394C60.832 38.1006 61.5815 39.8856 62.9154 41.2016C64.2494 42.5177 66.0587 43.257 67.9452 43.257H68.7453C70.6323 43.257 72.442 42.5179 73.7768 41.2019C75.1116 39.886 75.8621 38.1011 75.8634 36.2394V32.1016C75.8634 30.2392 75.1134 28.453 73.7785 27.136C72.4436 25.8191 70.6331 25.0792 68.7453 25.0792H67.9452C67.0107 25.0792 66.0853 25.2609 65.222 25.6139C64.3587 25.9668 63.5743 26.4842 62.9137 27.1363C62.2531 27.7885 61.7293 28.5627 61.3721 29.4146C61.0149 30.2666 60.8314 31.1797 60.832 32.1016V32.1016ZM63.7413 32.1016C63.7426 31.0016 64.1858 29.9469 64.9737 29.1686C65.7617 28.3904 66.8302 27.9519 67.9452 27.9494H68.7453C69.8607 27.9519 70.9298 28.3902 71.7185 29.1683C72.5073 29.9465 72.9515 31.0012 72.9541 32.1016V36.2394C72.9515 37.3395 72.5071 38.3936 71.7182 39.171C70.9293 39.9484 69.8603 40.3856 68.7453 40.3868H67.9452C66.8307 40.3856 65.7621 39.9482 64.974 39.1707C64.1859 38.3932 63.7426 37.339 63.7413 36.2394V32.1016Z" fill="#88FFDB"/>
<path d="M53.7139 74.6568H40.0499C38.5847 74.6158 37.1309 74.9215 35.8099 75.5481C34.4889 76.1748 33.3391 77.1043 32.4567 78.2589L34.7696 80.0002C35.3866 79.203 36.1876 78.5627 37.1061 78.1326C38.0245 77.7024 39.0337 77.4948 40.0499 77.527H53.7139C54.7293 77.4952 55.7377 77.703 56.6553 78.1331C57.5728 78.5633 58.3731 79.2034 58.9894 80.0002L61.3022 78.2589C60.4203 77.1049 59.2713 76.1758 57.9512 75.5492C56.6311 74.9226 55.1782 74.6166 53.7139 74.6568Z" fill="#88FFDB"/>
<path d="M46.9261 55.2162H46.126C45.1915 55.2162 44.2661 55.3979 43.4028 55.7508C42.5395 56.1038 41.7551 56.6211 41.0945 57.2733C40.4339 57.9254 39.9101 58.6996 39.5529 59.5516C39.1957 60.4036 39.0122 61.3166 39.0128 62.2386V66.3764C39.0128 68.2376 39.7622 70.0226 41.0962 71.3386C42.4302 72.6547 44.2395 73.394 46.126 73.394H46.9261C48.8131 73.394 50.6228 72.6548 51.9576 71.3389C53.2923 70.023 54.0429 68.238 54.0441 66.3764V62.2386C54.0441 60.3761 53.2942 58.5899 51.9593 57.273C50.6244 55.956 48.8139 55.2162 46.9261 55.2162V55.2162ZM51.1349 66.3764C51.1323 67.4764 50.6879 68.5306 49.899 69.308C49.1101 70.0853 48.0411 70.5226 46.9261 70.5238H46.126C45.0115 70.5226 43.9429 70.0852 43.1548 69.3077C42.3667 68.5302 41.9234 67.476 41.9221 66.3764V62.2386C41.9234 61.1386 42.3666 60.0839 43.1545 59.3056C43.9425 58.5273 45.011 58.0889 46.126 58.0864H46.9261C48.0415 58.0889 49.1106 58.5272 49.8993 59.3053C50.688 60.0835 51.1323 61.1381 51.1349 62.2386V66.3764Z" fill="#88FFDB"/>
</g>
<defs>
<clipPath id="clip0_1_6147">
<rect width="72" height="65" fill="white" transform="translate(12 15)"/>
</clipPath>
</defs>
</svg>
