<svg width="111" height="111" viewBox="0 0 111 111" fill="none" xmlns="http://www.w3.org/2000/svg">
<rect width="111" height="111" rx="10" fill="white" fill-opacity="0.2"/>
<g clip-path="url(#clip0_1_6149)">
<path d="M32.8583 71.0468L32.6041 96.9703L35.7655 97.0011L36.0197 71.0776L32.8583 71.0468Z" fill="#88FFDB"/>
<path d="M33.4885 38.6852H34.358C36.4094 38.6852 38.3769 37.8729 39.8275 36.427C41.2781 34.981 42.0931 33.0199 42.0931 30.975V26.4371C42.0931 25.4246 41.893 24.422 41.5043 23.4866C41.1156 22.5511 40.5458 21.7012 39.8275 20.9852C39.1092 20.2692 38.2565 19.7014 37.3181 19.3139C36.3796 18.9264 35.3738 18.7269 34.358 18.7269H33.4885C32.473 18.7269 31.4674 18.9264 30.5292 19.314C29.591 19.7015 28.7387 20.2695 28.0208 20.9855C27.303 21.7015 26.7337 22.5516 26.3456 23.487C25.9574 24.4224 25.758 25.4249 25.7587 26.4371V30.975C25.758 31.9873 25.9574 32.9898 26.3456 33.9252C26.7337 34.8606 27.303 35.7106 28.0208 36.4266C28.7387 37.1427 29.591 37.7107 30.5292 38.0982C31.4674 38.4857 32.473 38.6852 33.4885 38.6852V38.6852ZM28.9202 26.4371C28.9202 25.229 29.4013 24.0702 30.2579 23.2154C31.1145 22.3606 32.2764 21.8796 33.4885 21.8782H34.358C35.571 21.8782 36.7343 22.3586 37.592 23.2135C38.4497 24.0685 38.9316 25.228 38.9316 26.4371V30.975C38.9316 32.1841 38.4497 33.3437 37.592 34.1986C36.7343 35.0536 35.571 35.5339 34.358 35.5339H33.4885C32.2764 35.5325 31.1145 35.0516 30.2579 34.1968C29.4013 33.342 28.9202 32.1832 28.9202 30.975V26.4371Z" fill="#88FFDB"/>
<path d="M93.2096 30.7702L98.6211 24.4676C98.7926 24.2671 98.9109 24.027 98.9652 23.7691C99.0195 23.5113 99.008 23.244 98.9319 22.9917C98.8565 22.7437 98.7208 22.5182 98.537 22.3349C98.3532 22.1517 98.1269 22.0165 97.8781 21.9413C94.6375 21.1492 91.3083 20.775 87.9721 20.8278C85.3227 20.8186 82.6778 21.0436 80.0683 21.5001V18.2017C80.0677 17.8595 79.9552 17.5267 79.748 17.2538C79.5407 16.9809 79.2499 16.7827 78.9196 16.6891C75.679 15.897 72.3498 15.5228 69.0136 15.5757C66.3643 15.5665 63.7193 15.7915 61.1098 16.2479V14H57.9483V40.3712L41.7825 40.597H26.934C20.4213 40.597 16.0479 45.6548 16.0479 53.2022V62.425C16.0372 64.621 16.6043 66.7814 17.6925 68.6908C18.7806 70.6003 20.3519 72.1921 22.2497 73.3075L22.118 96.9895H25.2795L25.4692 52.698H22.3077L22.2128 69.4472C21.2405 68.5565 20.4654 67.4732 19.9374 66.2667C19.4093 65.0602 19.1398 63.7571 19.1462 62.4408V53.218C19.1462 48.8639 21.1695 43.7641 26.8707 43.7641H41.7404L64.108 43.4542C63.3071 49.4784 57.9958 49.7253 57.3582 49.7568L42.6045 50.928V97.0263H45.766V53.8377L57.4214 52.9081H57.8851V97.0263H61.0466V52.1728C64.1607 50.9438 67.3696 47.9711 67.3696 41.8785V40.3029L61.0466 40.3921V33.6326C62.9962 33.1914 66.869 32.3826 69.1664 32.3826C71.4638 32.3826 75.0152 33.1705 76.8541 33.6116V37.6348C76.8535 37.8745 76.9077 38.1113 77.0127 38.327C77.1177 38.5427 77.2707 38.7317 77.4601 38.8795C77.6494 39.026 77.8698 39.1277 78.1044 39.1769C78.339 39.226 78.5817 39.2213 78.8143 39.1631C78.8775 39.1631 84.9897 37.6348 88.1354 37.6348C91.2811 37.6348 96.9349 39.1421 96.9929 39.1579C97.127 39.1933 97.2652 39.2109 97.4039 39.2104C97.6754 39.2096 97.9422 39.1392 98.1784 39.0058C98.4147 38.8724 98.6125 38.6806 98.7528 38.4489C98.9294 38.1571 99.0063 37.8162 98.9721 37.4772C98.9379 37.1382 98.7944 36.8194 98.5631 36.5686L93.2096 30.7702ZM69.1822 29.2313C66.8322 29.2313 63.2649 29.9194 61.0624 30.4026V19.457C63.6671 18.9592 66.3141 18.7147 68.9662 18.727C71.6183 18.7133 74.2655 18.9578 76.8699 19.457V30.371C74.7781 29.8931 71.4901 29.2313 69.2033 29.2313H69.1822ZM88.1512 34.4835C85.8012 34.4835 82.2339 35.1715 80.0314 35.6547V24.7092C82.6361 24.2114 85.2831 23.9669 87.9352 23.9791C90.119 23.9741 92.2999 24.1374 94.4584 24.4676L89.8848 29.7828C89.6306 30.0762 89.4938 30.4527 89.5006 30.8403C89.5074 31.2279 89.6573 31.5993 89.9217 31.8837L92.8197 35.035C91.2886 34.7232 89.7341 34.5387 88.1723 34.4835H88.1512Z" fill="#88FFDB"/>
</g>
<defs>
<clipPath id="clip0_1_6149">
<rect width="83" height="83" fill="white" transform="translate(16 14)"/>
</clipPath>
</defs>
</svg>
