<svg width="121" height="121" viewBox="0 0 121 121" fill="none" xmlns="http://www.w3.org/2000/svg">
<rect width="121" height="121" rx="10" fill="white" fill-opacity="0.2"/>
<g clip-path="url(#clip0_1_6151)">
<path d="M52.9034 44.6996H68.3482C74.2784 44.6996 76.383 50.0334 76.383 54.6179H79.6715C79.6715 46.7163 75.1224 41.3934 68.3482 41.3934H52.9034C46.1292 41.3934 41.5801 46.6998 41.5801 54.6179H44.8686C44.8686 50.0334 46.9732 44.6996 52.9034 44.6996Z" fill="#88FFDB"/>
<path d="M59.7765 39.9388H60.6753C62.8092 39.9388 64.8557 39.0865 66.3646 37.5696C67.8734 36.0526 68.7211 33.9951 68.7211 31.8498V27.089C68.7211 24.9436 67.8734 22.8862 66.3646 21.3692C64.8557 19.8522 62.8092 19 60.6753 19H59.7765C57.6426 19 55.5961 19.8522 54.0873 21.3692C52.5784 22.8862 51.7307 24.9436 51.7307 27.089V31.8498C51.7307 33.9951 52.5784 36.0526 54.0873 37.5696C55.5961 39.0865 57.6426 39.9388 59.7765 39.9388V39.9388ZM55.0192 27.089C55.0192 25.8205 55.5204 24.6039 56.4126 23.707C57.3047 22.81 58.5148 22.3061 59.7765 22.3061H60.6753C61.937 22.3061 63.1471 22.81 64.0393 23.707C64.9314 24.6039 65.4326 25.8205 65.4326 27.089V31.8498C65.4326 33.1183 64.9314 34.3348 64.0393 35.2318C63.1471 36.1288 61.937 36.6327 60.6753 36.6327H59.7765C58.5148 36.6327 57.3047 36.1288 56.4126 35.2318C55.5204 34.3348 55.0192 33.1183 55.0192 31.8498V27.089Z" fill="#88FFDB"/>
<path d="M85.0977 57.0205V46.9699L80.5377 42.3854L78.2138 44.7217L81.8092 48.3364V57.0205H32V68.3935L37.4808 74.9507V100H40.7692V73.744L35.2885 67.1868V60.3266H85.7115V66.8893L80.2308 73.5015V100H83.5192V74.7027L89 68.0905V57.0205H85.0977Z" fill="#88FFDB"/>
<path d="M46.25 100H49.5385V75.7551H71.4615V100H74.75V72.449H46.25V100Z" fill="#88FFDB"/>
</g>
<defs>
<clipPath id="clip0_1_6151">
<rect width="57" height="81" fill="white" transform="translate(32 19)"/>
</clipPath>
</defs>
</svg>
