<svg width="120" height="120" viewBox="0 0 120 120" fill="none" xmlns="http://www.w3.org/2000/svg">
<rect width="120" height="120" rx="10" fill="white" fill-opacity="0.2"/>
<g clip-path="url(#clip0_1_6150)">
<path d="M102 59.3844H64.7686C64.9043 58.8546 64.9732 58.3097 64.9737 57.7626V51.1555H51.6834L42.3888 41.8121C41.8139 40.6817 40.9408 39.7333 39.8657 39.0715C38.7907 38.4097 37.5554 38.0602 36.296 38.0614H30.1437C28.3288 38.0649 26.5893 38.7939 25.306 40.0885C24.0227 41.3831 23.3002 43.138 23.2968 44.9689V78.5383C23.2971 79.4871 23.4918 80.4257 23.8686 81.2951C24.2454 82.1644 24.7962 82.9459 25.4864 83.5904C25.9653 84.1643 26.5614 84.6272 27.2338 84.9474C27.9063 85.2676 28.6394 85.4375 29.3829 85.4457H45.9809C46.3299 85.4453 46.6719 85.5439 46.9679 85.7304C47.2639 85.9169 47.5019 86.1837 47.6546 86.5002L56.678 105.04L60.2437 103.272L51.2203 84.7383C50.7432 83.7469 49.9984 82.9115 49.0715 82.3282C48.1446 81.745 47.0733 81.4376 45.9809 81.4414H29.3829C29.1996 81.4301 29.0209 81.3783 28.8597 81.2895C28.6985 81.2006 28.5587 81.0771 28.4501 80.9276L28.2384 80.7073C27.9339 80.4353 27.6899 80.1015 27.5223 79.7277C27.3547 79.3539 27.2673 78.9485 27.266 78.5383V44.9689C27.2677 44.1995 27.5715 43.4621 28.1108 42.918C28.6501 42.374 29.381 42.0675 30.1437 42.0657H36.296C36.5924 42.0678 36.8868 42.1151 37.1692 42.2059L50.0361 55.1932H61.0044V57.796C61.0027 58.4858 60.7303 59.1468 60.2469 59.6345C59.7634 60.1222 59.1082 60.3971 58.4245 60.3988H48.078C47.1947 60.3408 46.3336 60.0951 45.5509 59.678L35.1383 49.1801L32.3334 52.0098L39.2465 58.984H39.1737V72.098H52.4375C52.8698 72.0978 53.294 72.2164 53.6646 72.441C54.0352 72.6655 54.3383 72.9876 54.5412 73.3727L54.9249 74.1068L69.8558 104.807L69.9286 104.967L73.5538 103.325L73.4149 103.038L58.484 72.3383C58.4377 72.2381 58.2657 71.9045 58.0407 71.4907C57.5026 70.4644 56.697 69.6056 55.7108 69.007C54.7245 68.4083 53.5951 68.0926 52.4441 68.0937H43.1429V62.8614C44.6578 64.0227 47.0592 64.3297 47.8067 64.3964H58.4245C59.6307 64.3965 60.8129 64.0567 61.838 63.4153H89.4506V104.126H93.4198V63.4153H102.02L102 59.3844Z" fill="#88FFDB"/>
<path d="M19.9692 79.2457V51.3757H16V79.2457C16.0053 82.4737 17.2791 85.5679 19.5423 87.8499C21.8055 90.1318 24.8733 91.4153 28.0731 91.4188H44.4462V87.4145H28.0731C25.9255 87.4127 23.8663 86.5517 22.3471 85.0203C20.8279 83.4889 19.9727 81.4123 19.9692 79.2457V79.2457Z" fill="#88FFDB"/>
<path d="M39.6302 37.3606H40.7217C43.2956 37.3606 45.764 36.3291 47.584 34.493C49.404 32.6569 50.4265 30.1667 50.4265 27.57V21.7972C50.4274 20.5109 50.177 19.2371 49.6897 18.0485C49.2023 16.8599 48.4876 15.7798 47.5864 14.8699C46.6851 13.9601 45.615 13.2383 44.4371 12.7458C43.2592 12.2534 41.9967 12 40.7217 12H39.6302C37.0546 12 34.5844 13.0322 32.7632 14.8695C30.942 16.7069 29.9188 19.1988 29.9188 21.7972V27.57C29.9188 28.8563 30.1701 30.13 30.6582 31.3183C31.1463 32.5066 31.8617 33.5862 32.7636 34.4954C33.6655 35.4046 34.7361 36.1256 35.9143 36.6172C37.0925 37.1088 38.3552 37.3615 39.6302 37.3606V37.3606ZM33.8881 21.7972C33.8915 20.2619 34.4976 18.7905 35.5737 17.7049C36.6498 16.6192 38.1084 16.0078 39.6302 16.0043H40.7217C42.243 16.0078 43.7008 16.6195 44.7758 17.7053C45.8509 18.7911 46.4555 20.2625 46.4573 21.7972V27.57C46.4555 29.1041 45.8507 30.5748 44.7754 31.6596C43.7002 32.7443 42.2424 33.3545 40.7217 33.3563H39.6302C38.109 33.3545 36.6505 32.7445 35.5742 31.66C34.4979 30.5754 33.8916 29.1047 33.8881 27.57V21.7972Z" fill="#88FFDB"/>
<path d="M64.5238 32.6889H96.1784L83.8672 54.0452H66.8723V58.0495H86.1561L100.048 33.9102C100.355 33.382 100.517 32.7807 100.517 32.1683C100.517 31.556 100.355 30.9547 100.048 30.4265C99.748 29.8947 99.3127 29.4531 98.7872 29.147C98.2618 28.8408 97.665 28.6813 97.0583 28.6846H64.193C63.5908 28.687 62.9995 28.8477 62.4774 29.1508C61.9554 29.4539 61.5207 29.8889 61.2161 30.4131L51.7495 46.8374L55.1829 48.8396L64.5238 32.6889Z" fill="#88FFDB"/>
</g>
<defs>
<clipPath id="clip0_1_6150">
<rect width="86" height="93" fill="white" transform="translate(16 12)"/>
</clipPath>
</defs>
</svg>
