<svg width="17" height="17" viewBox="0 0 17 17" fill="none" xmlns="http://www.w3.org/2000/svg">
<path d="M8.22293 0.268112C3.77187 0.268112 0.16748 3.96145 0.16748 8.51216C0.16748 13.0629 3.77187 16.7562 8.22293 16.7562C12.6821 16.7562 16.2945 13.0629 16.2945 8.51216C16.2945 3.96145 12.6821 0.268112 8.22293 0.268112ZM8.23099 15.1074C4.66692 15.1074 1.78018 12.156 1.78018 8.51216C1.78018 4.86829 4.66692 1.91692 8.23099 1.91692C11.7951 1.91692 14.6818 4.86829 14.6818 8.51216C14.6818 12.156 11.7951 15.1074 8.23099 15.1074ZM8.63417 4.39014H7.42464V9.33657L11.658 11.9334L12.2628 10.9194L8.63417 8.71826V4.39014Z" fill="#3A3A3A"/>
</svg>
