<svg width="133" height="133" viewBox="0 0 133 133" fill="none" xmlns="http://www.w3.org/2000/svg">
<rect width="133" height="133" rx="10" fill="white" fill-opacity="0.2"/>
<g clip-path="url(#clip0_1_6153)">
<path d="M73.3144 45.0677H54.3386C46.0156 45.0677 40.4265 51.4817 40.4265 61.0527V72.7483C40.4145 75.5615 41.1558 78.3279 42.5751 80.7659C43.9944 83.2039 46.0411 85.2267 48.5071 86.6286V117.02H52.5474V61.0727H48.5071V81.7199C47.2297 80.5899 46.2092 79.2048 45.5127 77.656C44.8163 76.1072 44.4598 74.4301 44.4668 72.735V61.0393C44.4668 55.5179 47.0526 49.0506 54.3386 49.0506H73.3144C80.6003 49.0506 83.1861 55.4979 83.1861 61.0393V72.735C83.1887 74.5033 82.7979 76.2505 82.0415 77.8528C81.2851 79.455 80.1815 80.873 78.8091 82.0062V61.0593H74.7689V117.007H78.8091V86.8018C81.3631 85.4227 83.4933 83.3872 84.9748 80.9102C86.4563 78.4331 87.2342 75.6064 87.2264 72.7284V61.0327C87.1995 51.4817 81.6373 45.0677 73.3144 45.0677Z" fill="#88FFDB"/>
<path d="M66.015 84.364H61.9747V117H66.015V84.364Z" fill="#88FFDB"/>
<path d="M62.7829 43.3095H63.8873C66.509 43.3095 69.0233 42.2793 70.8772 40.4457C72.731 38.6121 73.7725 36.1251 73.7725 33.532V27.7775C73.7725 25.1843 72.731 22.6974 70.8772 20.8638C69.0233 19.0301 66.509 18 63.8873 18H62.7829C60.1612 18 57.6469 19.0301 55.793 20.8638C53.9392 22.6974 52.8977 25.1843 52.8977 27.7775V33.532C52.8977 36.1251 53.9392 38.6121 55.793 40.4457C57.6469 42.2793 60.1612 43.3095 62.7829 43.3095ZM56.938 27.7775C56.938 26.2442 57.5538 24.7737 58.65 23.6895C59.7461 22.6054 61.2328 21.9962 62.7829 21.9962H63.8873C65.4375 21.9962 66.9241 22.6054 68.0203 23.6895C69.1164 24.7737 69.7322 26.2442 69.7322 27.7775V33.532C69.7322 35.0653 69.1164 36.5357 68.0203 37.6199C66.9241 38.7041 65.4375 39.3132 63.8873 39.3132H62.7829C61.2328 39.3132 59.7461 38.7041 58.65 37.6199C57.5538 36.5357 56.938 35.0653 56.938 33.532V27.7775Z" fill="#88FFDB"/>
<path d="M91.3612 50.0498L102.728 38.8071V44.3086H106.768V35.317V34.8108L106.849 34.7309L106.768 34.651V31.6538V31.3208H93.9739V35.317H100.546L88.506 47.2258L91.3612 50.0498Z" fill="#88FFDB"/>
<path d="M116 68.1461L106.95 59.2012L104.095 62.0252L108.741 66.6208H91.7179V70.6171H107.791L103.859 74.5067L106.714 77.3308L113.145 70.9701L113.502 70.6171H113.616V70.5039L116 68.1461Z" fill="#88FFDB"/>
<path d="M103.563 98.9903L91.5227 87.0815L88.6676 89.9122L100.034 101.148H94.4721V105.144H103.563H104.074L104.155 105.231L104.236 105.144H107.266H107.603V92.4898H103.563V98.9903Z" fill="#88FFDB"/>
<path d="M33.0263 35.2105V31.2142H20.2321V31.5473V34.5444L20.1513 34.6244L20.2321 34.7043V35.2105V44.202H24.2724V38.7005L35.639 49.9432L38.4941 47.1192L26.4541 35.2105H33.0263Z" fill="#88FFDB"/>
<path d="M13.8551 70.8635L20.2859 77.2241L23.141 74.3935L19.2085 70.5105H35.2821V66.5142H18.259L22.9053 61.9186L20.0502 59.0879L11 68.0395L13.3838 70.3906V70.5105H13.4982L13.8551 70.8635Z" fill="#88FFDB"/>
<path d="M35.4774 86.975L23.4374 98.8837V92.3832H19.3971V105.038H19.7338H22.764L22.8448 105.118L22.9256 105.038H23.4374H32.528V101.042H26.9659L38.3325 89.799L35.4774 86.975Z" fill="#88FFDB"/>
</g>
<defs>
<clipPath id="clip0_1_6153">
<rect width="105" height="99" fill="white" transform="translate(11 18)"/>
</clipPath>
</defs>
</svg>
