<svg width="32" height="33" viewBox="0 0 32 33" fill="none" xmlns="http://www.w3.org/2000/svg">
<path d="M16 32.667C24.8366 32.667 32 25.5035 32 16.667C32 7.83044 24.8366 0.666992 16 0.666992C7.16344 0.666992 0 7.83044 0 16.667C0 25.5035 7.16344 32.667 16 32.667Z" fill="url(#paint0_linear_3306_947)"/>
<path fill-rule="evenodd" clip-rule="evenodd" d="M7.24334 16.4979C11.9077 14.4658 15.0179 13.126 16.5742 12.4787C21.0175 10.6306 21.9408 10.3095 22.5426 10.2989C22.675 10.2966 22.9709 10.3294 23.1626 10.485C23.3245 10.6163 23.369 10.7937 23.3903 10.9183C23.4117 11.0428 23.4382 11.3265 23.4171 11.5481C23.1763 14.0781 22.1344 20.2177 21.6044 23.0513C21.3801 24.2503 20.9385 24.6523 20.5109 24.6917C19.5818 24.7772 18.8762 24.0776 17.9763 23.4877C16.5681 22.5646 15.7725 21.99 14.4056 21.0892C12.8259 20.0482 13.85 19.4761 14.7503 18.541C14.9859 18.2963 19.0797 14.5726 19.1589 14.2348C19.1689 14.1926 19.1781 14.0351 19.0845 13.952C18.9909 13.8688 18.8529 13.8972 18.7532 13.9199C18.612 13.9519 16.3624 15.4388 12.0043 18.3806C11.3658 18.8191 10.7874 19.0327 10.2692 19.0215C9.69791 19.0092 8.599 18.6985 7.78206 18.433C6.78006 18.1073 5.98369 17.9351 6.05304 17.3819C6.08916 17.0938 6.48592 16.7991 7.24334 16.4979Z" fill="white"/>
<defs>
<linearGradient id="paint0_linear_3306_947" x1="16" y1="0.666992" x2="16" y2="32.4297" gradientUnits="userSpaceOnUse">
<stop stop-color="#2AABEE"/>
<stop offset="1" stop-color="#229ED9"/>
</linearGradient>
</defs>
</svg>
