<svg width="424" height="308" viewBox="0 0 424 308" fill="none" xmlns="http://www.w3.org/2000/svg">
<g style="mix-blend-mode:screen" opacity="0.12">
<path d="M62.7619 146.341C65.7379 146.341 68.3139 146.837 70.4899 147.829C72.6979 148.821 74.3939 150.229 75.5779 152.053C76.7619 153.877 77.3539 156.037 77.3539 158.533C77.3539 160.997 76.7619 163.157 75.5779 165.013C74.3939 166.837 72.6979 168.245 70.4899 169.237C68.3139 170.197 65.7379 170.677 62.7619 170.677H55.9939V179.941H48.2179V146.341H62.7619ZM62.3299 164.341C64.6659 164.341 66.4419 163.845 67.6579 162.853C68.8739 161.829 69.4819 160.389 69.4819 158.533C69.4819 156.645 68.8739 155.205 67.6579 154.213C66.4419 153.189 64.6659 152.677 62.3299 152.677H55.9939V164.341H62.3299ZM103.605 167.125C103.605 167.221 103.557 167.893 103.461 169.141H83.9246C84.2766 170.741 85.1086 172.005 86.4206 172.933C87.7326 173.861 89.3646 174.325 91.3166 174.325C92.6606 174.325 93.8446 174.133 94.8686 173.749C95.9246 173.333 96.9006 172.693 97.7966 171.829L101.781 176.149C99.3486 178.933 95.7966 180.325 91.1246 180.325C88.2126 180.325 85.6366 179.765 83.3966 178.645C81.1566 177.493 79.4286 175.909 78.2126 173.893C76.9966 171.877 76.3886 169.589 76.3886 167.029C76.3886 164.501 76.9806 162.229 78.1646 160.213C79.3806 158.165 81.0286 156.581 83.1086 155.461C85.2206 154.309 87.5726 153.733 90.1646 153.733C92.6926 153.733 94.9806 154.277 97.0286 155.365C99.0766 156.453 100.677 158.021 101.829 160.069C103.013 162.085 103.605 164.437 103.605 167.125ZM90.2126 159.397C88.5166 159.397 87.0926 159.877 85.9406 160.837C84.7886 161.797 84.0846 163.109 83.8286 164.773H96.5486C96.2926 163.141 95.5886 161.845 94.4366 160.885C93.2846 159.893 91.8766 159.397 90.2126 159.397ZM115.313 153.733C119.313 153.733 122.385 154.693 124.529 156.613C126.673 158.501 127.745 161.365 127.745 165.205V179.941H120.737V176.725C119.329 179.125 116.705 180.325 112.865 180.325C110.881 180.325 109.153 179.989 107.681 179.317C106.241 178.645 105.137 177.717 104.369 176.533C103.601 175.349 103.217 174.005 103.217 172.501C103.217 170.101 104.113 168.213 105.905 166.837C107.729 165.461 110.529 164.773 114.305 164.773H120.257C120.257 163.141 119.761 161.893 118.769 161.029C117.777 160.133 116.289 159.685 114.305 159.685C112.929 159.685 111.569 159.909 110.225 160.357C108.913 160.773 107.793 161.349 106.865 162.085L104.177 156.853C105.585 155.861 107.265 155.093 109.217 154.549C111.201 154.005 113.233 153.733 115.313 153.733ZM114.737 175.285C116.017 175.285 117.153 174.997 118.145 174.421C119.137 173.813 119.841 172.933 120.257 171.781V169.141H115.121C112.049 169.141 110.513 170.149 110.513 172.165C110.513 173.125 110.881 173.893 111.617 174.469C112.385 175.013 113.425 175.285 114.737 175.285ZM155.658 154.117V179.941H148.17V160.261H140.01L139.77 164.821C139.642 168.213 139.322 171.029 138.81 173.269C138.298 175.509 137.466 177.269 136.314 178.549C135.162 179.829 133.562 180.469 131.514 180.469C130.426 180.469 129.13 180.277 127.626 179.893L128.01 173.749C128.522 173.813 128.89 173.845 129.114 173.845C130.234 173.845 131.066 173.445 131.61 172.645C132.186 171.813 132.57 170.773 132.762 169.525C132.954 168.245 133.098 166.565 133.194 164.485L133.578 154.117H155.658ZM173.467 162.373C176.827 162.405 179.403 163.173 181.195 164.677C182.987 166.149 183.883 168.245 183.883 170.965C183.883 173.813 182.875 176.037 180.859 177.637C178.875 179.205 176.075 179.989 172.459 179.989L159.499 179.941V154.117H166.939V162.373H173.467ZM171.787 174.661C173.227 174.693 174.331 174.389 175.099 173.749C175.867 173.109 176.251 172.149 176.251 170.869C176.251 169.621 175.867 168.709 175.099 168.133C174.363 167.557 173.259 167.253 171.787 167.221L166.939 167.173V174.661H171.787ZM185.201 154.117H192.641V164.197H203.873V154.117H211.361V179.941H203.873V170.293H192.641V179.941H185.201V154.117ZM227.265 180.325C224.545 180.325 222.097 179.765 219.921 178.645C217.777 177.493 216.097 175.909 214.881 173.893C213.665 171.877 213.057 169.589 213.057 167.029C213.057 164.469 213.665 162.181 214.881 160.165C216.097 158.149 217.777 156.581 219.921 155.461C222.097 154.309 224.545 153.733 227.265 153.733C229.985 153.733 232.417 154.309 234.561 155.461C236.705 156.581 238.385 158.149 239.601 160.165C240.817 162.181 241.425 164.469 241.425 167.029C241.425 169.589 240.817 171.877 239.601 173.893C238.385 175.909 236.705 177.493 234.561 178.645C232.417 179.765 229.985 180.325 227.265 180.325ZM227.265 174.181C229.185 174.181 230.753 173.541 231.969 172.261C233.217 170.949 233.841 169.205 233.841 167.029C233.841 164.853 233.217 163.125 231.969 161.845C230.753 160.533 229.185 159.877 227.265 159.877C225.345 159.877 223.761 160.533 222.513 161.845C221.265 163.125 220.641 164.853 220.641 167.029C220.641 169.205 221.265 170.949 222.513 172.261C223.761 173.541 225.345 174.181 227.265 174.181ZM255.504 180.325C252.752 180.325 250.272 179.765 248.064 178.645C245.888 177.493 244.176 175.909 242.928 173.893C241.712 171.877 241.104 169.589 241.104 167.029C241.104 164.469 241.712 162.181 242.928 160.165C244.176 158.149 245.888 156.581 248.064 155.461C250.272 154.309 252.752 153.733 255.504 153.733C258.224 153.733 260.592 154.309 262.608 155.461C264.656 156.581 266.144 158.197 267.072 160.309L261.264 163.429C259.92 161.061 257.984 159.877 255.456 159.877C253.504 159.877 251.888 160.517 250.608 161.797C249.328 163.077 248.688 164.821 248.688 167.029C248.688 169.237 249.328 170.981 250.608 172.261C251.888 173.541 253.504 174.181 255.456 174.181C258.016 174.181 259.952 172.997 261.264 170.629L267.072 173.797C266.144 175.845 264.656 177.445 262.608 178.597C260.592 179.749 258.224 180.325 255.504 180.325ZM289.864 160.261H281.128V179.941H273.688V160.261H264.952V154.117H289.864V160.261ZM304.464 162.373C307.824 162.405 310.4 163.173 312.192 164.677C313.984 166.149 314.88 168.245 314.88 170.965C314.88 173.813 313.872 176.037 311.856 177.637C309.872 179.205 307.072 179.989 303.456 179.989L290.496 179.941V154.117H297.936V162.373H304.464ZM302.784 174.661C304.224 174.693 305.328 174.389 306.096 173.749C306.864 173.109 307.248 172.149 307.248 170.869C307.248 169.621 306.864 168.709 306.096 168.133C305.36 167.557 304.256 167.253 302.784 167.221L297.936 167.173V174.661H302.784Z" fill="white"/>
</g>
<g style="mix-blend-mode:screen" opacity="0.12">
<path d="M231.842 216.993C234.306 216.993 236.466 217.505 238.322 218.529C240.178 219.521 241.602 220.929 242.594 222.753C243.618 224.577 244.13 226.689 244.13 229.089C244.13 231.553 243.522 233.745 242.306 235.665C241.122 237.553 239.458 239.025 237.314 240.081C235.17 241.105 232.738 241.617 230.018 241.617C225.506 241.617 221.954 240.177 219.362 237.297C216.802 234.385 215.522 230.129 215.522 224.529C215.522 219.345 216.642 215.217 218.882 212.145C221.154 209.041 224.626 207.009 229.298 206.049L241.586 203.601L242.594 210.033L231.746 212.193C228.802 212.769 226.61 213.729 225.17 215.073C223.762 216.417 222.93 218.321 222.674 220.785C223.794 219.569 225.138 218.641 226.706 218.001C228.274 217.329 229.986 216.993 231.842 216.993ZM230.066 235.809C231.986 235.809 233.522 235.185 234.674 233.937C235.858 232.689 236.45 231.105 236.45 229.185C236.45 227.233 235.858 225.681 234.674 224.529C233.522 223.377 231.986 222.801 230.066 222.801C228.114 222.801 226.546 223.377 225.362 224.529C224.178 225.681 223.586 227.233 223.586 229.185C223.586 231.137 224.194 232.737 225.41 233.985C226.626 235.201 228.178 235.809 230.066 235.809ZM259.435 223.473C262.795 223.505 265.339 224.257 267.067 225.729C268.795 227.201 269.659 229.313 269.659 232.065C269.659 234.945 268.683 237.169 266.731 238.737C264.779 240.305 262.011 241.089 258.427 241.089L245.851 241.041V215.217H253.291V223.473H259.435ZM272.443 215.217H279.883V241.041H272.443V215.217ZM257.755 235.761C259.195 235.793 260.299 235.489 261.067 234.849C261.835 234.209 262.219 233.249 262.219 231.969C262.219 230.721 261.835 229.809 261.067 229.233C260.331 228.657 259.227 228.353 257.755 228.321L253.291 228.273V235.761H257.755ZM296.029 241.425C293.277 241.425 290.797 240.865 288.589 239.745C286.413 238.593 284.701 237.009 283.453 234.993C282.237 232.977 281.629 230.689 281.629 228.129C281.629 225.569 282.237 223.281 283.453 221.265C284.701 219.249 286.413 217.681 288.589 216.561C290.797 215.409 293.277 214.833 296.029 214.833C298.749 214.833 301.117 215.409 303.133 216.561C305.181 217.681 306.669 219.297 307.597 221.409L301.789 224.529C300.445 222.161 298.509 220.977 295.981 220.977C294.029 220.977 292.413 221.617 291.133 222.897C289.853 224.177 289.213 225.921 289.213 228.129C289.213 230.337 289.853 232.081 291.133 233.361C292.413 234.641 294.029 235.281 295.981 235.281C298.541 235.281 300.477 234.097 301.789 231.729L307.597 234.897C306.669 236.945 305.181 238.545 303.133 239.697C301.117 240.849 298.749 241.425 296.029 241.425ZM330.39 221.361H321.654V241.041H314.214V221.361H305.478V215.217H330.39V221.361ZM346.237 214.833C348.637 214.833 350.813 215.393 352.765 216.513C354.749 217.601 356.301 219.153 357.421 221.169C358.541 223.153 359.101 225.473 359.101 228.129C359.101 230.785 358.541 233.121 357.421 235.137C356.301 237.121 354.749 238.673 352.765 239.793C350.813 240.881 348.637 241.425 346.237 241.425C342.941 241.425 340.349 240.385 338.461 238.305V250.353H330.973V215.217H338.125V218.193C339.981 215.953 342.685 214.833 346.237 214.833ZM344.941 235.281C346.861 235.281 348.429 234.641 349.645 233.361C350.893 232.049 351.517 230.305 351.517 228.129C351.517 225.953 350.893 224.225 349.645 222.945C348.429 221.633 346.861 220.977 344.941 220.977C343.021 220.977 341.437 221.633 340.189 222.945C338.973 224.225 338.365 225.953 338.365 228.129C338.365 230.305 338.973 232.049 340.189 233.361C341.437 234.641 343.021 235.281 344.941 235.281ZM374.573 223.473C377.933 223.505 380.477 224.257 382.205 225.729C383.933 227.201 384.797 229.313 384.797 232.065C384.797 234.945 383.821 237.169 381.869 238.737C379.917 240.305 377.149 241.089 373.565 241.089L360.989 241.041V215.217H368.429V223.473H374.573ZM387.581 215.217H395.021V241.041H387.581V215.217ZM372.893 235.761C374.333 235.793 375.437 235.489 376.205 234.849C376.973 234.209 377.357 233.249 377.357 231.969C377.357 230.721 376.973 229.809 376.205 229.233C375.469 228.657 374.365 228.353 372.893 228.321L368.429 228.273V235.761H372.893ZM415.103 241.041L409.439 233.121L403.583 241.041H395.423L405.359 228.033L395.759 215.217H404.159L409.631 222.753L415.247 215.217H423.215L413.615 227.841L423.599 241.041H415.103Z" fill="white"/>
</g>
<g style="mix-blend-mode:screen" opacity="0.12">
<path d="M4.20131 8.00351H31.3213V14.1955H11.9293V21.1075H21.2413C25.3053 21.1075 28.3933 21.9555 30.5053 23.6515C32.6493 25.3475 33.7213 27.7955 33.7213 30.9955C33.7213 34.3555 32.5373 36.9635 30.1693 38.8195C27.8013 40.6755 24.4573 41.6035 20.1373 41.6035H4.20131V8.00351ZM19.7053 35.8435C21.6893 35.8435 23.2093 35.4595 24.2653 34.6915C25.3213 33.8915 25.8493 32.7395 25.8493 31.2355C25.8493 28.2915 23.8013 26.8195 19.7053 26.8195H11.9293V35.8435H19.7053ZM49.2868 24.0355C52.6468 24.0675 55.1908 24.8195 56.9188 26.2915C58.6468 27.7635 59.5108 29.8755 59.5108 32.6275C59.5108 35.5075 58.5348 37.7315 56.5828 39.2995C54.6308 40.8675 51.8628 41.6515 48.2788 41.6515L35.7028 41.6035V15.7795H43.1428V24.0355H49.2868ZM62.2948 15.7795H69.7348V41.6035H62.2948V15.7795ZM47.6068 36.3235C49.0468 36.3555 50.1508 36.0515 50.9188 35.4115C51.6868 34.7715 52.0708 33.8115 52.0708 32.5315C52.0708 31.2835 51.6868 30.3715 50.9188 29.7955C50.1828 29.2195 49.0788 28.9155 47.6068 28.8835L43.1428 28.8355V36.3235H47.6068ZM85.8808 41.9875C83.1288 41.9875 80.6488 41.4275 78.4408 40.3075C76.2648 39.1555 74.5528 37.5715 73.3048 35.5555C72.0888 33.5395 71.4808 31.2515 71.4808 28.6915C71.4808 26.1315 72.0888 23.8435 73.3048 21.8275C74.5528 19.8115 76.2648 18.2435 78.4408 17.1235C80.6488 15.9715 83.1288 15.3955 85.8808 15.3955C88.6008 15.3955 90.9688 15.9715 92.9848 17.1235C95.0328 18.2435 96.5208 19.8595 97.4488 21.9715L91.6408 25.0915C90.2968 22.7235 88.3608 21.5395 85.8328 21.5395C83.8808 21.5395 82.2648 22.1795 80.9848 23.4595C79.7048 24.7395 79.0648 26.4835 79.0648 28.6915C79.0648 30.8995 79.7048 32.6435 80.9848 33.9235C82.2648 35.2035 83.8808 35.8435 85.8328 35.8435C88.3928 35.8435 90.3288 34.6595 91.6408 32.2915L97.4488 35.4595C96.5208 37.5075 95.0328 39.1075 92.9848 40.2595C90.9688 41.4115 88.6008 41.9875 85.8808 41.9875ZM120.241 21.9235H111.505V41.6035H104.065V21.9235H95.3293V15.7795H120.241V21.9235ZM136.089 15.3955C138.489 15.3955 140.665 15.9555 142.617 17.0755C144.601 18.1635 146.153 19.7155 147.273 21.7315C148.393 23.7155 148.953 26.0355 148.953 28.6915C148.953 31.3475 148.393 33.6835 147.273 35.6995C146.153 37.6835 144.601 39.2355 142.617 40.3555C140.665 41.4435 138.489 41.9875 136.089 41.9875C132.793 41.9875 130.201 40.9475 128.313 38.8675V50.9155H120.825V15.7795H127.977V18.7555C129.833 16.5155 132.537 15.3955 136.089 15.3955ZM134.793 35.8435C136.713 35.8435 138.281 35.2035 139.497 33.9235C140.745 32.6115 141.369 30.8675 141.369 28.6915C141.369 26.5155 140.745 24.7875 139.497 23.5075C138.281 22.1955 136.713 21.5395 134.793 21.5395C132.873 21.5395 131.289 22.1955 130.041 23.5075C128.825 24.7875 128.217 26.5155 128.217 28.6915C128.217 30.8675 128.825 32.6115 130.041 33.9235C131.289 35.2035 132.873 35.8435 134.793 35.8435ZM164.425 24.0355C167.785 24.0675 170.329 24.8195 172.057 26.2915C173.785 27.7635 174.649 29.8755 174.649 32.6275C174.649 35.5075 173.673 37.7315 171.721 39.2995C169.769 40.8675 167.001 41.6515 163.417 41.6515L150.841 41.6035V15.7795H158.281V24.0355H164.425ZM177.433 15.7795H184.873V41.6035H177.433V15.7795ZM162.745 36.3235C164.185 36.3555 165.289 36.0515 166.057 35.4115C166.825 34.7715 167.209 33.8115 167.209 32.5315C167.209 31.2835 166.825 30.3715 166.057 29.7955C165.321 29.2195 164.217 28.9155 162.745 28.8835L158.281 28.8355V36.3235H162.745ZM213.835 28.7875C213.835 28.8835 213.787 29.5555 213.691 30.8035H194.155C194.507 32.4035 195.339 33.6675 196.651 34.5955C197.963 35.5235 199.595 35.9875 201.547 35.9875C202.891 35.9875 204.075 35.7955 205.099 35.4115C206.155 34.9955 207.131 34.3555 208.027 33.4915L212.011 37.8115C209.579 40.5955 206.027 41.9875 201.355 41.9875C198.443 41.9875 195.867 41.4275 193.627 40.3075C191.387 39.1555 189.659 37.5715 188.443 35.5555C187.227 33.5395 186.619 31.2515 186.619 28.6915C186.619 26.1635 187.211 23.8915 188.395 21.8755C189.611 19.8275 191.259 18.2435 193.339 17.1235C195.451 15.9715 197.803 15.3955 200.395 15.3955C202.923 15.3955 205.211 15.9395 207.259 17.0275C209.307 18.1155 210.907 19.6835 212.059 21.7315C213.243 23.7475 213.835 26.0995 213.835 28.7875ZM200.443 21.0595C198.747 21.0595 197.323 21.5395 196.171 22.4995C195.019 23.4595 194.315 24.7715 194.059 26.4355H206.779C206.523 24.8035 205.819 23.5075 204.667 22.5475C203.515 21.5555 202.107 21.0595 200.443 21.0595Z" fill="white"/>
</g>
<g style="mix-blend-mode:screen" opacity="0.12">
<path d="M88.7431 67.6565H96.1831V83.0165L108.759 67.6565H115.623V93.4805H108.183V78.1205L95.6551 93.4805H88.7431V67.6565ZM135.979 80.0405C137.515 80.5205 138.699 81.2565 139.531 82.2485C140.395 83.2405 140.827 84.4245 140.827 85.8005C140.827 87.4325 140.267 88.8725 139.147 90.1205C138.027 91.3365 136.491 92.2805 134.539 92.9525C132.587 93.6245 130.379 93.9605 127.915 93.9605C125.899 93.9605 123.915 93.7525 121.963 93.3365C120.011 92.9205 118.203 92.2965 116.539 91.4645L118.555 86.2325C121.275 87.5445 124.283 88.2005 127.579 88.2005C129.339 88.2005 130.715 87.9445 131.707 87.4325C132.731 86.8885 133.243 86.1365 133.243 85.1765C133.243 84.3445 132.891 83.7205 132.187 83.3045C131.483 82.8565 130.459 82.6325 129.115 82.6325H123.835V77.9765H128.443C129.755 77.9765 130.763 77.7685 131.467 77.3525C132.171 76.9365 132.523 76.3285 132.523 75.5285C132.523 74.6965 132.075 74.0565 131.179 73.6085C130.315 73.1605 129.067 72.9365 127.435 72.9365C124.939 72.9365 122.219 73.5285 119.275 74.7125L117.451 69.5285C121.035 67.9605 124.523 67.1765 127.915 67.1765C130.251 67.1765 132.331 67.4645 134.155 68.0405C136.011 68.6165 137.467 69.4645 138.523 70.5845C139.579 71.6725 140.107 72.9525 140.107 74.4245C140.107 75.6405 139.739 76.7445 139.003 77.7365C138.267 78.6965 137.259 79.4645 135.979 80.0405ZM168.114 93.4805V78.0245L160.386 90.9845H157.218L149.682 77.9765V93.4805H142.914V67.6565H150.738L158.994 82.5845L167.778 67.6565H174.786L174.882 93.4805H168.114ZM203.798 80.6645C203.798 80.7605 203.75 81.4325 203.654 82.6805H184.118C184.47 84.2805 185.302 85.5445 186.614 86.4725C187.926 87.4005 189.558 87.8645 191.51 87.8645C192.854 87.8645 194.038 87.6725 195.062 87.2885C196.118 86.8725 197.094 86.2325 197.99 85.3685L201.974 89.6885C199.542 92.4725 195.99 93.8645 191.318 93.8645C188.406 93.8645 185.83 93.3045 183.59 92.1845C181.35 91.0325 179.622 89.4485 178.406 87.4325C177.19 85.4165 176.582 83.1285 176.582 80.5685C176.582 78.0405 177.174 75.7685 178.358 73.7525C179.574 71.7045 181.222 70.1205 183.302 69.0005C185.414 67.8485 187.766 67.2725 190.358 67.2725C192.886 67.2725 195.174 67.8165 197.222 68.9045C199.27 69.9925 200.87 71.5605 202.022 73.6085C203.206 75.6245 203.798 77.9765 203.798 80.6645ZM190.406 72.9365C188.71 72.9365 187.286 73.4165 186.134 74.3765C184.982 75.3365 184.278 76.6485 184.022 78.3125H196.742C196.486 76.6805 195.782 75.3845 194.63 74.4245C193.478 73.4325 192.07 72.9365 190.406 72.9365ZM206.178 67.6565H213.618V77.7365H224.85V67.6565H232.338V93.4805H224.85V83.8325H213.618V93.4805H206.178V67.6565ZM261.25 80.6645C261.25 80.7605 261.202 81.4325 261.106 82.6805H241.57C241.922 84.2805 242.754 85.5445 244.066 86.4725C245.378 87.4005 247.01 87.8645 248.962 87.8645C250.306 87.8645 251.49 87.6725 252.514 87.2885C253.57 86.8725 254.546 86.2325 255.442 85.3685L259.426 89.6885C256.994 92.4725 253.442 93.8645 248.77 93.8645C245.858 93.8645 243.282 93.3045 241.042 92.1845C238.802 91.0325 237.074 89.4485 235.858 87.4325C234.642 85.4165 234.034 83.1285 234.034 80.5685C234.034 78.0405 234.626 75.7685 235.81 73.7525C237.026 71.7045 238.674 70.1205 240.754 69.0005C242.866 67.8485 245.218 67.2725 247.81 67.2725C250.338 67.2725 252.626 67.8165 254.674 68.9045C256.722 69.9925 258.322 71.5605 259.474 73.6085C260.658 75.6245 261.25 77.9765 261.25 80.6645ZM247.858 72.9365C246.162 72.9365 244.738 73.4165 243.586 74.3765C242.434 75.3365 241.73 76.6485 241.474 78.3125H254.194C253.938 76.6805 253.234 75.3845 252.082 74.4245C250.93 73.4325 249.522 72.9365 247.858 72.9365ZM263.63 67.6565H271.07V77.7365H282.302V67.6565H289.79V93.4805H282.302V83.8325H271.07V93.4805H263.63V67.6565ZM293.598 67.6565H301.038V83.0165L313.614 67.6565H320.478V93.4805H313.038V78.1205L300.51 93.4805H293.598V67.6565ZM347.26 67.6565V93.4805H340.588V86.0885H335.068L330.172 93.4805H322.204L328.108 85.0325C326.316 84.3285 324.94 83.3205 323.98 82.0085C323.052 80.6645 322.588 79.0485 322.588 77.1605C322.588 74.1205 323.676 71.7845 325.852 70.1525C328.06 68.4885 331.084 67.6565 334.924 67.6565H347.26ZM335.068 73.7525C333.468 73.7525 332.252 74.0405 331.42 74.6165C330.62 75.1925 330.22 76.1205 330.22 77.4005C330.22 78.6805 330.604 79.6245 331.372 80.2325C332.172 80.8085 333.372 81.0965 334.972 81.0965H340.588V73.7525H335.068Z" fill="white"/>
</g>
<g style="mix-blend-mode:screen" opacity="0.12">
<path d="M143.328 267.093V292.917H135.84V273.237H125.088V292.917H117.648V267.093H143.328ZM159.244 293.301C156.524 293.301 154.076 292.741 151.9 291.621C149.756 290.469 148.076 288.885 146.86 286.869C145.644 284.853 145.036 282.565 145.036 280.005C145.036 277.445 145.644 275.157 146.86 273.141C148.076 271.125 149.756 269.557 151.9 268.437C154.076 267.285 156.524 266.709 159.244 266.709C161.964 266.709 164.396 267.285 166.54 268.437C168.684 269.557 170.364 271.125 171.58 273.141C172.796 275.157 173.404 277.445 173.404 280.005C173.404 282.565 172.796 284.853 171.58 286.869C170.364 288.885 168.684 290.469 166.54 291.621C164.396 292.741 161.964 293.301 159.244 293.301ZM159.244 287.157C161.164 287.157 162.732 286.517 163.948 285.237C165.196 283.925 165.82 282.181 165.82 280.005C165.82 277.829 165.196 276.101 163.948 274.821C162.732 273.509 161.164 272.853 159.244 272.853C157.324 272.853 155.74 273.509 154.492 274.821C153.244 276.101 152.62 277.829 152.62 280.005C152.62 282.181 153.244 283.925 154.492 285.237C155.74 286.517 157.324 287.157 159.244 287.157ZM190.122 268.869C192.586 268.869 194.746 269.381 196.602 270.405C198.458 271.397 199.882 272.805 200.874 274.629C201.898 276.453 202.41 278.565 202.41 280.965C202.41 283.429 201.802 285.621 200.586 287.541C199.402 289.429 197.738 290.901 195.594 291.957C193.45 292.981 191.018 293.493 188.298 293.493C183.786 293.493 180.234 292.053 177.642 289.173C175.082 286.261 173.802 282.005 173.802 276.405C173.802 271.221 174.922 267.093 177.162 264.021C179.434 260.917 182.906 258.885 187.578 257.925L199.866 255.477L200.874 261.909L190.026 264.069C187.082 264.645 184.89 265.605 183.45 266.949C182.042 268.293 181.21 270.197 180.954 272.661C182.074 271.445 183.418 270.517 184.986 269.877C186.554 269.205 188.266 268.869 190.122 268.869ZM188.346 287.685C190.266 287.685 191.802 287.061 192.954 285.813C194.138 284.565 194.73 282.981 194.73 281.061C194.73 279.109 194.138 277.557 192.954 276.405C191.802 275.253 190.266 274.677 188.346 274.677C186.394 274.677 184.826 275.253 183.642 276.405C182.458 277.557 181.866 279.109 181.866 281.061C181.866 283.013 182.474 284.613 183.69 285.861C184.906 287.077 186.458 287.685 188.346 287.685ZM229.235 280.101C229.235 280.197 229.187 280.869 229.091 282.117H209.555C209.907 283.717 210.739 284.981 212.051 285.909C213.363 286.837 214.995 287.301 216.947 287.301C218.291 287.301 219.475 287.109 220.499 286.725C221.555 286.309 222.531 285.669 223.427 284.805L227.411 289.125C224.979 291.909 221.427 293.301 216.755 293.301C213.843 293.301 211.267 292.741 209.027 291.621C206.787 290.469 205.059 288.885 203.843 286.869C202.627 284.853 202.019 282.565 202.019 280.005C202.019 277.477 202.611 275.205 203.795 273.189C205.011 271.141 206.659 269.557 208.739 268.437C210.851 267.285 213.203 266.709 215.795 266.709C218.323 266.709 220.611 267.253 222.659 268.341C224.707 269.429 226.307 270.997 227.459 273.045C228.643 275.061 229.235 277.413 229.235 280.101ZM215.843 272.373C214.147 272.373 212.723 272.853 211.571 273.813C210.419 274.773 209.715 276.085 209.459 277.749H222.179C221.923 276.117 221.219 274.821 220.067 273.861C218.915 272.869 217.507 272.373 215.843 272.373ZM260.324 286.773V298.485H253.364V292.917H235.22V298.485H228.26V286.773H229.316C230.916 286.741 232.02 285.797 232.628 283.941C233.236 282.085 233.62 279.445 233.78 276.021L234.116 267.093H256.628V286.773H260.324ZM240.548 276.549C240.452 279.173 240.244 281.317 239.924 282.981C239.636 284.645 239.076 285.909 238.244 286.773H249.14V273.237H240.692L240.548 276.549ZM260.573 259.317H269.501L268.013 281.253H262.061L260.573 259.317ZM265.037 293.301C263.725 293.301 262.621 292.885 261.725 292.053C260.861 291.189 260.429 290.149 260.429 288.933C260.429 287.717 260.861 286.709 261.725 285.909C262.589 285.077 263.693 284.661 265.037 284.661C266.381 284.661 267.485 285.077 268.349 285.909C269.213 286.709 269.645 287.717 269.645 288.933C269.645 290.149 269.197 291.189 268.301 292.053C267.437 292.885 266.349 293.301 265.037 293.301Z" fill="white"/>
</g>
</svg>
