<svg width="501" height="185" viewBox="0 0 501 185" fill="none" xmlns="http://www.w3.org/2000/svg">
<g style="mix-blend-mode:screen" opacity="0.12">
<path d="M75.0666 103.4C78.0426 103.4 80.6186 103.896 82.7946 104.888C85.0026 105.88 86.6986 107.288 87.8826 109.112C89.0666 110.936 89.6586 113.096 89.6586 115.592C89.6586 118.056 89.0666 120.216 87.8826 122.072C86.6986 123.896 85.0026 125.304 82.7946 126.296C80.6186 127.256 78.0426 127.736 75.0666 127.736H68.2986V137H60.5226V103.4H75.0666ZM74.6346 121.4C76.9706 121.4 78.7466 120.904 79.9626 119.912C81.1786 118.888 81.7866 117.448 81.7866 115.592C81.7866 113.704 81.1786 112.264 79.9626 111.272C78.7466 110.248 76.9706 109.736 74.6346 109.736H68.2986V121.4H74.6346ZM100.65 110.792C104.65 110.792 107.722 111.752 109.866 113.672C112.01 115.56 113.082 118.424 113.082 122.264V137H106.074V133.784C104.666 136.184 102.042 137.384 98.2018 137.384C96.2178 137.384 94.4898 137.048 93.0178 136.376C91.5778 135.704 90.4738 134.776 89.7058 133.592C88.9378 132.408 88.5538 131.064 88.5538 129.56C88.5538 127.16 89.4498 125.272 91.2418 123.896C93.0658 122.52 95.8658 121.832 99.6418 121.832H105.594C105.594 120.2 105.098 118.952 104.106 118.088C103.114 117.192 101.626 116.744 99.6418 116.744C98.2658 116.744 96.9058 116.968 95.5618 117.416C94.2498 117.832 93.1298 118.408 92.2018 119.144L89.5138 113.912C90.9218 112.92 92.6018 112.152 94.5538 111.608C96.5378 111.064 98.5698 110.792 100.65 110.792ZM100.074 132.344C101.354 132.344 102.49 132.056 103.482 131.48C104.474 130.872 105.178 129.992 105.594 128.84V126.2H100.458C97.3858 126.2 95.8498 127.208 95.8498 129.224C95.8498 130.184 96.2178 130.952 96.9538 131.528C97.7218 132.072 98.7618 132.344 100.074 132.344ZM132.744 123.56C134.28 124.04 135.464 124.776 136.296 125.768C137.16 126.76 137.592 127.944 137.592 129.32C137.592 130.952 137.032 132.392 135.912 133.64C134.792 134.856 133.256 135.8 131.304 136.472C129.352 137.144 127.144 137.48 124.68 137.48C122.664 137.48 120.68 137.272 118.728 136.856C116.776 136.44 114.968 135.816 113.304 134.984L115.32 129.752C118.04 131.064 121.048 131.72 124.344 131.72C126.104 131.72 127.48 131.464 128.472 130.952C129.496 130.408 130.008 129.656 130.008 128.696C130.008 127.864 129.656 127.24 128.952 126.824C128.248 126.376 127.224 126.152 125.88 126.152H120.6V121.496H125.208C126.52 121.496 127.528 121.288 128.232 120.872C128.936 120.456 129.288 119.848 129.288 119.048C129.288 118.216 128.84 117.576 127.944 117.128C127.08 116.68 125.832 116.456 124.2 116.456C121.704 116.456 118.984 117.048 116.04 118.232L114.216 113.048C117.8 111.48 121.288 110.696 124.68 110.696C127.016 110.696 129.096 110.984 130.92 111.56C132.776 112.136 134.232 112.984 135.288 114.104C136.344 115.192 136.872 116.472 136.872 117.944C136.872 119.16 136.504 120.264 135.768 121.256C135.032 122.216 134.024 122.984 132.744 123.56ZM159.407 123.512C162.447 124.536 163.967 126.584 163.967 129.656C163.967 131.992 163.087 133.8 161.327 135.08C159.567 136.36 156.943 137 153.455 137H139.679V111.176H152.879C156.111 111.176 158.639 111.768 160.463 112.952C162.287 114.104 163.199 115.736 163.199 117.848C163.199 119.128 162.863 120.264 162.191 121.256C161.551 122.216 160.623 122.968 159.407 123.512ZM146.543 121.784H152.207C154.831 121.784 156.143 120.856 156.143 119C156.143 117.176 154.831 116.264 152.207 116.264H146.543V121.784ZM152.831 131.912C155.583 131.912 156.959 130.968 156.959 129.08C156.959 128.088 156.639 127.368 155.999 126.92C155.359 126.44 154.351 126.2 152.975 126.2H146.543V131.912H152.831ZM166.178 111.176H173.618V126.536L186.194 111.176H193.058V137H185.618V121.64L173.09 137H166.178V111.176ZM216.625 123.512C219.665 124.536 221.185 126.584 221.185 129.656C221.185 131.992 220.305 133.8 218.545 135.08C216.785 136.36 214.161 137 210.673 137H196.897V111.176H210.097C213.329 111.176 215.857 111.768 217.681 112.952C219.505 114.104 220.417 115.736 220.417 117.848C220.417 119.128 220.081 120.264 219.409 121.256C218.769 122.216 217.841 122.968 216.625 123.512ZM203.761 121.784H209.425C212.049 121.784 213.361 120.856 213.361 119C213.361 117.176 212.049 116.264 209.425 116.264H203.761V121.784ZM210.049 131.912C212.801 131.912 214.177 130.968 214.177 129.08C214.177 128.088 213.857 127.368 213.217 126.92C212.577 126.44 211.569 126.2 210.193 126.2H203.761V131.912H210.049ZM233.428 110.792C237.428 110.792 240.5 111.752 242.644 113.672C244.788 115.56 245.86 118.424 245.86 122.264V137H238.852V133.784C237.444 136.184 234.82 137.384 230.98 137.384C228.996 137.384 227.268 137.048 225.796 136.376C224.356 135.704 223.252 134.776 222.484 133.592C221.716 132.408 221.332 131.064 221.332 129.56C221.332 127.16 222.228 125.272 224.02 123.896C225.844 122.52 228.644 121.832 232.42 121.832H238.372C238.372 120.2 237.876 118.952 236.884 118.088C235.892 117.192 234.404 116.744 232.42 116.744C231.044 116.744 229.684 116.968 228.34 117.416C227.028 117.832 225.908 118.408 224.98 119.144L222.292 113.912C223.7 112.92 225.38 112.152 227.332 111.608C229.316 111.064 231.348 110.792 233.428 110.792ZM232.852 132.344C234.132 132.344 235.268 132.056 236.26 131.48C237.252 130.872 237.956 129.992 238.372 128.84V126.2H233.236C230.164 126.2 228.628 127.208 228.628 129.224C228.628 130.184 228.996 130.952 229.732 131.528C230.5 132.072 231.54 132.344 232.852 132.344ZM249.005 111.176H256.445V126.536L269.021 111.176H275.885V137H268.445V121.64L255.917 137H249.005V111.176ZM261.965 108.392C256.333 108.392 253.501 105.912 253.469 100.952H258.365C258.397 102.072 258.701 102.952 259.277 103.592C259.885 104.2 260.765 104.504 261.917 104.504C263.069 104.504 263.949 104.2 264.557 103.592C265.197 102.952 265.517 102.072 265.517 100.952H270.509C270.477 105.912 267.629 108.392 261.965 108.392ZM292.011 137.384C289.259 137.384 286.779 136.824 284.571 135.704C282.395 134.552 280.683 132.968 279.435 130.952C278.219 128.936 277.611 126.648 277.611 124.088C277.611 121.528 278.219 119.24 279.435 117.224C280.683 115.208 282.395 113.64 284.571 112.52C286.779 111.368 289.259 110.792 292.011 110.792C294.731 110.792 297.099 111.368 299.115 112.52C301.163 113.64 302.651 115.256 303.579 117.368L297.771 120.488C296.427 118.12 294.491 116.936 291.963 116.936C290.011 116.936 288.395 117.576 287.115 118.856C285.835 120.136 285.195 121.88 285.195 124.088C285.195 126.296 285.835 128.04 287.115 129.32C288.395 130.6 290.011 131.24 291.963 131.24C294.523 131.24 296.459 130.056 297.771 127.688L303.579 130.856C302.651 132.904 301.163 134.504 299.115 135.656C297.099 136.808 294.731 137.384 292.011 137.384ZM327.057 111.176V137H320.385V129.608H314.865L309.969 137H302.001L307.905 128.552C306.113 127.848 304.737 126.84 303.777 125.528C302.849 124.184 302.385 122.568 302.385 120.68C302.385 117.64 303.473 115.304 305.649 113.672C307.857 112.008 310.881 111.176 314.721 111.176H327.057ZM314.865 117.272C313.265 117.272 312.049 117.56 311.217 118.136C310.417 118.712 310.017 119.64 310.017 120.92C310.017 122.2 310.401 123.144 311.169 123.752C311.969 124.328 313.169 124.616 314.769 124.616H320.385V117.272H314.865Z" fill="white"/>
</g>
<g style="mix-blend-mode:screen" opacity="0.12">
<path d="M337.632 111.176H345.072V121.256H356.304V111.176H363.792V137H356.304V127.352H345.072V137H337.632V111.176ZM377.632 110.792C381.632 110.792 384.704 111.752 386.848 113.672C388.992 115.56 390.064 118.424 390.064 122.264V137H383.056V133.784C381.648 136.184 379.024 137.384 375.184 137.384C373.2 137.384 371.472 137.048 370 136.376C368.56 135.704 367.456 134.776 366.688 133.592C365.92 132.408 365.536 131.064 365.536 129.56C365.536 127.16 366.432 125.272 368.224 123.896C370.048 122.52 372.848 121.832 376.624 121.832H382.576C382.576 120.2 382.08 118.952 381.088 118.088C380.096 117.192 378.608 116.744 376.624 116.744C375.248 116.744 373.888 116.968 372.544 117.416C371.232 117.832 370.112 118.408 369.184 119.144L366.496 113.912C367.904 112.92 369.584 112.152 371.536 111.608C373.52 111.064 375.552 110.792 377.632 110.792ZM377.056 132.344C378.336 132.344 379.472 132.056 380.464 131.48C381.456 130.872 382.16 129.992 382.576 128.84V126.2H377.44C374.368 126.2 372.832 127.208 372.832 129.224C372.832 130.184 373.2 130.952 373.936 131.528C374.704 132.072 375.744 132.344 377.056 132.344Z" fill="white"/>
</g>
<g style="mix-blend-mode:screen" opacity="0.12">
<path d="M19.105 7.4C22.081 7.4 24.657 7.896 26.833 8.888C29.041 9.88 30.737 11.288 31.921 13.112C33.105 14.936 33.697 17.096 33.697 19.592C33.697 22.056 33.105 24.216 31.921 26.072C30.737 27.896 29.041 29.304 26.833 30.296C24.657 31.256 22.081 31.736 19.105 31.736H12.337V41H4.561V7.4H19.105ZM18.673 25.4C21.009 25.4 22.785 24.904 24.001 23.912C25.217 22.888 25.825 21.448 25.825 19.592C25.825 17.704 25.217 16.264 24.001 15.272C22.785 14.248 21.009 13.736 18.673 13.736H12.337V25.4H18.673ZM59.9478 28.184C59.9478 28.28 59.8998 28.952 59.8038 30.2H40.2678C40.6198 31.8 41.4518 33.064 42.7638 33.992C44.0758 34.92 45.7078 35.384 47.6598 35.384C49.0038 35.384 50.1878 35.192 51.2118 34.808C52.2678 34.392 53.2438 33.752 54.1398 32.888L58.1238 37.208C55.6918 39.992 52.1398 41.384 47.4678 41.384C44.5558 41.384 41.9798 40.824 39.7398 39.704C37.4998 38.552 35.7718 36.968 34.5558 34.952C33.3398 32.936 32.7318 30.648 32.7318 28.088C32.7318 25.56 33.3238 23.288 34.5078 21.272C35.7238 19.224 37.3718 17.64 39.4518 16.52C41.5638 15.368 43.9158 14.792 46.5078 14.792C49.0358 14.792 51.3238 15.336 53.3718 16.424C55.4198 17.512 57.0198 19.08 58.1718 21.128C59.3558 23.144 59.9478 25.496 59.9478 28.184ZM46.5558 20.456C44.8598 20.456 43.4358 20.936 42.2838 21.896C41.1318 22.856 40.4278 24.168 40.1718 25.832H52.8918C52.6358 24.2 51.9318 22.904 50.7798 21.944C49.6278 20.952 48.2198 20.456 46.5558 20.456ZM71.6564 14.792C75.6564 14.792 78.7284 15.752 80.8724 17.672C83.0164 19.56 84.0884 22.424 84.0884 26.264V41H77.0804V37.784C75.6724 40.184 73.0484 41.384 69.2084 41.384C67.2244 41.384 65.4964 41.048 64.0244 40.376C62.5844 39.704 61.4804 38.776 60.7124 37.592C59.9444 36.408 59.5604 35.064 59.5604 33.56C59.5604 31.16 60.4564 29.272 62.2484 27.896C64.0724 26.52 66.8724 25.832 70.6484 25.832H76.6004C76.6004 24.2 76.1044 22.952 75.1124 22.088C74.1204 21.192 72.6324 20.744 70.6484 20.744C69.2724 20.744 67.9124 20.968 66.5684 21.416C65.2564 21.832 64.1364 22.408 63.2084 23.144L60.5204 17.912C61.9284 16.92 63.6084 16.152 65.5604 15.608C67.5444 15.064 69.5764 14.792 71.6564 14.792ZM71.0804 36.344C72.3604 36.344 73.4964 36.056 74.4884 35.48C75.4804 34.872 76.1844 33.992 76.6004 32.84V30.2H71.4644C68.3924 30.2 66.8564 31.208 66.8564 33.224C66.8564 34.184 67.2244 34.952 67.9604 35.528C68.7284 36.072 69.7684 36.344 71.0804 36.344ZM112.001 15.176V41H104.513V21.32H96.3531L96.1131 25.88C95.9851 29.272 95.6651 32.088 95.1531 34.328C94.6411 36.568 93.8091 38.328 92.6571 39.608C91.5051 40.888 89.9051 41.528 87.8571 41.528C86.7691 41.528 85.4731 41.336 83.9691 40.952L84.3531 34.808C84.8651 34.872 85.2331 34.904 85.4571 34.904C86.5771 34.904 87.4091 34.504 87.9531 33.704C88.5291 32.872 88.9131 31.832 89.1051 30.584C89.2971 29.304 89.4411 27.624 89.5371 25.544L89.9211 15.176H112.001ZM115.842 15.176H123.282V30.536L135.858 15.176H142.722V41H135.282V25.64L122.754 41H115.842V15.176ZM163.078 27.56C164.614 28.04 165.798 28.776 166.63 29.768C167.494 30.76 167.926 31.944 167.926 33.32C167.926 34.952 167.366 36.392 166.246 37.64C165.126 38.856 163.59 39.8 161.638 40.472C159.686 41.144 157.478 41.48 155.014 41.48C152.998 41.48 151.014 41.272 149.062 40.856C147.11 40.44 145.302 39.816 143.638 38.984L145.654 33.752C148.374 35.064 151.382 35.72 154.678 35.72C156.438 35.72 157.814 35.464 158.806 34.952C159.83 34.408 160.342 33.656 160.342 32.696C160.342 31.864 159.99 31.24 159.286 30.824C158.582 30.376 157.558 30.152 156.214 30.152H150.934V25.496H155.542C156.854 25.496 157.862 25.288 158.566 24.872C159.27 24.456 159.622 23.848 159.622 23.048C159.622 22.216 159.174 21.576 158.278 21.128C157.414 20.68 156.166 20.456 154.534 20.456C152.038 20.456 149.318 21.048 146.374 22.232L144.55 17.048C148.134 15.48 151.622 14.696 155.014 14.696C157.35 14.696 159.43 14.984 161.254 15.56C163.11 16.136 164.566 16.984 165.622 18.104C166.678 19.192 167.206 20.472 167.206 21.944C167.206 23.16 166.838 24.264 166.102 25.256C165.366 26.216 164.358 26.984 163.078 27.56ZM195.885 15.176L184.221 42.584C183.037 45.56 181.565 47.656 179.805 48.872C178.077 50.088 175.981 50.696 173.517 50.696C172.173 50.696 170.845 50.488 169.533 50.072C168.221 49.656 167.149 49.08 166.317 48.344L169.053 43.016C169.629 43.528 170.285 43.928 171.021 44.216C171.789 44.504 172.541 44.648 173.277 44.648C174.301 44.648 175.133 44.392 175.773 43.88C176.413 43.4 176.989 42.584 177.501 41.432L177.597 41.192L166.413 15.176H174.141L181.389 32.696L188.685 15.176H195.885ZM196.137 15.176H203.577V30.536L216.153 15.176H223.017V41H215.577V25.64L203.049 41H196.137V15.176ZM209.097 12.392C203.465 12.392 200.633 9.912 200.601 4.952H205.497C205.529 6.072 205.833 6.952 206.409 7.592C207.017 8.2 207.897 8.504 209.049 8.504C210.201 8.504 211.081 8.2 211.689 7.592C212.329 6.952 212.649 6.072 212.649 4.952H217.641C217.609 9.912 214.761 12.392 209.097 12.392Z" fill="white"/>
</g>
<g style="mix-blend-mode:screen" opacity="0.12">
<path d="M132.13 84V68.544L124.402 81.504H121.234L113.698 68.496V84H106.93V58.176H114.754L123.01 73.104L131.794 58.176H138.802L138.898 84H132.13ZM142.71 58.176H150.15V73.536L162.726 58.176H169.59V84H162.15V68.64L149.622 84H142.71V58.176ZM185.716 84.384C182.964 84.384 180.484 83.824 178.276 82.704C176.1 81.552 174.388 79.968 173.14 77.952C171.924 75.936 171.316 73.648 171.316 71.088C171.316 68.528 171.924 66.24 173.14 64.224C174.388 62.208 176.1 60.64 178.276 59.52C180.484 58.368 182.964 57.792 185.716 57.792C188.436 57.792 190.804 58.368 192.82 59.52C194.868 60.64 196.356 62.256 197.284 64.368L191.476 67.488C190.132 65.12 188.196 63.936 185.668 63.936C183.716 63.936 182.1 64.576 180.82 65.856C179.54 67.136 178.9 68.88 178.9 71.088C178.9 73.296 179.54 75.04 180.82 76.32C182.1 77.6 183.716 78.24 185.668 78.24C188.228 78.24 190.164 77.056 191.476 74.688L197.284 77.856C196.356 79.904 194.868 81.504 192.82 82.656C190.804 83.808 188.436 84.384 185.716 84.384ZM210.435 84.384C207.683 84.384 205.203 83.824 202.995 82.704C200.819 81.552 199.107 79.968 197.859 77.952C196.643 75.936 196.035 73.648 196.035 71.088C196.035 68.528 196.643 66.24 197.859 64.224C199.107 62.208 200.819 60.64 202.995 59.52C205.203 58.368 207.683 57.792 210.435 57.792C213.155 57.792 215.523 58.368 217.539 59.52C219.587 60.64 221.075 62.256 222.003 64.368L216.195 67.488C214.851 65.12 212.915 63.936 210.387 63.936C208.435 63.936 206.819 64.576 205.539 65.856C204.259 67.136 203.619 68.88 203.619 71.088C203.619 73.296 204.259 75.04 205.539 76.32C206.819 77.6 208.435 78.24 210.387 78.24C212.947 78.24 214.883 77.056 216.195 74.688L222.003 77.856C221.075 79.904 219.587 81.504 217.539 82.656C215.523 83.808 213.155 84.384 210.435 84.384ZM223.193 58.176H230.633V73.536L243.209 58.176H250.073V84H242.633V68.64L230.105 84H223.193V58.176ZM278.343 57.792C280.967 57.792 283.319 58.368 285.399 59.52C287.479 60.64 289.111 62.208 290.295 64.224C291.479 66.24 292.071 68.528 292.071 71.088C292.071 73.648 291.479 75.936 290.295 77.952C289.111 79.968 287.479 81.552 285.399 82.704C283.319 83.824 280.967 84.384 278.343 84.384C276.071 84.384 273.991 83.968 272.103 83.136C270.215 82.272 268.647 81.072 267.399 79.536C266.151 77.968 265.319 76.176 264.903 74.16H261.351V84H253.911V58.176H261.351V67.68H264.951C265.687 64.672 267.255 62.272 269.655 60.48C272.055 58.688 274.951 57.792 278.343 57.792ZM278.343 78.24C280.167 78.24 281.671 77.6 282.855 76.32C284.071 75.008 284.679 73.264 284.679 71.088C284.679 68.88 284.071 67.136 282.855 65.856C281.671 64.576 280.167 63.936 278.343 63.936C276.487 63.936 274.951 64.576 273.735 65.856C272.551 67.136 271.959 68.88 271.959 71.088C271.959 73.264 272.551 75.008 273.735 76.32C274.951 77.6 276.487 78.24 278.343 78.24Z" fill="white"/>
</g>
<g style="mix-blend-mode:screen" opacity="0.12">
<path d="M252.912 43.384C250.16 43.384 247.68 42.824 245.472 41.704C243.296 40.552 241.584 38.968 240.336 36.952C239.12 34.936 238.512 32.648 238.512 30.088C238.512 27.528 239.12 25.24 240.336 23.224C241.584 21.208 243.296 19.64 245.472 18.52C247.68 17.368 250.16 16.792 252.912 16.792C255.632 16.792 258 17.368 260.016 18.52C262.064 19.64 263.552 21.256 264.48 23.368L258.672 26.488C257.328 24.12 255.392 22.936 252.864 22.936C250.912 22.936 249.296 23.576 248.016 24.856C246.736 26.136 246.096 27.88 246.096 30.088C246.096 32.296 246.736 34.04 248.016 35.32C249.296 36.6 250.912 37.24 252.864 37.24C255.424 37.24 257.36 36.056 258.672 33.688L264.48 36.856C263.552 38.904 262.064 40.504 260.016 41.656C258 42.808 255.632 43.384 252.912 43.384ZM285.399 29.512C288.439 30.536 289.959 32.584 289.959 35.656C289.959 37.992 289.079 39.8 287.319 41.08C285.559 42.36 282.935 43 279.447 43H265.671V17.176H278.871C282.103 17.176 284.631 17.768 286.455 18.952C288.279 20.104 289.191 21.736 289.191 23.848C289.191 25.128 288.855 26.264 288.183 27.256C287.543 28.216 286.615 28.968 285.399 29.512ZM272.535 27.784H278.199C280.823 27.784 282.135 26.856 282.135 25C282.135 23.176 280.823 22.264 278.199 22.264H272.535V27.784ZM278.823 37.912C281.575 37.912 282.951 36.968 282.951 35.08C282.951 34.088 282.631 33.368 281.991 32.92C281.351 32.44 280.343 32.2 278.967 32.2H272.535V37.912H278.823ZM304.266 43.384C301.546 43.384 299.098 42.824 296.922 41.704C294.778 40.552 293.098 38.968 291.882 36.952C290.666 34.936 290.058 32.648 290.058 30.088C290.058 27.528 290.666 25.24 291.882 23.224C293.098 21.208 294.778 19.64 296.922 18.52C299.098 17.368 301.546 16.792 304.266 16.792C306.986 16.792 309.418 17.368 311.562 18.52C313.706 19.64 315.386 21.208 316.602 23.224C317.818 25.24 318.426 27.528 318.426 30.088C318.426 32.648 317.818 34.936 316.602 36.952C315.386 38.968 313.706 40.552 311.562 41.704C309.418 42.824 306.986 43.384 304.266 43.384ZM304.266 37.24C306.186 37.24 307.754 36.6 308.97 35.32C310.218 34.008 310.842 32.264 310.842 30.088C310.842 27.912 310.218 26.184 308.97 24.904C307.754 23.592 306.186 22.936 304.266 22.936C302.346 22.936 300.762 23.592 299.514 24.904C298.266 26.184 297.642 27.912 297.642 30.088C297.642 32.264 298.266 34.008 299.514 35.32C300.762 36.6 302.346 37.24 304.266 37.24ZM344.648 16.792C347.272 16.792 349.624 17.368 351.704 18.52C353.784 19.64 355.416 21.208 356.6 23.224C357.784 25.24 358.376 27.528 358.376 30.088C358.376 32.648 357.784 34.936 356.6 36.952C355.416 38.968 353.784 40.552 351.704 41.704C349.624 42.824 347.272 43.384 344.648 43.384C342.376 43.384 340.296 42.968 338.408 42.136C336.52 41.272 334.952 40.072 333.704 38.536C332.456 36.968 331.624 35.176 331.208 33.16H327.656V43H320.216V17.176H327.656V26.68H331.256C331.992 23.672 333.56 21.272 335.96 19.48C338.36 17.688 341.256 16.792 344.648 16.792ZM344.648 37.24C346.472 37.24 347.976 36.6 349.16 35.32C350.376 34.008 350.984 32.264 350.984 30.088C350.984 27.88 350.376 26.136 349.16 24.856C347.976 23.576 346.472 22.936 344.648 22.936C342.792 22.936 341.256 23.576 340.04 24.856C338.856 26.136 338.264 27.88 338.264 30.088C338.264 32.264 338.856 34.008 340.04 35.32C341.256 36.6 342.792 37.24 344.648 37.24Z" fill="white"/>
</g>
<g style="mix-blend-mode:screen" opacity="0.12">
<path d="M214.913 178V162.544L207.185 175.504H204.017L196.481 162.496V178H189.713V152.176H197.537L205.793 167.104L214.577 152.176H221.585L221.681 178H214.913ZM235.525 151.792C239.525 151.792 242.597 152.752 244.741 154.672C246.885 156.56 247.957 159.424 247.957 163.264V178H240.949V174.784C239.541 177.184 236.917 178.384 233.077 178.384C231.093 178.384 229.365 178.048 227.893 177.376C226.453 176.704 225.349 175.776 224.581 174.592C223.813 173.408 223.429 172.064 223.429 170.56C223.429 168.16 224.325 166.272 226.117 164.896C227.941 163.52 230.741 162.832 234.517 162.832H240.469C240.469 161.2 239.973 159.952 238.981 159.088C237.989 158.192 236.501 157.744 234.517 157.744C233.141 157.744 231.781 157.968 230.437 158.416C229.125 158.832 228.005 159.408 227.077 160.144L224.389 154.912C225.797 153.92 227.477 153.152 229.429 152.608C231.413 152.064 233.445 151.792 235.525 151.792ZM234.949 173.344C236.229 173.344 237.365 173.056 238.357 172.48C239.349 171.872 240.053 170.992 240.469 169.84V167.2H235.333C232.261 167.2 230.725 168.208 230.725 170.224C230.725 171.184 231.093 171.952 231.829 172.528C232.597 173.072 233.637 173.344 234.949 173.344ZM262.478 168.208H258.59V178H251.102V152.176H258.59V162.208H262.622L269.63 152.176H277.598L268.574 164.56L278.222 178H269.39L262.478 168.208ZM290.03 178.384C287.278 178.384 284.798 177.824 282.59 176.704C280.414 175.552 278.702 173.968 277.454 171.952C276.238 169.936 275.63 167.648 275.63 165.088C275.63 162.528 276.238 160.24 277.454 158.224C278.702 156.208 280.414 154.64 282.59 153.52C284.798 152.368 287.278 151.792 290.03 151.792C292.75 151.792 295.118 152.368 297.134 153.52C299.182 154.64 300.67 156.256 301.598 158.368L295.79 161.488C294.446 159.12 292.51 157.936 289.982 157.936C288.03 157.936 286.414 158.576 285.134 159.856C283.854 161.136 283.214 162.88 283.214 165.088C283.214 167.296 283.854 169.04 285.134 170.32C286.414 171.6 288.03 172.24 289.982 172.24C292.542 172.24 294.478 171.056 295.79 168.688L301.598 171.856C300.67 173.904 299.182 175.504 297.134 176.656C295.118 177.808 292.75 178.384 290.03 178.384ZM302.788 152.176H310.228V167.536L322.804 152.176H329.668V178H322.228V162.64L309.7 178H302.788V152.176ZM358.706 178V162.544L350.978 175.504H347.81L340.274 162.496V178H333.506V152.176H341.33L349.586 167.104L358.37 152.176H365.378L365.474 178H358.706ZM379.319 151.792C383.319 151.792 386.391 152.752 388.535 154.672C390.679 156.56 391.751 159.424 391.751 163.264V178H384.743V174.784C383.335 177.184 380.711 178.384 376.871 178.384C374.887 178.384 373.159 178.048 371.687 177.376C370.247 176.704 369.143 175.776 368.375 174.592C367.607 173.408 367.223 172.064 367.223 170.56C367.223 168.16 368.119 166.272 369.911 164.896C371.735 163.52 374.535 162.832 378.311 162.832H384.263C384.263 161.2 383.767 159.952 382.775 159.088C381.783 158.192 380.295 157.744 378.311 157.744C376.935 157.744 375.575 157.968 374.231 158.416C372.919 158.832 371.799 159.408 370.871 160.144L368.183 154.912C369.591 153.92 371.271 153.152 373.223 152.608C375.207 152.064 377.239 151.792 379.319 151.792ZM378.743 173.344C380.023 173.344 381.159 173.056 382.151 172.48C383.143 171.872 383.847 170.992 384.263 169.84V167.2H379.127C376.055 167.2 374.519 168.208 374.519 170.224C374.519 171.184 374.887 171.952 375.623 172.528C376.391 173.072 377.431 173.344 378.743 173.344ZM419.664 152.176V178H412.176V158.32H404.016L403.776 162.88C403.648 166.272 403.328 169.088 402.816 171.328C402.304 173.568 401.472 175.328 400.32 176.608C399.168 177.888 397.568 178.528 395.52 178.528C394.432 178.528 393.136 178.336 391.632 177.952L392.016 171.808C392.528 171.872 392.896 171.904 393.12 171.904C394.24 171.904 395.072 171.504 395.616 170.704C396.192 169.872 396.576 168.832 396.768 167.584C396.96 166.304 397.104 164.624 397.2 162.544L397.584 152.176H419.664ZM434.88 168.208H430.992V178H423.504V152.176H430.992V162.208H435.024L442.032 152.176H450L440.976 164.56L450.624 178H441.792L434.88 168.208ZM460.504 151.792C464.504 151.792 467.576 152.752 469.72 154.672C471.864 156.56 472.936 159.424 472.936 163.264V178H465.928V174.784C464.52 177.184 461.896 178.384 458.056 178.384C456.072 178.384 454.344 178.048 452.872 177.376C451.432 176.704 450.328 175.776 449.56 174.592C448.792 173.408 448.408 172.064 448.408 170.56C448.408 168.16 449.304 166.272 451.096 164.896C452.92 163.52 455.72 162.832 459.496 162.832H465.448C465.448 161.2 464.952 159.952 463.96 159.088C462.968 158.192 461.48 157.744 459.496 157.744C458.12 157.744 456.76 157.968 455.416 158.416C454.104 158.832 452.984 159.408 452.056 160.144L449.368 154.912C450.776 153.92 452.456 153.152 454.408 152.608C456.392 152.064 458.424 151.792 460.504 151.792ZM459.928 173.344C461.208 173.344 462.344 173.056 463.336 172.48C464.328 171.872 465.032 170.992 465.448 169.84V167.2H460.312C457.24 167.2 455.704 168.208 455.704 170.224C455.704 171.184 456.072 171.952 456.808 172.528C457.576 173.072 458.616 173.344 459.928 173.344ZM492.305 178L486.641 170.08L480.785 178H472.625L482.561 164.992L472.961 152.176H481.361L486.833 159.712L492.449 152.176H500.417L490.817 164.8L500.801 178H492.305Z" fill="white"/>
</g>
</svg>
