<svg width="20" height="20" fill="none" xmlns="http://www.w3.org/2000/svg"><path d="M18.5 2H16v-.5a.5.5 0 0 0-1 0V2H5v-.5a.5.5 0 0 0-1 0V2H1.5C.67 2 0 2.67 0 3.5v14c0 .83.67 1.5 1.5 1.5h17c.83 0 1.5-.67 1.5-1.5v-14c0-.83-.67-1.5-1.5-1.5Zm-17 1H4v1.5a.5.5 0 0 0 1 0V3h10v1.5a.5.5 0 0 0 1 0V3h2.5c.28 0 .5.22.5.5V6H1V3.5c0-.28.22-.5.5-.5Zm17 15h-17a.5.5 0 0 1-.5-.5V7h18v10.5a.5.5 0 0 1-.5.5Z" fill="#fff"/><path d="M7.5 10h-1a.5.5 0 0 1 0-1h1a.5.5 0 0 1 0 1Zm3 0h-1a.5.5 0 0 1 0-1h1a.5.5 0 0 1 0 1Zm3 0h-1a.5.5 0 0 1 0-1h1a.5.5 0 0 1 0 1Z" fill="#fff"/><path d="M16.5 10h-1a.5.5 0 0 1 0-1h1a.5.5 0 0 1 0 1Z" fill="#CFCFCF"/><path d="M4.5 12h-1a.5.5 0 0 1 0-1h1a.5.5 0 0 1 0 1Zm3 0h-1a.5.5 0 0 1 0-1h1a.5.5 0 0 1 0 1Z" fill="#fff"/><path d="M10.5 12h-1a.5.5 0 0 1 0-1h1a.5.5 0 0 1 0 1Z" fill="#CFCFCF"/><path d="M13.5 12h-1a.5.5 0 0 1 0-1h1a.5.5 0 0 1 0 1Zm3 0h-1a.5.5 0 0 1 0-1h1a.5.5 0 0 1 0 1Zm-12 2h-1a.5.5 0 0 1 0-1h1a.5.5 0 0 1 0 1Zm3 0h-1a.5.5 0 0 1 0-1h1a.5.5 0 0 1 0 1Z" fill="#fff"/><path d="M10.5 14h-1a.5.5 0 0 1 0-1h1a.5.5 0 0 1 0 1Z" fill="#CFCFCF"/><path d="M13.5 14h-1a.5.5 0 0 1 0-1h1a.5.5 0 0 1 0 1Zm3 0h-1a.5.5 0 0 1 0-1h1a.5.5 0 0 1 0 1Zm-12 2h-1a.5.5 0 0 1 0-1h1a.5.5 0 0 1 0 1Z" fill="#fff"/><path d="M7.5 16h-1a.5.5 0 0 1 0-1h1a.5.5 0 0 1 0 1Z" fill="#CFCFCF"/><path d="M10.5 16h-1a.5.5 0 0 1 0-1h1a.5.5 0 0 1 0 1Zm3 0h-1a.5.5 0 0 1 0-1h1a.5.5 0 0 1 0 1Zm3 0h-1a.5.5 0 0 1 0-1h1a.5.5 0 0 1 0 1Z" fill="#fff"/></svg>