<svg width="257" height="55" viewBox="0 0 257 55" fill="none" xmlns="http://www.w3.org/2000/svg">
<rect width="256.173" height="54.1757" rx="27.0878" fill="#3DA3E2"/>
<circle cx="229.086" cy="27.0882" r="17.8006" fill="white"/>
<path d="M224.585 37.7026L224.585 37.7026L224.587 37.7045C224.824 37.9649 225.146 38.1083 225.481 38.1083C225.814 38.1083 226.138 37.9683 226.377 37.7026L226.006 37.368L226.377 37.7026L235.268 27.8288C235.728 27.3177 235.728 26.5072 235.268 25.9962L226.377 16.1224C225.89 15.5809 225.074 15.5809 224.586 16.1224C224.126 16.6335 224.126 17.4439 224.586 17.955C224.586 17.955 224.586 17.955 224.586 17.955L232.65 26.9132L224.585 35.8699C224.125 36.381 224.125 37.1915 224.585 37.7026Z" fill="#3DA3E2" stroke="#3DA3E2"/>
<path d="M31.154 18.842L30.934 20.624H26.732V34H24.642V20.624H20.33V18.842H31.154ZM37.2164 34.066C36.7617 35.4153 36.1237 36.4787 35.3024 37.256C34.4957 38.048 33.337 38.5247 31.8264 38.686L31.6064 37.102C32.369 36.97 32.9777 36.7793 33.4324 36.53C33.887 36.2807 34.2464 35.958 34.5104 35.562C34.789 35.1807 35.0457 34.66 35.2804 34H34.5984L30.7044 22.406H32.8604L35.9624 32.526L38.9984 22.406H41.0884L37.2164 34.066ZM48.7265 22.142C50.2078 22.142 51.2932 22.67 51.9825 23.726C52.6718 24.782 53.0165 26.2707 53.0165 28.192C53.0165 30.0107 52.6205 31.4773 51.8285 32.592C51.0365 33.7067 49.9145 34.264 48.4625 34.264C47.1718 34.264 46.1598 33.824 45.4265 32.944V38.444L43.4025 38.686V22.406H45.1405L45.2945 23.968C45.7198 23.3813 46.2332 22.934 46.8345 22.626C47.4358 22.3033 48.0665 22.142 48.7265 22.142ZM47.9785 32.614C49.8852 32.614 50.8385 31.14 50.8385 28.192C50.8385 25.2293 49.9658 23.748 48.2205 23.748C47.6485 23.748 47.1278 23.9167 46.6585 24.254C46.1892 24.5913 45.7785 25.024 45.4265 25.552V31.206C45.7198 31.6607 46.0865 32.0127 46.5265 32.262C46.9665 32.4967 47.4505 32.614 47.9785 32.614ZM61.525 23.154C62.845 23.154 63.8937 23.6307 64.671 24.584C65.463 25.5373 65.859 26.8353 65.859 28.478C65.859 30.3113 65.397 31.734 64.473 32.746C63.549 33.758 62.3097 34.264 60.755 34.264C59.2003 34.264 57.9537 33.714 57.015 32.614C56.091 31.514 55.629 29.8493 55.629 27.62C55.629 25.9333 55.7537 24.5547 56.003 23.484C56.267 22.3987 56.7143 21.5113 57.345 20.822C57.9903 20.118 58.8923 19.568 60.051 19.172C60.9163 18.8787 61.6057 18.6147 62.119 18.38C62.647 18.1453 63.1823 17.8447 63.725 17.478L64.583 18.996C64.0697 19.3187 63.5343 19.6193 62.977 19.898C62.4343 20.162 61.7817 20.4187 61.019 20.668C60.2857 20.9173 59.7063 21.2033 59.281 21.526C58.8557 21.834 58.511 22.2887 58.247 22.89C57.9977 23.4767 57.829 24.2833 57.741 25.31C58.1517 24.6353 58.6797 24.1073 59.325 23.726C59.9703 23.3447 60.7037 23.154 61.525 23.154ZM60.755 32.636C61.6497 32.636 62.361 32.3353 62.889 31.734C63.417 31.118 63.681 30.0547 63.681 28.544C63.681 27.2093 63.461 26.2487 63.021 25.662C62.5957 25.0753 61.9723 24.782 61.151 24.782C60.4763 24.782 59.8457 24.9653 59.259 25.332C58.6723 25.684 58.1883 26.2267 57.807 26.96V28.368C57.807 29.732 58.0637 30.788 58.577 31.536C59.105 32.2693 59.831 32.636 60.755 32.636ZM73.5612 22.142C75.1892 22.142 76.4506 22.6847 77.3452 23.77C78.2546 24.8553 78.7092 26.3293 78.7092 28.192C78.7092 29.3947 78.5039 30.458 78.0932 31.382C77.6826 32.2913 77.0886 33.0027 76.3112 33.516C75.5339 34.0147 74.6099 34.264 73.5392 34.264C71.9112 34.264 70.6426 33.7213 69.7332 32.636C68.8239 31.5507 68.3692 30.0767 68.3692 28.214C68.3692 27.0113 68.5746 25.9553 68.9852 25.046C69.3959 24.122 69.9899 23.4107 70.7672 22.912C71.5446 22.3987 72.4759 22.142 73.5612 22.142ZM73.5612 23.77C71.5519 23.77 70.5472 25.2513 70.5472 28.214C70.5472 31.162 71.5446 32.636 73.5392 32.636C75.5339 32.636 76.5312 31.1547 76.5312 28.192C76.5312 25.244 75.5412 23.77 73.5612 23.77ZM90.7429 22.406L87.2229 27.774L91.1609 34H88.7629L85.5509 28.654H84.0769V34H82.0529V22.406H84.0769V27.07H85.5949L88.5209 22.406H90.7429ZM97.6237 22.142C99.2517 22.142 100.513 22.6847 101.408 23.77C102.317 24.8553 102.772 26.3293 102.772 28.192C102.772 29.3947 102.566 30.458 102.156 31.382C101.745 32.2913 101.151 33.0027 100.374 33.516C99.5964 34.0147 98.6724 34.264 97.6017 34.264C95.9737 34.264 94.7051 33.7213 93.7957 32.636C92.8864 31.5507 92.4317 30.0767 92.4317 28.214C92.4317 27.0113 92.6371 25.9553 93.0477 25.046C93.4584 24.122 94.0524 23.4107 94.8297 22.912C95.6071 22.3987 96.5384 22.142 97.6237 22.142ZM97.6237 23.77C95.6144 23.77 94.6097 25.2513 94.6097 28.214C94.6097 31.162 95.6071 32.636 97.6017 32.636C99.5964 32.636 100.594 31.1547 100.594 28.192C100.594 25.244 99.6037 23.77 97.6237 23.77ZM117.467 34H115.487L114.959 28.522C114.901 27.95 114.864 27.3193 114.849 26.63C114.835 25.926 114.827 25.1707 114.827 24.364L112.187 32.724H110.273L107.809 24.386C107.809 26.322 107.78 27.6933 107.721 28.5L107.303 34H105.345L106.379 22.406H108.997L111.263 30.7L113.749 22.406H116.411L117.467 34ZM128.685 31.294C128.685 31.7633 128.766 32.1153 128.927 32.35C129.088 32.57 129.33 32.7387 129.653 32.856L129.191 34.264C128.59 34.1907 128.106 34.022 127.739 33.758C127.372 33.494 127.101 33.0833 126.925 32.526C126.148 33.6847 124.996 34.264 123.471 34.264C122.327 34.264 121.425 33.9413 120.765 33.296C120.105 32.6507 119.775 31.8073 119.775 30.766C119.775 29.534 120.215 28.588 121.095 27.928C121.99 27.268 123.251 26.938 124.879 26.938H126.661V26.08C126.661 25.2587 126.463 24.672 126.067 24.32C125.671 23.968 125.062 23.792 124.241 23.792C123.39 23.792 122.349 23.9973 121.117 24.408L120.611 22.934C122.048 22.406 123.383 22.142 124.615 22.142C125.979 22.142 126.998 22.4793 127.673 23.154C128.348 23.814 128.685 24.76 128.685 25.992V31.294ZM123.933 32.746C125.092 32.746 126.001 32.1447 126.661 30.942V28.28H125.143C123.002 28.28 121.931 29.072 121.931 30.656C121.931 31.3453 122.1 31.866 122.437 32.218C122.774 32.57 123.273 32.746 123.933 32.746ZM139.684 34V28.896H134.866V34H132.842V22.406H134.866V27.268H139.684V22.406H141.708V34H139.684ZM155.189 32.372V37.3H153.539L153.209 34H145.773L145.443 37.3H143.793V32.372H144.607C144.959 32.1373 145.238 31.8733 145.443 31.58C145.648 31.272 145.832 30.744 145.993 29.996C146.169 29.248 146.308 28.1553 146.411 26.718L146.719 22.406H153.979V32.372H155.189ZM151.955 24.012H148.545L148.369 26.454C148.266 27.818 148.149 28.8667 148.017 29.6C147.885 30.3333 147.694 30.898 147.445 31.294C147.21 31.69 146.866 32.0493 146.411 32.372H151.955V24.012ZM161.495 26.146C163.225 26.146 164.479 26.4833 165.257 27.158C166.034 27.8327 166.423 28.7933 166.423 30.04C166.423 31.3453 165.983 32.3353 165.103 33.01C164.237 33.67 163.159 34 161.869 34H158.151V22.406H160.175V26.146H161.495ZM168.095 22.406H170.119V34H168.095V22.406ZM161.693 32.416C162.514 32.416 163.145 32.2327 163.585 31.866C164.039 31.4993 164.267 30.8907 164.267 30.04C164.267 29.2333 164.054 28.6393 163.629 28.258C163.218 27.8767 162.499 27.686 161.473 27.686H160.175V32.416H161.693Z" fill="white"/>
</svg>
