<svg width="257" height="55" viewBox="0 0 257 55" fill="none" xmlns="http://www.w3.org/2000/svg">
<rect width="256.173" height="54.1757" rx="27.0878" fill="#FFAF38"/>
<path d="M54.7341 18.468C56.0981 18.468 57.2787 18.776 58.2761 19.392C59.2734 20.008 60.0361 20.91 60.5641 22.098C61.1067 23.286 61.3781 24.716 61.3781 26.388C61.3781 28.0453 61.1067 29.468 60.5641 30.656C60.0214 31.844 59.2514 32.7533 58.2541 33.384C57.2567 34.0147 56.0834 34.33 54.7341 34.33C53.3701 34.33 52.1894 34.022 51.1921 33.406C50.1947 32.79 49.4247 31.888 48.8821 30.7C48.3394 29.512 48.0681 28.082 48.0681 26.41C48.0681 24.7673 48.3394 23.352 48.8821 22.164C49.4247 20.9613 50.1947 20.0447 51.1921 19.414C52.2041 18.7833 53.3847 18.468 54.7341 18.468ZM54.7341 20.69C53.5607 20.69 52.6661 21.152 52.0501 22.076C51.4341 22.9853 51.1261 24.43 51.1261 26.41C51.1261 30.2087 52.3287 32.108 54.7341 32.108C55.9074 32.108 56.7947 31.6533 57.3961 30.744C58.0121 29.8347 58.3201 28.3827 58.3201 26.388C58.3201 24.408 58.0121 22.9633 57.3961 22.054C56.7947 21.1447 55.9074 20.69 54.7341 20.69ZM68.713 22.032C69.4757 22.032 70.1577 22.142 70.759 22.362C71.375 22.582 71.9543 22.9267 72.497 23.396L71.243 25.09C70.847 24.7967 70.4657 24.584 70.099 24.452C69.7323 24.32 69.329 24.254 68.889 24.254C67.1437 24.254 66.271 25.5813 66.271 28.236C66.271 29.5853 66.4983 30.5607 66.953 31.162C67.4077 31.7487 68.053 32.042 68.889 32.042C69.2997 32.042 69.6737 31.976 70.011 31.844C70.363 31.712 70.7737 31.4993 71.243 31.206L72.497 32.988C71.397 33.8827 70.143 34.33 68.735 34.33C67.6203 34.33 66.6523 34.088 65.831 33.604C65.0097 33.1053 64.379 32.4013 63.939 31.492C63.499 30.5827 63.279 29.512 63.279 28.28C63.279 27.048 63.499 25.9627 63.939 25.024C64.379 24.0707 65.0097 23.3373 65.831 22.824C66.6523 22.296 67.613 22.032 68.713 22.032ZM83.0909 22.362L82.7389 24.518H79.3289V34H76.5129V24.518H72.9049V22.362H83.0909ZM92.4376 30.92C92.4376 31.3747 92.5036 31.712 92.6356 31.932C92.7823 32.1373 93.0096 32.2987 93.3176 32.416L92.7236 34.286C92.0636 34.2273 91.5209 34.066 91.0956 33.802C90.6849 33.538 90.3696 33.1347 90.1496 32.592C89.7536 33.1787 89.2549 33.6187 88.6536 33.912C88.0669 34.1907 87.4069 34.33 86.6736 34.33C85.5149 34.33 84.5983 34 83.9236 33.34C83.2489 32.68 82.9116 31.8147 82.9116 30.744C82.9116 29.4827 83.3663 28.522 84.2756 27.862C85.1996 27.1873 86.5123 26.85 88.2136 26.85H89.6656V26.19C89.6656 25.442 89.4896 24.9213 89.1376 24.628C88.8003 24.32 88.2503 24.166 87.4876 24.166C86.6369 24.166 85.6103 24.3713 84.4076 24.782L83.7476 22.868C85.1996 22.3107 86.6076 22.032 87.9716 22.032C90.9489 22.032 92.4376 23.3667 92.4376 26.036V30.92ZM87.4216 32.284C88.3749 32.284 89.1229 31.8073 89.6656 30.854V28.5H88.4996C86.6809 28.5 85.7716 29.1747 85.7716 30.524C85.7716 31.0813 85.9109 31.514 86.1896 31.822C86.4683 32.13 86.8789 32.284 87.4216 32.284ZM102.533 27.642C104.528 27.862 105.525 28.7933 105.525 30.436C105.525 31.6387 105.063 32.5333 104.139 33.12C103.23 33.7067 101.998 34 100.443 34H95.8454V22.494C97.4147 22.186 98.83 22.032 100.091 22.032C101.602 22.032 102.79 22.3033 103.655 22.846C104.521 23.3887 104.953 24.1733 104.953 25.2C104.953 25.86 104.748 26.3953 104.337 26.806C103.927 27.2167 103.325 27.4953 102.533 27.642ZM100.069 23.946C99.6734 23.946 99.204 23.9827 98.6614 24.056V27.004H100.333C101.551 27.004 102.159 26.4833 102.159 25.442C102.159 24.4447 101.463 23.946 100.069 23.946ZM100.377 32.042C101.859 32.042 102.599 31.448 102.599 30.26C102.599 29.7173 102.431 29.3213 102.093 29.072C101.756 28.808 101.199 28.676 100.421 28.676H98.6614V32.042H100.377ZM117.858 34H115.152V29.336C115.152 28.4853 115.189 27.686 115.262 26.938C115.335 26.1753 115.416 25.6033 115.504 25.222L111.17 34H108.156V22.362H110.884V27.026C110.884 27.8327 110.84 28.632 110.752 29.424C110.679 30.216 110.598 30.7807 110.51 31.118L114.8 22.362H117.858V34ZM129.798 22.362L129.446 24.518H126.036V34H123.22V24.518H119.612V22.362H129.798ZM135.383 26.036C137.202 26.036 138.529 26.3807 139.365 27.07C140.201 27.7447 140.619 28.7273 140.619 30.018C140.619 31.3233 140.172 32.3133 139.277 32.988C138.383 33.6627 137.239 34 135.845 34H131.423V22.362H134.239V26.036H135.383ZM135.559 32.042C136.982 32.042 137.693 31.3527 137.693 29.974C137.693 29.2847 137.517 28.7787 137.165 28.456C136.813 28.1187 136.212 27.95 135.361 27.95H134.239V32.042H135.559ZM153.084 22.032C154.8 22.032 156.134 22.582 157.088 23.682C158.056 24.7673 158.54 26.2633 158.54 28.17C158.54 29.3873 158.32 30.4653 157.88 31.404C157.44 32.328 156.809 33.0467 155.988 33.56C155.166 34.0733 154.191 34.33 153.062 34.33C151.346 34.33 150.004 33.7873 149.036 32.702C148.068 31.602 147.584 30.0913 147.584 28.17C147.584 26.9527 147.804 25.882 148.244 24.958C148.684 24.034 149.314 23.3153 150.136 22.802C150.972 22.2887 151.954 22.032 153.084 22.032ZM153.084 24.166C151.397 24.166 150.554 25.5007 150.554 28.17C150.554 29.5487 150.759 30.568 151.17 31.228C151.595 31.8733 152.226 32.196 153.062 32.196C153.898 32.196 154.521 31.866 154.932 31.206C155.357 30.546 155.57 29.534 155.57 28.17C155.57 26.806 155.357 25.8013 154.932 25.156C154.521 24.496 153.905 24.166 153.084 24.166ZM169.179 22.362L168.827 24.518H165.417V34H162.601V24.518H158.993V22.362H169.179ZM174.126 22.032C175.373 22.032 176.414 22.318 177.25 22.89C178.101 23.462 178.526 24.2393 178.526 25.222C178.526 25.882 178.321 26.4247 177.91 26.85C177.514 27.2607 176.898 27.5687 176.062 27.774C177.089 27.9353 177.852 28.2433 178.35 28.698C178.864 29.138 179.12 29.776 179.12 30.612C179.12 31.8147 178.636 32.7387 177.668 33.384C176.715 34.0147 175.468 34.33 173.928 34.33C172.124 34.33 170.577 33.8533 169.286 32.9L170.672 31.272C171.186 31.6093 171.684 31.8587 172.168 32.02C172.652 32.1667 173.202 32.24 173.818 32.24C175.388 32.24 176.172 31.6607 176.172 30.502C176.172 29.4607 175.344 28.94 173.686 28.94H171.992L172.168 27.004H173.444C174.134 27.004 174.676 26.8793 175.072 26.63C175.468 26.366 175.666 25.97 175.666 25.442C175.666 24.958 175.49 24.606 175.138 24.386C174.801 24.166 174.346 24.056 173.774 24.056C173.217 24.056 172.726 24.1293 172.3 24.276C171.875 24.4227 171.442 24.6427 171.002 24.936L169.704 23.374C170.32 22.9193 170.988 22.582 171.706 22.362C172.425 22.142 173.232 22.032 174.126 22.032ZM185.523 26.036C187.342 26.036 188.669 26.3807 189.505 27.07C190.341 27.7447 190.759 28.7273 190.759 30.018C190.759 31.3233 190.312 32.3133 189.417 32.988C188.522 33.6627 187.378 34 185.985 34H181.783V22.362H184.599V26.036H185.523ZM192.057 22.362H194.873V34H192.057V22.362ZM185.699 32.042C187.122 32.042 187.833 31.3527 187.833 29.974C187.833 29.2847 187.657 28.7787 187.305 28.456C186.953 28.1187 186.352 27.95 185.501 27.95H184.599V32.042H185.699ZM204.949 27.642C206.944 27.862 207.941 28.7933 207.941 30.436C207.941 31.6387 207.479 32.5333 206.555 33.12C205.646 33.7067 204.414 34 202.859 34H198.261V22.494C199.831 22.186 201.246 22.032 202.507 22.032C204.018 22.032 205.206 22.3033 206.071 22.846C206.937 23.3887 207.369 24.1733 207.369 25.2C207.369 25.86 207.164 26.3953 206.753 26.806C206.343 27.2167 205.741 27.4953 204.949 27.642ZM202.485 23.946C202.089 23.946 201.62 23.9827 201.077 24.056V27.004H202.749C203.967 27.004 204.575 26.4833 204.575 25.442C204.575 24.4447 203.879 23.946 202.485 23.946ZM202.793 32.042C204.275 32.042 205.015 31.448 205.015 30.26C205.015 29.7173 204.847 29.3213 204.509 29.072C204.172 28.808 203.615 28.676 202.837 28.676H201.077V32.042H202.793Z" fill="white"/>
</svg>
