<svg width="126" height="28" viewBox="0 0 126 28" fill="none" xmlns="http://www.w3.org/2000/svg">
<path d="M5.07959 23.3735H6.16455V24.1846H5.07959V26H4.08057V24.1846H0.519531V23.5991L4.02148 18.1797H5.07959V23.3735ZM1.64746 23.3735H4.08057V19.5386L3.9624 19.7534L1.64746 23.3735ZM7.51807 22.0791L7.91553 18.1797H11.9224V19.0981H8.75879L8.52246 21.2305C8.9056 21.0049 9.34066 20.8921 9.82764 20.8921C10.5402 20.8921 11.106 21.1284 11.5249 21.6011C11.9438 22.0701 12.1533 22.7057 12.1533 23.5078C12.1533 24.3135 11.9349 24.9491 11.498 25.4146C11.0648 25.8765 10.4578 26.1074 9.67725 26.1074C8.98617 26.1074 8.4222 25.9159 7.98535 25.5327C7.5485 25.1496 7.29964 24.6196 7.23877 23.9429H8.17871C8.23958 24.3905 8.39893 24.7288 8.65674 24.958C8.91455 25.1836 9.25472 25.2964 9.67725 25.2964C10.1392 25.2964 10.5008 25.1388 10.7622 24.8237C11.0272 24.5086 11.1597 24.0736 11.1597 23.5186C11.1597 22.9958 11.0164 22.5768 10.73 22.2617C10.4471 21.943 10.0693 21.7837 9.59668 21.7837C9.16341 21.7837 8.82324 21.8786 8.57617 22.0684L8.31299 22.2832L7.51807 22.0791ZM17.981 20.2207C17.981 20.611 17.8771 20.9583 17.6694 21.2627C17.4653 21.5671 17.1878 21.8052 16.8369 21.9771C17.2451 22.1525 17.5674 22.4085 17.8037 22.7451C18.0436 23.0817 18.1636 23.4631 18.1636 23.8892C18.1636 24.5659 17.9344 25.1048 17.4761 25.5059C17.0213 25.9069 16.4215 26.1074 15.6768 26.1074C14.9248 26.1074 14.3215 25.9069 13.8667 25.5059C13.4155 25.1012 13.1899 24.5623 13.1899 23.8892C13.1899 23.4666 13.3045 23.0853 13.5337 22.7451C13.7664 22.4049 14.0869 22.1471 14.4951 21.9717C14.1478 21.7998 13.8739 21.5617 13.6733 21.2573C13.4728 20.953 13.3726 20.6074 13.3726 20.2207C13.3726 19.5618 13.5838 19.0391 14.0063 18.6523C14.4289 18.2656 14.9857 18.0723 15.6768 18.0723C16.3643 18.0723 16.9193 18.2656 17.3418 18.6523C17.7679 19.0391 17.981 19.5618 17.981 20.2207ZM17.1699 23.8677C17.1699 23.4308 17.0303 23.0745 16.751 22.7988C16.4753 22.5231 16.1136 22.3853 15.666 22.3853C15.2184 22.3853 14.8586 22.5213 14.5864 22.7935C14.3179 23.0656 14.1836 23.4237 14.1836 23.8677C14.1836 24.3117 14.3143 24.6608 14.5757 24.915C14.8407 25.1693 15.2077 25.2964 15.6768 25.2964C16.1423 25.2964 16.5075 25.1693 16.7725 24.915C17.0374 24.6572 17.1699 24.3081 17.1699 23.8677ZM15.6768 18.8887C15.2865 18.8887 14.9696 19.0104 14.7261 19.2539C14.4862 19.4938 14.3662 19.8215 14.3662 20.2368C14.3662 20.6343 14.4844 20.9565 14.7207 21.2036C14.9606 21.4471 15.2793 21.5688 15.6768 21.5688C16.0742 21.5688 16.3911 21.4471 16.6274 21.2036C16.8674 20.9565 16.9873 20.6343 16.9873 20.2368C16.9873 19.8394 16.8638 19.5153 16.6167 19.2646C16.3696 19.014 16.0563 18.8887 15.6768 18.8887Z" fill="black"/>
<path d="M54.0852 2.3H64.4852V10.1H54.8457L54.0852 10.8605V2.3ZM54.0852 1C53.3702 1 52.7917 1.585 52.7917 2.3L52.7852 14L55.3852 11.4H64.4852C65.2002 11.4 65.7852 10.815 65.7852 10.1V2.3C65.7852 1.585 65.2002 1 64.4852 1H54.0852Z" fill="black"/>
<path d="M56.8335 26H55.8345V19.3774L53.8311 20.1133V19.2109L56.6777 18.1421H56.8335V26ZM64.6484 22.6646C64.6484 23.8283 64.4497 24.693 64.0522 25.2588C63.6548 25.8245 63.0335 26.1074 62.1885 26.1074C61.3542 26.1074 60.7365 25.8317 60.3354 25.2803C59.9344 24.7253 59.7267 23.8981 59.7124 22.7988V21.4722C59.7124 20.3228 59.9111 19.4688 60.3086 18.9102C60.7061 18.3516 61.3291 18.0723 62.1777 18.0723C63.0192 18.0723 63.6387 18.3426 64.0361 18.8833C64.4336 19.4204 64.6377 20.2511 64.6484 21.3755V22.6646ZM63.6548 21.3057C63.6548 20.4642 63.5366 19.8519 63.3003 19.4688C63.064 19.082 62.6898 18.8887 62.1777 18.8887C61.6693 18.8887 61.2987 19.0802 61.0659 19.4634C60.8332 19.8465 60.7132 20.4355 60.7061 21.2305V22.8203C60.7061 23.6654 60.8278 24.2902 61.0713 24.6948C61.3184 25.0959 61.6908 25.2964 62.1885 25.2964C62.679 25.2964 63.0425 25.1066 63.2788 24.7271C63.5187 24.3475 63.644 23.7495 63.6548 22.9331V21.3057Z" fill="black"/>
<path d="M109.301 1C105.713 1 102.808 3.912 102.808 7.5C102.808 11.088 105.713 14 109.301 14C112.896 14 115.808 11.088 115.808 7.5C115.808 3.912 112.896 1 109.301 1ZM109.308 12.7C106.435 12.7 104.108 10.373 104.108 7.5C104.108 4.627 106.435 2.3 109.308 2.3C112.181 2.3 114.508 4.627 114.508 7.5C114.508 10.373 112.181 12.7 109.308 12.7ZM109.633 4.25H108.658V8.15L112.07 10.1975L112.558 9.398L109.633 7.6625V4.25Z" fill="black"/>
<path d="M100.413 23.3735H101.498V24.1846H100.413V26H99.4141V24.1846H95.853V23.5991L99.355 18.1797H100.413V23.3735ZM96.981 23.3735H99.4141V19.5386L99.2959 19.7534L96.981 23.3735ZM102.852 22.0791L103.249 18.1797H107.256V19.0981H104.092L103.856 21.2305C104.239 21.0049 104.674 20.8921 105.161 20.8921C105.874 20.8921 106.439 21.1284 106.858 21.6011C107.277 22.0701 107.487 22.7057 107.487 23.5078C107.487 24.3135 107.268 24.9491 106.832 25.4146C106.398 25.8765 105.791 26.1074 105.011 26.1074C104.32 26.1074 103.756 25.9159 103.319 25.5327C102.882 25.1496 102.633 24.6196 102.572 23.9429H103.512C103.573 24.3905 103.732 24.7288 103.99 24.958C104.248 25.1836 104.588 25.2964 105.011 25.2964C105.473 25.2964 105.834 25.1388 106.096 24.8237C106.361 24.5086 106.493 24.0736 106.493 23.5186C106.493 22.9958 106.35 22.5768 106.063 22.2617C105.781 21.943 105.403 21.7837 104.93 21.7837C104.497 21.7837 104.157 21.8786 103.91 22.0684L103.646 22.2832L102.852 22.0791ZM111.275 24.9233L112.892 21.2451H113.907V26H113.094V22.5415L111.556 26H110.994L109.425 22.4668V26H108.612V21.2451H109.667L111.275 24.9233ZM118.293 21.2451H119.106V26H118.293V22.5327L116.1 26H115.287V21.2451H116.1V24.7168L118.293 21.2451ZM124.296 26H123.483V23.9697H121.299V26H120.481V21.2451H121.299V23.3062H123.483V21.2451H124.296V26Z" fill="black"/>
<path d="M16.7313 4.55H11.9489L12.669 1.5795L12.6917 1.3715C12.6917 1.105 12.5628 0.858 12.3582 0.6825L11.5548 0L6.56783 4.2835C6.2874 4.5175 6.12066 4.8425 6.12066 5.2V11.7C6.12066 12.415 6.80278 13 7.63647 13H14.4576C15.0867 13 15.6248 12.675 15.8521 12.207L18.141 7.6245C18.2092 7.475 18.2471 7.319 18.2471 7.15V5.85C18.2471 5.135 17.565 4.55 16.7313 4.55ZM16.7313 7.15L14.4576 11.7H7.63647V5.2L10.9258 2.379L10.0845 5.85H16.7313V7.15ZM1.57324 5.2H4.60486V13H1.57324V5.2Z" fill="black"/>
</svg>
