<svg width="21" height="21" fill="none" xmlns="http://www.w3.org/2000/svg"><path d="M5.66 2A10.03 10.03 0 0 0 2 15.66a10.03 10.03 0 0 0 13.66 3.66 10.03 10.03 0 0 0 3.66-13.66A10.03 10.03 0 0 0 5.66 2Zm12.8 4.16c.24.43.5.87.6 1.26l-2.54.78c-.15-.26-.17-.48-.32-.74l-.35-.6 2.1-1.79c.1.4.3.74.5 1.09ZM17.08 4.4l-2.07 1.8a6.26 6.26 0 0 0-5.8-1.63l-.77-2.55a8.87 8.87 0 0 1 8.65 2.4ZM13.3 15.25a5.34 5.34 0 0 1-7.24-1.94A5.34 5.34 0 0 1 8 6.07a5.34 5.34 0 0 1 7.24 1.94 5.34 5.34 0 0 1-1.94 7.24ZM7.51 2.2l.78 2.55c-.26.15-.57.22-.83.37l-.6.35-1.69-1.92c.3-.28.64-.48.99-.68.43-.25.92-.42 1.35-.67ZM4.4 4.23l1.73 2A6.45 6.45 0 0 0 4.5 12l-2.58.92a9.18 9.18 0 0 1 2.48-8.7ZM2.87 15.16c-.25-.43-.42-.92-.62-1.26l2.6-.92c.14.26.2.57.35.83l.35.6-1.95 1.83a6.15 6.15 0 0 1-.73-1.08Zm1.36 1.76 1.95-1.82A6.4 6.4 0 0 0 12 16.8l.92 2.6a9.18 9.18 0 0 1-8.7-2.48Zm9.58 2.2-.87-2.5c.26-.15.57-.22.83-.37l.52-.3 1.82 1.95-.95.55c-.43.25-.92.42-1.35.67Zm3.1-2.03-1.81-1.95a6.35 6.35 0 0 0 1.66-5.92l2.55-.78a8.88 8.88 0 0 1-2.4 8.65Z" fill="#fff"/></svg>