<svg width="139" height="54" fill="none" xmlns="http://www.w3.org/2000/svg"><path fill-rule="evenodd" clip-rule="evenodd" d="M99.53 21.98c-.94 0-1.8.26-2.58.71L87.38 8.13l-10.42 11.8-7.33-11.8-11.12 13.3a13.74 13.74 0 0 0-2.9-9.76l-19.5 17.7a12.68 12.68 0 0 0 14.61 3.26c1.86-.75 3.6-1.91 4.98-3.53l6.55-7.63 7.22 11.55 10.3-11.65 7.51 11.89 7.07-7.19c.01.02.03.02.04.02-.12.45-.18.94-.18 1.44 0 3.06 2.4 5.55 5.32 5.55.43 0 .84-.06 1.23-.16 1.53-.26 2.42-.81 3.74-1.88l9.75-10.72c.04 7.37 5.85 13.38 12.94 13.38 5.24 0 9.76-3.27 11.81-7.97l-3.04-.01c-5.05 6.2-12.84 6.96-17.05-.26l9.65-10.2a6.87 6.87 0 0 0-.46 1.66c0 2.3.59 3.33 2.58 4.58 6.92 2.39 10.56-8.98 2.42-13.24a11.98 11.98 0 0 0-5.91-1.52 13 13 0 0 0-11.98 8.37l-4.81-7.06-15.08.07 10.95 17.15-1.45 1.61a5.43 5.43 0 0 0-5.29-4.9ZM45.61 6.74c-7.12 0-12.96 6.07-12.96 13.48 0 1.66.3 3.27.84 4.76l-5.75 5.12c-.2.2-.38.2-.57 0-3.55-4.35-7.1-8.72-10.65-13.05v-.15l7.27-9.36c.08 1.14 1.82 4.48 5.1 4.66a5.5 5.5 0 0 0 5.17-2.82 6.02 6.02 0 0 0-.63-7C31.69.84 30.67.47 28.38.55c-1.99.22-3.32 1.08-4.78 2.63l-7.47 9.39.02-10.84L.03 9.35 0 39l16.15-7.86v-9.77l10.9 12.42c.18.15.34.15.54 0 2.35-2.13 4.72-4.25 7.07-6.39l.01.02L54.02 9.98c-.02 0-.03-.02-.03-.04l.03-.01c-.13-.11-.25-.2-.38-.27-2.2-1.82-5-2.92-8.03-2.92Zm3.32 14.14c2.4 0 4.38 2.14 4.38 4.74s-1.97 4.74-4.38 4.74c-2.42 0-4.39-2.13-4.39-4.74 0-2.6 1.97-4.74 4.39-4.74Z" fill="#fff"/><path d="m3.6 48.2 2.22-5.02h.78l-3.02 6.55-.2.37a1.82 1.82 0 0 1-1.67 1.01c-.22 0-.39-.02-.5-.06l.05-.53c.08.02.23.03.45.03.45 0 .8-.22 1.07-.68l.14-.24.33-.7L.3 43.18h.75l2.55 5.01Zm12.6-5.02V51h-.67v-3.56c-.73.2-1.44.31-2.11.31-.9 0-1.55-.2-1.97-.57-.42-.39-.64-.98-.65-1.77v-2.23h.67v2.2c0 .62.16 1.09.46 1.38.32.28.81.43 1.49.43.68 0 1.39-.1 2.11-.31v-3.7h.67Zm9.28 4.07h-3.66v3.2h4.2V51h-4.86v-7.82H26v.56h-4.18v2.95h3.66v.56Zm9.6-3.5h-4.06v2.82h1.94c.54 0 1 .1 1.39.27.39.18.68.43.89.77.2.32.31.72.31 1.17 0 .69-.23 1.23-.7 1.63-.45.4-1.1.59-1.91.59h-2.58v-7.82h4.71v.56Zm-4.06 3.39v3.3h1.94c.6 0 1.07-.15 1.41-.44.34-.3.51-.72.51-1.23 0-.5-.16-.9-.49-1.18-.33-.3-.8-.44-1.39-.45h-1.98ZM46.07 51h-.67v-3.75h-4.47V51h-.66v-7.82h.66v3.51h4.47v-3.51h.67V51Zm5.63-4.43h1.94c.53 0 1 .1 1.39.27a1.98 1.98 0 0 1 1.19 1.94c0 .69-.22 1.23-.68 1.63-.47.4-1.1.59-1.92.59h-2.58v-7.82h.66v3.4Zm0 .57v3.3h1.93c.61 0 1.08-.15 1.42-.44.34-.3.51-.72.51-1.23 0-.5-.16-.9-.5-1.18-.32-.3-.78-.44-1.38-.45H51.7ZM58.18 51h-.66v-7.82h.66V51Zm10.14-7.82H69V51h-.67v-6.7L63.87 51h-.66v-7.82h.66v6.69l4.45-6.69Zm-.63-1.92c0 .4-.14.74-.42 1-.28.25-.66.38-1.13.38-.47 0-.84-.13-1.13-.38a1.29 1.29 0 0 1-.42-1h.54c0 .3.1.52.27.68.18.16.42.24.74.24.31 0 .56-.09.73-.25a.87.87 0 0 0 .27-.67h.55ZM85.4 51h-.67v-7.26H80.3V51h-.66v-7.82h5.74V51Zm10.76-3.49a4.5 4.5 0 0 1-.38 1.9c-.25.54-.6.96-1.06 1.26-.47.3-1 .44-1.6.44a2.8 2.8 0 0 1-2.22-.98 3.93 3.93 0 0 1-.84-2.65v-.8c0-.72.13-1.35.38-1.9a2.88 2.88 0 0 1 2.67-1.71 2.85 2.85 0 0 1 2.66 1.66c.24.54.38 1.15.39 1.85v.93Zm-.66-.84c0-.95-.22-1.68-.64-2.22a2.12 2.12 0 0 0-1.75-.8c-.73 0-1.31.27-1.74.8a3.48 3.48 0 0 0-.65 2.25v.81c0 .93.22 1.67.65 2.21.42.54 1 .81 1.75.81a2.1 2.1 0 0 0 1.75-.8c.42-.53.63-1.28.63-2.24v-.82Zm5.95 1.14V51h-.66v-7.82h2.66c.82 0 1.46.2 1.93.62s.7.99.7 1.72-.22 1.3-.67 1.7c-.46.4-1.11.6-1.97.6h-1.99Zm0-.55h2c.65 0 1.14-.16 1.47-.46.34-.3.5-.73.5-1.27s-.16-.97-.5-1.3a2 2 0 0 0-1.42-.49h-2.05v3.52Zm14.4-3.52h-2.68V51h-.66v-7.26h-2.68v-.56h6.02v.56Zm8.03 5.07h-3.56l-.8 2.19h-.7l2.97-7.82h.63l2.95 7.82h-.68l-.81-2.2Zm-3.35-.57h3.14L122.09 44l-1.57 4.25Zm14.8-5.06V51h-.66v-7.26h-3.3l-.19 3.24c-.07 1.15-.18 2-.33 2.52-.15.52-.36.9-.64 1.14a1.7 1.7 0 0 1-1.1.36h-.29v-.56h.22c.37-.02.64-.14.83-.35.19-.22.33-.57.43-1.05.1-.48.18-1.22.24-2.23l.2-3.63h4.59Z" fill="#fff"/></svg>