<?xml version="1.0" encoding="utf-8"?><svg version="1.0" id="Слой_1" xmlns="http://www.w3.org/2000/svg" x="0" y="0" viewBox="0 0 512 448" xml:space="preserve"><style>.st0{fill:#fff}.st1{fill:#e8e8e8}.st2{fill:#bababa}.st5{fill:#415868}.st7{fill:#930a18}.st8{fill:#aa0e16}.st9{fill:#f3af9c}.st10{fill:#d08872}</style><path class="st0" d="m154.7 435.4.6 2.1 4.3 4.4 4.3 2.5-1.8-3-3.2-3.6-.9-2.3-3.3-.1zm111.4-52.2 4.2-2.6 9.3.5 22.7 6.2 14.2 3.4 18.7 2.6 23 7.3s7.7 5.3 8.1 5.4c.4.2 5.7 8.5 5.7 8.5l1.6 13.4s-3.1 8.4-3.4 8.5c-.4.1-4.6 3.9-4.6 3.9l-10.1 3.3-7.3-.2-82.1-60.2zm-88-89.9h-.3c-.9.1-2.7.6-2.7.6l-1.9 1.1-1.4 4.2 13 13.4 35.3 11 32.5 3.9 17.2.4 27.4-6.4 27.8-4.2 8.7-11.2 1.8-9.5-3.9-2.5-4.1.1-149.4-.9z"/><path class="st1" d="M248.9 317.6s3.2-.9 4.6-2.4c1.4-1.5 1.4-1.9 1.4-1.9l-2.9-.4s-1.9 1.7-2.1 1.9c-.2.2-2.2 1.5-2.2 1.5l1.2 1.3zm19.7-5.1s3.8 6.8 3.6 8.2c-.2 1.5 1 .2 1 .2l.5-5.5-1.9-4.5-3.5 1.6.2.3.1-.3zm52.2-1.6s.9-3.6-.9-5.2-5.7.2-5.7.2 3.2 1.5 4.3 2.6c1 .9 2.3 2.4 2.3 2.4zm-96.1 0s-1.8 2.9-2 3.4c-.2.5-1.1 1-1.1 1s3.8-.4 5.1-2c1.3-1.7-.2-2.7-.2-2.7l-1.8.3zm-24.8 3.1s2.4-1.7 3.1-3.4c.8-1.7 1-2.4 1-2.4l4.7.7c-.1.1-6.5 5.1-8.8 5.1z"/><path class="st1" d="M194.4 308.9c5.8 1.2 11.4 1.2 17.7 1.8l8.5.9c1.5.2 3 .4 4.4.5.7.1 1.3.2 1.9.3.7.1 1.1.1 1.3.2.2 0 .4.1.6.1 2.6.2 5.3.1 8 .1 2.8 0 5.5.1 8.2.4 5.6.6 11.2 1.2 16.9 1.2 3 0 4.6-.3 7.5-1.1 2.8-.7 5.6-1.4 8.4-2 6.1-1.3 11.5-1.9 17.9-2.4 5.7-.4 10.6-1.2 16.4-1.4 1.3-.1 2.6-.1 3.9-.3 0 0 1-.2 1.2-.2.7-.1 1.3-.3 1.9-.5.3-.1 1-.5.3-.1.3-.1.5-.3.8-.4.5-.3.9-.5 1.3-.8.1-.1.3-.2.4-.3.1-.1.2-.2.3-.2.5-.4 1-.8 1.4-1.2.9-.8 1.8-1.7 2.7-2.5.4-.4.8-.7 1.1-1.1l.4-.4c.1-.1.3-.4.3-.5 1.1-1.7 2.1-3.4 3.3-5.1h-.1l-4.1.1-149.2-.8h-.3c-.9.1-2.7.6-2.7.6l-1.9 1.1-1.4 4.2 9.6 9.8c4.1-2.3 8.6-.8 13.1 0z"/><path class="st2" d="m223.4 429.4-5.3 3.9c-.4.3-6.9 4-6.9 4l-11.5 5.6-7.9 2.9-11.2 1.8-14.5-2.3-4-4.2-4.3-5.5 12.2-1.8 15.2-1.9 12.3-.1 7.6.3 7.5.1 7.1-2.5 3.4-.4h.3z"/><path d="m362.8 407.4-15-7.2-22.6-5-26.5-5.4-18.9-4.8-11.7-2s-2 1.5-2 1.8c0 .4 1.9 11.1 1.9 11.1s.7 11.3.8 11.6c.1.3.1 9.6.1 9.6s-3.5 6.7-3.8 6.8-2.3 4.4-2.3 4.4l9.1.5 15.5 2.6 17.3 5.8 18.5 5.2 16.5 1.3 14-1.7 9.8-4.2 4.1-4.9s.6-6.3.7-6.6c.1-.3.5-8.2.5-8.2l-2.2-6.3-3.8-4.4z" fill="#e5e5e5"/><path class="st2" d="M266.2 385c0 .7 3.4 13.2 3.8 14.1.4.9 1.5 10.2 11.2 12.7 9.8 2.5 8.7 2.4 14 5.3 5.3 2.9 21.6 3.1 23.3 4.8 1.7 1.7 9.1 5.1 9.1 5.1s10.5 5.3 21.6 5.4c11.1.1 18.6-3.5 18.6-3.5s.5 1.8-.1 2.9c-.6 1.1-5.2 7.3-5.2 7.3l-10.6 3.8-15.2 1.2-13-1.5-22.6-6-14.5-5-20.3-2.9s-3.4-.1-3.4-.4c0-.4 3.3-43.3 3.3-43.3z"/><path d="m172.6 295.7-10.9 3.4-11.7 3.4s-5.4 3.9-5.6 4c-.1.1-4.2 3-4.2 3l-4 2.1-18.4 6.5-14.9 9.3-4.8 4.6-4.8 3.1s-6.1-.8-6.6-1.1c-.5-.2-3.7-1.3-3.7-1.3s-1.4.4-1.5.5c-.1.1-5.7 20.8-5.7 21-.1.2-2.5 12.9-2.5 12.9l.9 10 5.1 10.3 3.4 3.4 13.3 2.8 1.7 1.9 1.2 6.3 4.6 5.1 7.7 2.9 6.9 3.1 14.7 8.9 19.5 9.3 8.3 1.2 12.8-2.2 15.6-1.5 14.1.4h10.5l5.8-2.3 6.4-.6s7.3.6 7.6.6c.4 0 2.8.7 2.8.7l.2 1.5 6.5.1 5.9 1.8 9.2.5 6.6-5.4 4.4-9 .5-7.7-1.5-12.3-2.6-14.3-5 1.7-2.9-1-3.8-2.4-3.4 2.2-3-3.3-6.3-1.2-9.3 2.7-4.1-2-9-4.6 4.9-1.8h14.1l15.8 1.9 11.5.8 8.5-.3-4.5 3.4-2.9 3.2 2-.4 3.5-1.3 4.8.5s8.3 1.9 8.9 1.9 21.3 6.2 21.3 6.2l19 3.1 22.3 4.4 13 5.3s7.4 2.9 9.9 10.2c2.4 7.3 2.9 12.1 2.9 12.1l12.5-5.6 17.5-7.3 12.4-7.2 16.9-11 12.1-11.4 6.6-10.1 1.9-6.7-2.3-13-1.5-8.7-.5-2.5-12-9-9.2-3.8-2.5 1.5-6.5-.5-2.4-3.4-2.3-2.5-7.7-3.7-18-6.4-10-6.8-5.4-4.6-9.3-2.1-23.8-3.2-6.7-1-.5 2.3-2.4 1.8-4 3.8-1.4 4.2-2.6 3.4-2.4.4-1.6-1.4-5.8 1.1-10.7 3.2-10.3.1-3.3 2.2-3 1.5-8.2-1.1-3.5-.3-.7 4.7-2 1.8s-9.2-.5-9.6-.5c-.4-.1-9.3-1.8-9.3-1.8l-5.9-4.2-6.1 2.5-10-.2-6.3-4-2 1.8-6.3-.6-11.8-3-2.7 1.8-8.6-2.6-7.3-2.4-1.7-.5s-1.7-2.5-1.7-2.6l.1-2.6.3-2.1-4.4-.8-2.9-1.5-2.1-2.1-.1-1.5z" fill="#5a6f80"/><path class="st5" d="M136.9 327.5s7.6 2.2 8.5 4.4c.9 2.2-25.9 4.2-25.9 4.2l17.9 1.6s14.5-.5 15-.5 12.6.2 13.4.5c.9.2 12.6 4.1 12.6 4.1l11.1 6.7 6.3 5.4 10.8 10.3s8.6 8.5 9.4 8.8c.9.4 4 1.3 5.2 1.1 1.2-.2 4-1.8 12.6-1.1s24.3 2.2 24.3 2.2l14.1.2-4.8 5-1.2 2.4s5.1-2.8 7.4-2.3c2.3.5 15.5 2.2 18.6 3.9 3.1 1.7 17.2 5.7 36.8.5 19.6-5.2 30.5-33.2 39.7-39.2 9.3-6 14.3-9.5 15.8-9.3 1.4.3-13.9-1.6-9.5-4.1 4.4-2.4 10.9-2.7 13.9-4.4 3-1.6-6.5-3.3-3.5-5.7 3-2.4-9.5 2.4-10.9 2.7-1.4.3-14.7 3.3-20.4 5.2-5.7 1.9-20.7 11.2-24.2 13.3-3.6 2.2-22.6 6-25 3.8-2.4-2.2-3.8-3.3-15 3.3-11.2 6.5-23.9 16.3-32.9 14.4-9-1.9-32-6.5-33.5-8.7-1.5-2.2-4.3-16.8-11.3-22.7-7.1-5.9-15.7-12.1-15.7-12.1s15.3 13.5 14.9 16.3c-.5 2.8-6 2.3-6 2.3s12.9 8.7 11.7 17c-1.2 8.3-34.7-13.8-34.7-13.8l-11.5-5.4-10.2-4-11.5-3.8-12.3-2.5z"/><path class="st5" d="M174.8 298.8c-1 .3-13 3-15.6 3.9-2.6.9-13.2 2.5-13.2 2.5l-10 5.9s11.5 2 14 2.3c2.5.2 15.5.2 18.7.1 3.3-.1 17.8-1.6 20.6-1.2 2.8.4 11.5 4.1 11.5 4.1s4.5-1.5 5.6-1.5c1.1 0 7.6 1.2 11.2 2.3 3.6 1.1 6.9 0 6.9 0s2.6 3.4 8.9 3.8c6.3.4 11-1.8 11-1.8s9.3 2 10.4 2.5c1.1.5 16.6 4.7 18.5 2.9 1.9-1.8 2.3-7.1 2.3-7.1s5.1 2.5 8.2 2.5c3.1 0 7.7-3.1 8.5-3.5.7-.4 8.5-.5 12.7-1.1 4.2-.6 10-4.5 11.2-4.1 1.2.4 4.1 2 5.7 1.8 1.6-.2 2.6-5.4 9.8-5.9 7.1-.5 26.1-3.8 26.8-4.1.7-.4-8.9-2.9-12.8-3.9-3.9-1-12.8-1.3-13.2-1.3-.4 0-6.3 2.8-6.4 4.1-.1 1.3-1.3 5.7-1.7 6-.4.4-2.5 2.8-2.5 2.8l-.6.3-2.1-1.9-4.7.7-8.8 2.6-8.9.7-5.3.4-2.4 2.5-4.7 1.2-6.8-1.3-4.3-.8-.1 3.9-.8 2.8-6.8.1c-.1 0-11.3-1.7-11.3-1.7l-5.5-3-1.4-1.7-6.4 2.4-9.8-.1-7-4.4-1.5 2-3.6.3-8.6-2.4-6.1-1.2-2.6 1-3.1.3-5.8-2.3-8-2.2-1.8-1.3-.9-2.5.5-2.9-1.1-1.3-4.6-1-2.2-1.2zm-68 30.6s-.1.1-.4.3c-2.5 2-15.9 13.6-5 23.8 12 11.2 13.6 21 21.4 27.8 7.8 6.7 33.6 8 37.2 8.9 3.6.9 21.4 4.9 21.4 4.9s18.7 17.1 29 16.1c10.3-.9 21.8-3.6 21.8-3.6s-2 5.4 4-2 5.4-12 5.4-12 5.4 20.3 8.5 15.8c3.1-4.6 5.3-19.6 5.3-19.6s-.4 12 1.1 16.5 5.1 9.4 7.4 8.2c2.4-1.3 4.5 1.1 4.5 1.1l-2 7.3-4.2 5.6-6.7 3.4s-4.1-.8-4.3-.8c-.2 0-9.4-2.6-9.4-2.6l-5.9.1.1-2.4-6 .1-8.2-.2-6.5 2.3-4 1-16.1-.7-13.4.7-20.3 2.6-10.6-1.3s-10.4-4.4-22.4-11.8c-11.9-7.4-19.5-9.7-22.1-10.6-2.6-1-8.3-6.3-8.5-8.9-.2-2.6-1-5.6-1-5.6s-12.5-1.6-14.3-2.8c-1.8-1.3-6.8-8.4-7.9-13.6-1.1-5.2-2-9.8-.2-17.5 1.9-7.6 4.2-15.7 4.2-15.7l3.3-11.7 1.7.9 4.8 1.1 4.5.9 2.9-1.3s7.3-6.5 7.5-6.7c.2-.1 10-6.5 10-6.5l19.2-8.1s-10.5 4.8-16.8 9.3-9 7.3-9 7.3z"/><path d="M219.9 91.5s0 6.5-.5 8.9c-.5 2.5-1.5 8.2-1.9 8.5-.4.4-3.3.4-3.3.4l1.8 3.2s6.3 6.7 8.2 10c1.9 3.3 8 8.6 8 8.6l7.8 6.8 5.8 3.9s2.4 1.1 4.2 1c1.8-.1 12.3-3.2 14.3-4.6 1.9-1.4 10.3-6.3 11.7-7.5 1.4-1.3 7.1-8.5 8.2-10 1.1-1.5 6.5-9.8 6.5-9.8s-4-1.3-5.8-5.4c-.6-1.3-1-13-1-13l.4-9.4s3.9 3 6.1 4.4c2.2 1.4 10.7 6.7 13.5 7.9 2.8 1.3 8.4 4.8 9.4 6.3s2.1 5.2 2.3 7.3l.7 7.3 35.1 2.6s22.1 1.5 28.8 11.8c6.7 10.3 9.6 32.5 9.6 32.5s3.3 13.6 2.7 16c-.5 2.4-1.6 9.3-.9 14 .7 4.6 2.6 8.3 2.4 11.4-.3 3.2-1.4 9.1-.7 11.6.6 2.5 3.1 7.4 3.4 9.2.4 1.7 2.4 9.9 2.5 10.2.2.4.8 1.1.8 1.1s2.8-2.3 7.7 3.6 10.6 7.4 10.6 7.4l10.4 12.9 4.4 9.1s3.3 7.8 3.3 8.3c0 .5 2 6.4 2 6.4l2.9 4.3 1.5 2.4 3.4-.2 2.9 2.1 2.5 2.8.9 4.5s-15.9.4-22.1 13.1c-6.2 12.7-3.7 9.9-3.7 9.9l1.5 4.4s0 1.8-2.2 1.5c-2.2-.4-6.9-.4-6.9-.4l-.9-2.4-4.1-3.4s-5.6-4.3-12.9-5.6c-7.3-1.3-16.5-6.2-16.5-6.2l-11.5-9.7s-5-4.6-6.4-6.3c-1.5-1.7-2.3-4.4-5.1-5.8-2.8-1.5-6.5-4.6-7.3-6.6-.8-2-5.4-16.1-5.4-16.1l-6.3-17.7-4.8-8.3-3.3-8.1-2.3-8.3s-2.2 5.3-2.6 7.8c-.5 2.5-1.1 9.4-1.1 9.4s-3.4 7.1-3.4 7.3-3.9 7-4.1 7.6c-.2.7-.9 6.3-.5 7.3s1.4 3.4 2 4.2c.6.8 3.4 4.9 4.6 9.2 1.2 4.3 1.9 9.6 1.9 9.6s-.4 4.9-.3 5.6c.1.8-3.2 5.9-3.2 5.9s-7.7 5-9.4 5.7c-1.7.7-6.9 2.1-14.3 2.3-7.4.2-17.6.5-23.8 1.5-6.2 1.1-17.4 3.4-20.4 3.8-3 .4-10.5-.2-20.9-2.2-10.3-2-22.9-1.8-22.9-1.8s-18-.8-21.2-2.4c-3.2-1.6-11.5-6.9-13-8.8-1.5-1.9-3.5-6.2-3.5-6.2v-3.6l3.3-6.2 6-6.6 2.8-8s.3-7.3-3.3-12.4c-3.6-5.2-8.3-11.2-8.3-11.2s-2.4 8.7-2.4 9.2c-.1.5-8.7 19.9-8.7 19.9l-7 13.3-6.3 7.9-5.9 9.2-3.1 4.9s-1.6 2-2 2.2c-.4.2-5.7 3.6-7.6 4-1.9.4-14.3 5.1-14.3 5.1l-9.2 4.7-5.2 3.3-3.3 2.7-3.8 4-3.6 2.3-5.9.1-5.4-1.6.4-1.6.9-3.9-1-4.6-3.4-6.3-5-4s-3.6-3.5-3.8-3.6c-.2-.1-6.8-2-6.8-2s1.3-3.4 1.4-3.7c.1-.2 4.2-4.1 4.5-4.2.3-.1 2.9-.3 2.9-.3l1.2-2 5.6-15.5 1.8-14s3.9-10.7 3.9-10.9c.1-.2 6.2-7.4 6.2-7.4l13.4-5.3 8.1-3 .9-1.4-3.3-5.8 5.9-4.4L128 174s2.4-14.5 2.4-14.9c.1-.4 1.5-14 1.6-14.6.2-.6 3.2-7.8 3.2-7.8l5.3-5.8 7.4-4.1 13.1-4.4 22.5-6.7 6.6-3s.2-9.3.3-9.6c.1-.3 6.2-6.7 6.2-6.7l9.5-5.1 11.8-5.4 2.2-1.3.1 3.7-.3 3.2z" fill="#d12212"/><path class="st7" d="M286.3 92.9h.1c.7.3 4 1.9 4.1 2 .1.1 2.1 3.4 2.3 3.6.2.2.3 2.5.3 2.6 0 .1-1.5 5.7-1.5 5.9 0 .2-1 3-1 3l-1.7-.2s-1.8-.1-1.9-.4c-.2-.3-2.3-3.7-2.4-3.9-.1-.2-1.2-4.8-1.2-4.8s-.1-6.8 0-7.2c.1-.4 1.3-1.3 1.6-1.3.4.1 1.3.7 1.3.7zm-68.8-.3h-.1c-.7.3-4 1.9-4.1 2-.1.1-2.7 2.8-2.8 3-.2.2-.6 3-.6 3.1s2.3 5.8 2.3 6.1c0 .2 1.2 1.5 1.2 1.5l1.4 1.3s1.8-.1 1.9-.4c.2-.3 2.3-3.7 2.4-3.9.1-.2.9-4.9.9-4.9s.3-6.7.3-7.1c-.1-.4-1.3-1.3-1.6-1.3-.3 0-1.2.6-1.2.6z"/><path class="st0" d="M287.4 110.2s-5.4 5.1-6.2 5.6c-.8.5-11.9 6.5-12.2 6.7-.3.1-13.8 3.5-14.1 3.5-.2 0-13.4-.9-13.4-.9l-18.1-8.3s-7.1-7.7-7.4-7.7c-.4 0-2 .4-2 .4l10 13.5 15.2 14 9.1 6.2 10.7-2.9 15.3-8.1 7.9-7.7s6.7-10.3 6.8-10.4c.1-.2 1.4-4.2 1.4-4.2l-3 .3z"/><path class="st7" d="M138.9 143.1c-1.4 4-2.9 20.6-4.4 25.8-1.5 5.3-1.9 13.2-5.4 25.1-3.4 11.9-4.8 20-5.9 23.3-1.1 3.4-1.3-8.6-1.3-8.9 0-.3 3.4-20.2 3.4-20.2l4.4-26.6s.9-14.5 1-14.8c.1-.3 7.3-14.1 7.3-14.1l10.9-6.6s21.1-6.5 21.5-6.5c.4 0 12.6-3.9 12.6-3.9 2.7-1.7 8.6-4.7 14.5-1.8 3.9 1.9 17.2 11.7 18.6 14.6 1 1.9-22.3-3.6-30.1-3.5-13.3.2-29.9 3.9-34.5 5.7-6.5 2.8-11.3 8.4-12.6 12.4z"/><path class="st8" d="M122.7 204.8s-3.6 12.5-3.6 13.8c0 1.3-.9 7.4-1.3 8.2-.4.7-2.7 4.4-2.7 4.4l-3.4 1.5.9 3.6 3.2 5c.2.3 4.2 3.4 4.2 3.4s9.7-1.6 13.1.3c3.4 1.9 11.2 7.7 11.2 8 0 .3 1.5 2 1.1 1.8-.4-.2-10.7-7.9-17.4-5.7-6.7 2.2-10 2.4-10.4 2-.5-.4-2.8-5.8-4.8-6-2-.2-13.2 1.8-15.8 4.4-2.5 2.6-13.4 15.3-13.6 21-.2 5.6-.5 12-1.6 16s-6.3 12.3-6.3 12.3l-2.9-.2-5.8 8.7-2-.9 1.4-3.5 5.7-4.4 2.3-.1 3.2-8.6 3.2-11.2 1.5-11.7 2.6-7.2 3-5.3 6.3-6 11.4-4.4 6.3-1.9 2.3-1.9.5-.9-.5-.8.4-1.1s-.1-2 1.9-3 3.1-2.1 3.7-4c.6-1.9 1.6-12.6 1.6-12.6l1.1-13z"/><path class="st7" d="M283.8 88.8c.3 0 4.7 1.5 6.5 3 1.8 1.5 5.6 3.4 5.7 5.6.1 2.2 1 5.1.5 8.2-.5 3.1-1.3 7.1-3.1 9.3-1.8 2.3-9.2 10.8-10.3 12.4-1.2 1.6-18.2 10.2-18.2 10.2l14.1-9.9 6.1-8.1 5-8.9 2.2-6.5s1.7-3.1.8-5.8c-.9-2.8-5.2-5.1-5.2-5.1l-4.1-.5v-3.9z"/><path class="st8" d="M291.5 201.6c-.7 0-14 4.4-15.1 4.4-1.1 0-14.9 2.2-14.9 2.2l-11.6 2.2s10.8 1 8.5 3.5-6.9 4.5-6.9 4.5 13.3-4.6 14.1-5.1c.9-.5 7.7-4.1 7.7-4.1l18.2-7.6zm1.9 29.3s-19.2 12.1-16 12.7c3.2.6 5.1.4 4.1 1.2-1 .9-23.3 10.6-23.3 10.6l1.2-2.2 34-22.3z"/><path class="st7" d="M219.6 91.8c5.7-8-7.3 0-10.3 1.5-3 1.5-13.6 6.3-14.9 8.5-1.4 2.2-4.8 6.3-4.8 7.8s-1.3 3.6 5.1 3.6c1.3 0 5.9 2.6 6.4 3.3.5.7 3.7 2.9 5.1 4.5 1.3 1.6 13.2 9.1 14 9.6.7.5 11.2 7 11.2 7s-8-10.7-12.9-16.6c-4.9-5.9-6.7-10.2-8.3-17.1-1.4-6 1.1-7.8 1.1-7.8l8.3-4.3z"/><path class="st8" d="M332.1 223.8s2.2-8.2 3.4-17.8c1.2-9.6 1.3-20.3 1.2-21.9-.1-1.6-1.2-3.8-.2-2.4s.5 13.1 2 11.4c1.5-1.7 3.5-10.8 3.5-10.8l1.7-6.5s-2.3-6.4-2.3-6.9c0-.4-2.6-9.9-2.4-11.6.3-1.6.9 8.9 2.8 8.4l4.4-1.1-1.7 6.9-1.2 8.2-1.9 9.9s-1.1 7.6 1.1 6.3c2.2-1.3 6-9.4 6-9.4l-.7 6.6s-2.2 7.7-3.6 10.3c-1.4 2.6-2.2 4.9 2.2 6.8 4.4 1.9-.3 8.9-.3 8.9s1.9 19.2 5.6 22.7c3.7 3.4 14.5 4.7 15.2 4.9.7.2 20.2 7.9 21.1 18.2.9 10.3.2 13.6 6 21.4 5.8 7.8 8.7 15.1 12.9 15.2 4.2.2 11.8 3.1 11.8 3.1l2-2.2s7.1-.9 8.7 3.3c1.6 4.2 2.2 4.7 2.2 4.7l-3.3 4.9-1.8 6.2 2 5.7-2.4 1.5-4.2.2-2.7-1.3-1.5-1.5-1.9-1.8-3.1-2.8-8-3.4-14.8-4.3-6.4-4-8.9-8.1-5.8-3.8-5.5-7.2-8.1-6.4-3-7.3-3.5-10.8-4-13.1-4.8-9.1-5.4-11.3-1.3-5.1-1.1-3.8z"/><path class="st8" d="M390.8 232.5s-1.9 1.4-6.1 2.2c-4.2.8-7.7 1.8-9.5 5-1.8 3.2-2.5 4.7-2.5 4.7l9-4.2 5-2.4 4.1-5.3zm-151.7 76.1c-2.3-1-16.5-8.3-21.5-10-5.1-1.7-7.7-7-10.2-14.3-2.4-7.3.7-11.8 3.3-22.7 2.5-10.9-12.3-26-18.7-39.3-6.4-13.3-18.8-20-21.4-23.3-2.6-3.3-1.7-21-1.7-21s-1.6 3-4 6.6c-2.5 3.6-3.4-20.6-3.4-20.6-5.8 4.5-.9 20.9-1.5 26.3-.5 5.4-4.2-2.7-4.5-1.1-.4 1.6.5 11.7 2.7 23.4 2.4 12.5 1.1 18 1.6 26.8.5 8.9-8.5 11.6-4.5 17.1 1.4 1.9 1 4-.1 6 .3 2.2.4 4.4.3 6.7-.1 6.9-2.1 13.2-5.2 19.3-2.9 5.6-9.5 10-16.1 14.4-6.7 4.4-48.4 20-49.2 21-.4.5-1.1 9-1.1 9s4.6 3 9.5 1.7c5.3-1.4 9.5-7.6 16.5-11.8 10.5-6.3 23.1-10.7 22.5-10.2 4.6-1.7 8.3-3 8.7-3.1 1.1-.2 6.8-10 6.8-10l8.7-13.1s7.9-11.8 7.9-12.5c0-.6 10.5-27 10.5-27l2-5.7 5.3 7 5.1 8.2 1.1 5.7-.1 5.6-3.8 7-4.8 5.4-3.3 6.2.9 6.2 5.4 6 10.2 6.3s13.1 1.9 16.8 2c3.8.1 21.4 1.6 21.4 1.6s10.2 1.2 7.9.2z"/><path class="st9" d="m258.7 37.6-4.9 1.5-4.8.4-8.7-4.9-6.7-3.7-3.8-.9-2.1 2.1s-.2 4.4-.2 4.7c0 .3-.5 5.4-.5 5.4l-1.1 4-1.9 4.3-1.2 4-.7 2.4s-.9.9-1.2.7c-.3-.2-3.9-3.7-3.9-3.7l-2.8-.1-1.4 1.9.1 7.3 2.8 9.6 2.3 3 1.6 2 .5 3 .1 5.4-.1 9.6-1 7.3s-1.6 6.5-1.6 6.8c0 .3-.1 1.9.2 2.2.3.3 10.2 7 10.2 7l14.8 6.3 8.8 1s9.3-1.4 9.6-1.4 13.7-5 13.7-5l10.5-7.1 1.5-2.4-2.4-6.3s-1.1-9.9-1.1-10.2.9-12.2.9-12.6c0-.4-.6-4-.6-4l2.4-1 3-5 1.9-5.3.9-6.3-.2-4.2-.6-2.4-2.5-.1-2.1 1.4-2 1.7-1.6-1.7-2-3.9-2.2-6.7s-.6-5.5-.6-5.7c0-.1-1.5-6.1-1.5-6.1l-1.1-1.4-2.1-.4-2.5 1s-4 2.8-4 3c0 .1-6.2 3.5-6.2 3.5h-1.9z"/><path class="st9" d="m258.5 37.4-4.9 1.5-4.8.4-8.7-4.9-6.7-3.7-3.8-.9-2.1 2.1s-.2 4.4-.2 4.7c0 .3-.5 5.4-.5 5.4l-1.1 4-1.9 4.3-1.2 4-.7 2.4s-.9.9-1.2.7c-.3-.2-3.9-3.7-3.9-3.7l-2.8-.1-1.4 1.9.1 7.3 2.8 9.6 2.3 3 1.6 2 .5 3 .1 5.4-.1 9.6-1 7.3s-1.6 6.5-1.6 6.8c0 .3-.1 1.9.2 2.2.3.3 10.2 7 10.2 7l14.8 6.3 8.8 1s9.3-1.4 9.6-1.4c.4 0 13.7-5 13.7-5l10.5-7.1 1.5-2.4-2.4-6.3s-1.1-9.9-1.1-10.2.9-12.2.9-12.6c0-.4-.6-4-.6-4l2.4-1 3-5 1.9-5.3.9-6.3-.2-4.2-.9-2.1-2.5-.1-2.1 1.4-2 1.7-1.6-1.7-2-3.9-2.2-6.7s-.6-5.5-.6-5.7c0-.1-1.5-6.1-1.5-6.1l-1.1-1.4-2.1-.4-2.5 1s-4 2.8-4 3c0 .1-6.2 3.5-6.2 3.5l-1.6-.3zM73.2 310.7l-7.6-4-4.8-2.5-5.7-2.6-6.7-7-6.7-3.9-4-3.1-5.6-4.7-4.1 1.3-1.8 1.3-1 2.2 2.9 6.3-1.4 4.4-3.6 6.5-3.6 3.6.6-5.4-.1-4.7-.8-6.9-2.1-.9-4.5-.9s-.9 1.3-.9 1.6c0 .3-5 10.7-5 10.7l-3.5 6.3.7 3 4.9 10.2 3.2 9.1.6 2.2s7 1.3 7.2 1.4c.2.1 4 1.1 4 1.1l.3.9 5.3-1.9h4.3l1.4 1.3s.3 1.9.3 2 1.1 1.6 1.1 1.6l6.2.2 3.5.8s5.2 2.3 5.3 2.4c0 .1 1.8 1.4 1.8 1.4l2.7 2 4.4-.1 4-2.1 6.4-5.3 7.3-5.2 4.7-1.5 1.6-2.6s-.6-5.7-.6-5.8-2.1-4.6-2.1-4.6-2.8-3.3-2.9-3.4c-.1-.1-3.4-2.7-3.5-2.8-.2-.2-2.1-1.9-2.1-1.9zm365-4.2 7.6-4 4.8-2.5 5.7-2.6 6.7-7 6.7-3.9 4-3.1 5.8-5.3 3.8 1.9 1.8 1.3 1 2.2-2.9 6.3 1.4 4.4 3.6 6.5 3.6 3.6-.6-5.4.1-4.7.7-7.5 2.2-.3 4.5-.9s.9 1.3.9 1.6c0 .3 5 10.7 5 10.7l3.5 6.3-.7 3-4.9 10.2-3.2 9.1-.6 2.2s-7 1.3-7.2 1.4c-.2.1-4 1.1-4 1.1l-.3.9-5.3-1.9h-4.3l-1.4 1.3s-.3 1.9-.3 2-1.1 1.6-1.1 1.6l-6.2.2-3.5.8s-5.2 2.3-5.3 2.4c0 .1-1.8 1.4-1.8 1.4l-2.6 2.2-4.4-.1-4-2.1-6.4-5.3-7.3-5.2-4.7-1.5-1.6-2.6.6-5.8c0-.1 2.1-4.6 2.1-4.6s2.8-3.3 2.9-3.4c.1-.1 3.4-2.7 3.5-2.8.2-.4 2.1-2.1 2.1-2.1z"/><path class="st10" d="M504.2 310.1c-.1-2.4-4.2-3.1-5.5-5.2-1.2-2-2.2-4-3-6.2-.8-2.2-1.4-4.5-2.2-6.7-.7-1.8-1.2-3.5-.9-5.4l-.7.1-.7 7.5-.1 4.7.6 5c.1.2.2.4.2.7.3 3.5-3.5 3.4-5.9 3-3-.6-5.2-2.4-6.5-5.1-1.4-2.8-2.2-6-2.6-9.1-.3-1.8-.5-4.1.4-5.7.2-.3.4-.6.7-.9-1.2.7-2 1.8-2.5 3.3-.4 1.2-1.9 1.4-2.6.3-1.1-1.6-1.4-3.3-1.7-5.2l-1.5 1.2-6.7 3.9-6.7 7-5.7 2.6-4.8 2.5-7.6 4-2 1.8c-.1.1-3.4 2.6-3.5 2.8-.1.1-2.9 3.4-2.9 3.4s-2.1 4.5-2.1 4.6c0 .1-.6 5.8-.6 5.8l1.6 2.6 4.7 1.5 7.3 5.2 6.4 5.3 4 2.1 4.4.1 2.6-2.2s1.8-1.3 1.8-1.4c0-.1 5.3-2.4 5.3-2.4l3.5-.8 6.2-.2s1.1-1.5 1.1-1.6c0-.1.3-2 .3-2l1.4-1.3h4.3l5.3 1.9.3-.9s3.8-1 4-1.1c.2-.1 7.2-1.4 7.2-1.4l.6-2.2 1.8-5.3c-.5-2.8 3.1-7.3 3-10.6zm-56.5 12.3c-.5 1.7-1.3 3.6-3.3 3.6-1.7 0-3.1-1.3-4.3-2.3-1.5-1.3-3.4-2.1-4.8-3.5-.9-.8-.3-2 .6-2.4 1.7-.7 3.5-.2 5.2-.6 1.8-.4 3.4-1.2 4.3-2.8.3-.6.9-.8 1.5-.7.8-.1 1.6.4 1.6 1.4.1 2.4-.1 4.9-.8 7.3zm12.3-6.9c-.1 1.1-1.1 1.8-2.2 1.3-2.1-1.1-4.7 0-6.9.2-.8.1-1.5-.7-1.5-1.5 0-2.1-.7-4-1.2-6.1-.4-1.7-.1-3.4-.2-5.1-.1-1.3.1-2.6 1.3-3.4 1.3-.8 3.2-.5 4.7-.4.7-.2 1.7.2 1.8 1 .4 2.6 0 5.6 1.5 7.9 1.2 1.8 3 3.8 2.7 6.1zm14.2-6.8c-2.3 0-4.7-.3-6.7-1.4-1.4-.7-2.4-1.9-3.4-3-1.3-1.5-4.9-5.5-2.4-7.4 1-.8 2.2-.1 2.5.7h.1c1.9 1.9 4.3 3.1 6.4 4.7.9.7 1.8 1.6 2.7 2.3.8.6 1.6 1 2.2 1.9.5 1-.3 2.2-1.4 2.2zM271.3 55.6c-1.8.4-3.6.8-5.5 1.1-2 .3-3.9.5-5.8.4-1 .7-1.5-.3-2.8-.1.3.5.4 5.7 2.6 6.2s4-2.8 6.6-3h.3c.7-.7 1.5-1.3 2.2-2 .9-.8 1.6-1.8 2.4-2.6zm18.3 3.7c-.8.4-1.6.9-2.4 1.4-.8 1.3-1.2 2.8-1.8 4.2-.2.4-.5.6-.9.7v1.6c.2-.4.5-.8.8-1.1.3-.3.9.6 1.2.3 0 0 .7 2.5.7 2.4.2-.4.3-.8.5-1.3.6-1.4 1.6-3.3 1.8-4.2.1-.7.1-3.5.1-4zm-5.1 44.5s-.5-4.7-.8-7.7l-.6.9c-1 1.5-2 2.9-2.8 4.5-.5.8-.9 1.7-1.3 2.5-.1.1-.2.6-.3.7-.1.3-.3.7-.4 1-1.8 4.6-3.2 9.4-5.1 13.9-.1.3-.1.5-.2.7 1.1-.4 1.8-.7 1.8-.7l10.5-7.1 1.5-2.4-2.3-6.3zm-29.1 14.6c-3.2 0-6.5-.8-9.4-2.3-2.6-1.5-5.4-2.8-7.9-4.4-2.3-1.4-3-4.2-1.7-6.6.3-.6.8-1.1 1.3-1.5-.4-.5-.7-1-.9-1.6-.7-2.4-1.3-4.8-1.9-7.2-.6-2.5-1.2-4.8-.8-7.3-.3-.4-.6-.9-.8-1.3-1-.4-2-.8-2.9-1.3-2-1.1-3.6-2.8-4.2-5-.7-2.6.1-4.9 1.1-7.3.9-2.4 1.8-4.8 3-7 1.1-2.1 2.7-4.1 5.1-4.6 1.9-.4 3.5.1 5.2.8.3.1.5.2.8.3h.1c2.5.2 4.4 2.2 4.5 4.7.7 1.1 1.7 7.7 1.5 8.8 0 .1-1.8.8-2.3 1.4-.5.6-.9 1.3-.9 1.7 0 .2 1.2 6.6 3.1 7.7.1.1 3 .1 3.2.3l.1.1h.1c.1 0 .2 0 .3.1h.1c.5 0 1 .1 1.5.1.2-.1.4-.2.5-.3-.7-.5-.7-1.8-1.6-1.9-2-.3-2.4-2.3-2.5-3.8-.2-1.8 1.4-4.1 1.1-5.8-.5-3.8-.7-7.6-1.3-11.4-.3-1.7-.7-3.3-.6-5 .1-1 .3-1.9.6-2.9-.7.4-1.5.7-2.4.9-3.9.7-8.5.2-12-1.9-2.1-1.3-3.6-3.1-4.5-5.5-.8-2.2-.6-4.5-.3-6.8l.9-7.5c.2-1.5.4-2.9.7-4.4 0-.2.1-.4.1-.5l-1.4-.3-2.1 2.1s-.2 4.4-.2 4.7-.5 5.4-.5 5.4l-1.1 4-1.9 4.3-1.2 4-.7 2.4s-.9.9-1.2.7c-.3-.2-3.9-3.7-3.9-3.7l-1.9-.1c-.3 1.1-.5 2.2-.7 3.4-.4 2.3-.5 4.4-.3 7.1.1 1.1.1 2.2.2 3.2l1.5 5 2.3 3 1.6 2 .5 3 .1 5.4-.1 9.6-1 7.3s-1.6 6.5-1.6 6.8c0 .3-.1 1.9.2 2.2.3.3 10.2 7 10.2 7L243 125l8.8 1s8.3-1.2 9.5-1.3c-.1-1.1.1-2.1.6-3 1-1.7 1.7-3.1 2.3-4.6.1-.3.1-.5.2-.8-3 1.4-6.1 2.1-9 2.1zM83.5 322.6c-.3.3-.5.6-.8.9-1.7 1.8-3.9 3.3-5.9 4.7-2.2 1.5-4.6 2.6-6.8 4.2-2.1 1.5-4.2 2.6-6.9 2.7-1.4 0-2.9-1.3-2.8-2.8.2-2.6.1-5.2.2-7.8-.2-.8-.3-1.6-.4-2.4 0-.3-.1-.7-.1-1-.4.5-.9.9-1.6 1.3-2.2 1-6.1 1.1-7.8-1-.8-1 .2-.9.9-1.7-.2-.3.3-.7.5-1.1 1.4-2.2 1.9-4.4 2-6.9.1-2 1-5 2.6-6.4 1.2-1.1 2.7-1.3 4.1-.9 0-.1.1-.1.1-.2l-.1-.1-5.7-2.6-2-2.1c-.5.2-1 .4-1.5.5-.2.1-.5.2-.7.2l-.1.1-.1.1-.6.6c-.2.1-.3.3-.5.4.8 0 1.6.3 2.2 1 1.3 1.5.9 3.9.4 5.6-.6 2-1.4 4.2-2.3 6.1-.7 1.4-1.8 2.8-3.4 3.3-1.6.5-3.5.1-5-.7-2-1.1-3.4-3.1-5.5-4-1.3-.5-.7-2.7.6-2.1 0-.4.1-.7.5-1 1.9-1.4 3.8-2.6 5.7-4-.2.1-.4.1-.7.2a4.87 4.87 0 0 1-5.6-2.6c-.6.8-1.2 1.6-1.7 2.5-.9 1.3-1.7 2.8-3.1 3.6-1.6.9-3.6.7-5.3.8-1.3.1-2.6.7-4 .6-1.7-.2-2.2-1.4-2.1-2.8l-.6.6.6-5.4-.1-4.7-.3-2.7c-1.3 4.9-1.9 10.1-6.3 13.4-2.4 1.8-6 3-9.3 2.9l4.6 9.6 3.2 9.1.6 2.2s7 1.3 7.2 1.4c.2.1 4 1.1 4 1.1l.3.9 5.3-1.9h4.3l1.4 1.3s.3 1.9.3 2 1.1 1.6 1.1 1.6l6.2.2 3.5.8s5.2 2.3 5.3 2.4c0 .1 1.8 1.4 1.8 1.4l2.6 2.2 4.4-.1 4-2.1 6.4-5.3 7.3-5.2 4.7-1.5 1.6-2.6s-.6-5.7-.6-5.8c.1-.3-.1-.6-.2-1z"/><path class="st10" d="M64 328.4c-.2-.2-.3-.5-.5-.8l.3.9c.1 0 .2-.1.2-.1z"/><path d="m282.4 60.8-.6.9-1.8 4.6s-2.9 6.8-3.1 7.1c-.2.3-3.8 6.7-4 7-.2.3-.8.5-1.7 1.2-.9.7-4.9 2.8-5.2 2.8s-8.7 1.5-8.7 1.5l-7.3.2s-4.2.5-4.4.5c-.3 0-7.6-2.4-7.6-2.4l-6.2-4.2-3.7-4.5-2.9-6.5-2.4-6.9-1.5 4.9-.4 6.2L222 78v4.6l1.5 4.4 4.7 15.2 4.2 9.4 1.7 1.8 5 2.3 6.7 2.6 2.6.5s.4-.7.7-.7c.4 0 1.9.8 1.9.8l2.8.7 4.2-2.6.6 2.1 4-2.1 6.3-2.9 5.8-7.5 5-14.7 2.4-12.2 1.1-5.3.2-9.5-1-4.1zm-13.6 35.1c-.7.8-1.7.7-2.7.4-.2.2-.6.4-1 .3-2.6-.1-5.1.2-7.7.1-1.4-.1-2.7-.3-4.1-.2-1.1.1-2.2.2-3.4.2-1 0-1.9-.1-2.8-.5-1-.4-1.8.1-2.8.2-1.2.2-2.4.3-3.6.3-1.3.1-2.6.3-3.9.4-1 .1-1.6-1-1.4-1.9.3-1.8 1.2-3.8 3-4.5 1.9-.7 4.1-1.1 6.1-1.1 1.5-.5 3.1-.1 4.6-.1 1.7-.1 3.6-1.1 5.3-.7.7.2 1.2.7 2 .8.9.1 1.9 0 2.8 0 2.7 0 7.6-.3 9.3 2.5.7 1.1 1.1 2.8.3 3.8zm-44-46.6c-.3.6-1.8 4.1-1.8 4.2 0 .1-.4 2.6-.5 2.7l-1 .9s-2.4-2.1-2.4-2.3c0-.2-.3-3.6-.3-3.6l-1-5.7-.5-3.4-.2-3.6-.9-7.2v-5s2.3-5.1 2.4-5.4l2.4-3.8 6-6.3 9.7-5.3 12.4-1.2h9l9.5.2 4.4 2.1 3.4 2.2 6.7 6.8c.1.1 3.4 4.3 3.4 4.3l2 4.2.1 25s-1.7 4.8-1.7 5c0 .2-.8 2.1-.8 2.1l-1.9-1.6-.9-2.2-.7-2.3-1.8-3.5-1.2-6.9-.8-4.7-2-4.6-.3-.7-2.7-.1s-2.3 1.3-2.4 1.4c-.1.1-7.8 4.7-7.8 4.7l-8.4 3.4-5.3-.1-4.9-1.9-4.2-3s-8.2-4.2-8.3-4.2c-.1-.1-2.1-.2-2.1-.2l-1.8 2.5-.5 5.7-.7 5.4-1.6 6z" fill="#230a04"/><path d="m270 424.1 10.4-12.2 5.3 15.8 14.5-10.9 4 15.2 10.3-11.2-2.2 12.7-5.6-15.8-12.3 12.6-5.3-16.9-12.1 12.3-4.3-16.2" fill="none" stroke="#230a04" stroke-linecap="round" stroke-linejoin="round" stroke-miterlimit="10"/><path class="st1" d="m239.1 136.8.6.4c.2-.1.5-.2.7-.3 1.5-.6 3.1-1.1 4.6-1.7.1 0 .1-.1.2-.1 5.2-2.8 9.5-6.1 13.6-10.2-2.1.5-3.8.9-3.9.9-.2 0-13.4-.9-13.4-.9l-18.1-8.3s-7.1-7.7-7.4-7.7c-.4 0-2 .4-2 .4l10 13.5 15.1 14zm48.3-26.6s-5.4 5.1-6.2 5.6c-.4.3-4.1 2.3-7.3 4-.1 1.2-.5 2.4-1.4 3.3.7-.8 0 .2-.2.5-.1.1-.1.3-.1.4-.4 1.1-.8 2.2-1.3 3.2-.9 1.7-1.9 3.3-3 4.9-1.5 2.1-3.2 4.1-5 6.1l11.4-6 7.9-7.7s6.7-10.3 6.8-10.4c.1-.2 1.4-4.2 1.4-4.2l-3 .3z"/><path class="st7" d="M312.7 114.9c-.3 0-1.7-3.4-6.5-1.8-4.8 1.6-13.2 7.2-14.1 8.4-.9 1.3-5 6.7-5 6.7s10.2-8.9 14.5-10.9c4.3-2 8.3-2 8.8-1.9.5.1 2.3-.5 2.3-.5z"/><path d="M227.1 54.2c1.9-.8 2.6-.6 5.4 1.3 1.4.9 3.2 2 4.1 2.4l1.6.7-1.7.2c-2.2.3-5.3 1.3-5.5 1.9-.1.3.2.3 1.5.2 4.2-.5 5.6-.2 8.9 2 1.1.7 2 1.3 2.2 1.3.2 0 .4.1.4.3 0 .5 1.1.3 1.3-.2.4-1.1.1-1.5-2.5-3.3-1.5-1-2.7-1.8-2.6-1.9.1 0 .9.1 1.9.2 2.8.4 4.5-.1 5.8-1.7.9-1 2-4.4 1.8-5.6-.2-1.5-.7-1-1.2.9-.3 1.1-.7 2.5-1.1 3.2l-.7 1.3-.2-1.3c-.1-.7-.4-1.4-.6-1.6-.3-.2-1.8-.4-3.3-.5-4.1-.3-5.2-.6-8.1-2.3-2.8-1.7-3.6-1.9-5.5-1-1.5.7-3.8 2.8-3.8 3.5.1.5.6.5 1.9 0zm31.1 3.8c.4.2 2 .4 3.6.5 3.9.3 5.7-.2 9.7-2.6 3.4-2 4.2-2.2 6.1-1.4 1.3.6 1.8.5 1.8-.1 0-.9-3.8-4.1-4.8-4-.3 0-1 .2-1.6.4-.6.2-2.2.9-3.4 1.4a24.7 24.7 0 0 1-8.5 2.1c-2.2.2-2.3.2-2.7 1.1l-.5.9-.5-1.3c-.3-.7-.5-1.6-.5-1.8 0-.3-.2-.7-.5-1-.4-.5-.4-.4-.3 1.2.2 2 1.2 4.1 2.1 4.6zm-10.3 1.3c-.2.5-.1 1.3.6 7.4.3 2 .6 5.4.9 7.4.4 3.6.7 4.6 1.3 4 .3-.3-.7-10.7-1.6-16.2-.5-2.7-.8-3.5-1.2-2.6zm6.3 19.6c.5-1.1 2.8-17 2.8-18.9 0-1.1-.3-1.5-.7-.9-.1.1-.3 1.6-.6 3.2-.8 5.8-1.6 10.4-2.2 13.3-.3 1.6-.5 3.1-.4 3.4.1.5.9.5 1.1-.1zm19.5-18.7c-.5-.1-2.2-.5-3.6-.8-2.6-.6-3.8-.7-4.7-.4-2.2.8-5.7 3.2-5.7 3.9 0 .5 1.1 1.5 1.4 1.1.3-.5 4.1-2.6 5.5-3 1.2-.4 1.6-.4 3.7-.1 3.3.6 4.6.6 4.4-.1 0-.2-.4-.4-1-.6zM237 97.8c1.2-.4 1.5-.4 2-.1.5.3.9.3 2.8-.3 3.8-1.1 3.9-1.1 4.3-.3.4.7 1.2 1 1.5.5.1-.1 1.5-.3 3.2-.4 2.5-.1 3.4-.1 5.3.4 2.4.6 3.3.6 3-.2-.1-.4 0-.4 1.1-.3.7.1 1.8.4 2.4.6 1.6.5 2.4.5 2.8-.2.3-.5.5-.6 2.2-.4 2.3.2 2.4.1 2.4-2.6 0-2.9-.2-3.3-2-4.3-2.9-1.7-6.9-2.2-8.2-1.1-.5.5-.7.5-2.8 0-1.3-.3-2.7-.6-3.2-.9-1.1-.5-1.3-.5-2.4.1-1.4.7-4.5 1.1-5.9.7-1.7-.6-4.9 0-7.7 1.3-2.1 1-2.2 1.1-2.6 2.5-.5 1.5-.4 4.6.1 5.2.2.2.8.1 1.7-.2zm-.8-2.9c.1-1.4.3-1.8.9-2.3.9-.8 1.2-.7.7.1-.4.7-.1 1.5.4 1.5.2 0 .5-.3.8-.7l.4-.6h26l.4.6c.5.8.9.8 1.1.2.3-.9-.3-1.8-1.5-2.1-1.2-.3-21.7-.4-25.1-.1-1.8.2-2 .1-1.6-.2 1-.7 2.9-1 7.1-1.1 3.8 0 4.4-.1 5.4-.7 1.4-.8 1.2-.7 2.1-.3 1 .5 4.8 1.3 6.1 1.3.6 0 1.1-.2 1.3-.5.6-1 6.3.5 7.3 2 .2.3.4 1.3.4 2.2 0 1.6 0 1.7-.6 1.5-.4-.1-1.2-.3-1.8-.4-1-.1-1.3-.1-1.6.5-.4.6-.5.6-1.7.1-1.7-.6-5.5-.9-6.1-.4-.3.3-.8.3-1.9.1-1-.2-2.5-.2-4.5-.1-2.8.3-3 .2-3.5-.3l-.5-.6-2.5.5c-1.4.3-3.2.6-4.1.6-.9 0-2 .1-2.7.3l-1.1.3.4-1.4zm-59.1 47c-.2.6-1 3.4-1.8 6.3-1.5 6-3.2 11.6-4.4 15-.8 2.2-.9 2.6-.3 2.6.7 0 3.7-8.8 5.5-16.5.7-2.9 1.4-5.4 1.6-5.6.4-.4.1 11.8-.5 15.9-.6 4.3-.6 13.4-.1 16.4l.4 2.1.1-1.6c.2-6.6.7-14.1 1.1-17.5.7-5.3.7-16.1.1-17.4-.5-1-1.2-1-1.7.3zm169.2 21.6c0 .3.1.4.2.2s.1-.5 0-.5c-.1-.2-.2 0-.2.3zM231 199.2c.2 0 .3-.1.3-.3 0-.2-.1-.3-.3-.3s-.3.1-.3.3c0 .2.2.3.3.3zm42.3 10.3c1.2-.9 1.3-1.1 1.3-1.8-.1-.9-.4-.9 3.9-1.7 3.3-.7 11-2.8 12.8-3.5 1.1-.5 1.4-1.1.6-1-.3 0-2.3.5-4.5 1.1-4.9 1.4-12.9 3-21.6 4.4-17 2.7-16.9 2.7-16.9 3.6 0 .3.2.6.3.8.8.5 5 0 13.9-1.5 5.1-.9 9.4-1.6 9.5-1.6.4 0-1.9 1.4-4.5 2.7-1.3.7-5 2.3-8.3 3.6-5 2-11.6 5-9.8 4.4.3-.1 2.4-.7 4.6-1.4 8.2-2.6 15.5-5.7 18.7-8.1zm16.2 23.5c-9.6 5.6-12.8 7.7-27.5 18-2.6 1.8-6.1 4.2-7.8 5.3-2 1.3-3 2.1-3 2.5 0 .9 1.3.5 8.3-2.5 3.8-1.7 6.9-3 7-3s-.5.5-1.3 1.1c-1.8 1.3-6.3 5.2-6.3 5.4 0 .1.5-.3 1.1-.7 1.1-.9 11.7-7.5 17.9-11.2 2.1-1.2 3.8-2.4 3.9-2.6.1-.2 0-.6-.2-.7-.3-.3-1.1.1-3.8 1.5-3.6 2-11.2 5.6-15.9 7.6-1.5.7-2.9 1.2-3 1.3-.4.1-.1 0 8.1-5.9 9.2-6.5 12.4-8.6 19.4-12.8 6.7-4.1 8.3-5 8.3-5.4-.2-.7-1-.3-5.2 2.1zm-56.1 132.9c-4.6-3.6-7.8-8.3-14-21-2-4-3.9-7.4-5-9-4.8-6.7-13.5-13.6-19.8-15.8-2.2-.8-4.5-1.1-4.9-.6-.4.4-.1.6 1.5.9.9.2 3 1 4.8 1.9 7.7 3.8 15.5 11.2 19.6 18.4 1.8 3.2 6 12.2 5.6 11.6-.2-.2-1.3-1.4-2.3-2.6-2.6-2.9-4.9-4.8-8.3-7-2.7-1.8-4.3-2.6-5.8-3.1-.6-.2-.5 0 .5.9.7.6 2.2 1.7 3.3 2.5 5.4 3.7 8.2 6.3 13.5 12.6 1.5 1.7 2.8 3.3 3.1 3.6.3.2 1.1 1.2 1.8 2.1 2.8 3.8 7 7.3 9.4 7.7l1 .2-1-1c-.8-.5-2.1-1.5-3-2.3zm178.1-23.7c-.4.4-.5.9-.1.7.5-.3.3.1-.9 2.4-2.6 5.1-9.4 12.7-15.5 17.6-7.9 6.3-15.7 10.7-29.2 16.5-3.6 1.5-6.7 2.9-6.9 3.1-.3.2-.4.5-.3.8.1.3.6.5 1.7.5 3.3 0 13.9-2.2 22.8-4.7 6.5-1.9 12.9-4.1 11.7-4.1-.5 0-6.6 1.5-14.4 3.5-7.1 1.8-17.3 4-17.5 3.8-.1-.1 1.9-.9 4.2-1.9 15.4-6.3 26.1-13 34.8-21.7 5.6-5.6 10.9-13.4 10.6-15.7 0-1.1-.4-1.3-1-.8zm-291.2 25c2.4 1.2 8.1 5.1 12.3 8.4 12.8 10 19 13.1 34.4 17.1 6.6 1.7 11.6 2.6 15.2 2.8l2.3.1-1.9-.3c-2.2-.3-13.2-3.1-19.5-5-11.1-3.2-18-6.9-29.2-15.6-7.5-5.8-14.7-10-14.7-8.5-.1.2.5.6 1.1 1zm99.6 13c.2.1.5.1.5 0 .1-.1-.1-.2-.4-.1-.3-.1-.4 0-.1.1zm31.6 41.3c.4 0 2.1-3.9 3.4-7.7 1.9-5.6 2.3-8.2 2.4-14.5 0-5 0-5.7-.6-7.6-.9-2.9-2.5-4.6-3-3.3-.3.7-.2 1 .2 1 .5 0 1.5 2.3 1.9 4.7.4 2.5.2 9.7-.5 13-.6 3.2-2.7 9.5-3 9.3-.1-.1-.3-.4-.3-.7 0-.3-.1-.5-.3-.5-.1 0-.3.1-.3.1 0 .1-.2 1.4-.4 2.9-.3 2.5-.2 3.3.5 3.3zm-10.8-25.4c.2-.4.5-.8.6-.8.3 0 1.4 4.3 1.9 7.3.8 5.2.2 10.9-1.8 15.3-1.3 2.8 0 2.7 1.4-.1 1.5-3 2-5.6 2-10.2 0-4.7-.4-7.2-2-12.4-.9-2.8-1.2-3.4-1.7-3.5-.5-.1-.7.1-.8.6-.1.4-.1 1.6-.1 2.6.1 1.9.1 2 .5 1.2zm-32.1 19c3.6-.3 8.3-1 10.6-1.3 6.6-1.1 6.3-1.1 4.5-.4-3.4 1.3-11.9 4.1-15.7 5.2-9.9 2.8-21 4.1-35.3 4.1-9.2 0-18-.8-20.7-2-.4-.1-.5-.1-.5.3 0 1 3.6 1.9 11 2.7 3.9.4 6.5.4 14 .3 20.4-.4 29.5-2.3 50.7-10.6 1.7-.7 3.4-1.4 3.8-1.7.4-.3 1.1-.6 1.6-.8 1.4-.3 4.1-1.6 4.3-2.1.2-.5.2-.5-.4-.1-.5.3-15.1 3.2-19.4 3.8-8 1.2-17.5 1.9-28.1 2-3.8.1-6.9.2-7.1.3-1.2 1.2 15.9 1.4 26.7.3z"/><path d="M493.4 286.7c1.7-.3 4-.7 4.7-.9.5-.2.7-.1.7.3 0 .2 1.2 3.1 2.6 6.3 2.6 5.9 5.8 11.8 6.5 11.8.6 0 .5-.5-1.3-3.8-1.3-2.5-4.9-10.5-6.9-15.5-.3-.7-1.1-.8-2-.3-.3.2-1.7.5-3 .7-2.9.5-3.2.7-3.8 3.4-.5 2.2-.5 10.5 0 12.8.2.8.3 1.5.2 1.5 0 .1-.8-.9-1.7-2.1-3-4.3-6-10.8-5.4-11.6.2-.2.5-.9.7-1.5.2-.6.8-1.8 1.3-2.6 1.5-2.6 1.2-3.3-2.2-5.6-2.5-1.6-3.6-2.2-4.2-2.2-.3 0-1.7 1.2-3.2 2.7-2 2-4.1 3.6-7.7 6-6.3 4.2-6.9 4.7-9.8 8.1-1.3 1.5-2.8 3-3.3 3.4-.5.4-1.5.8-2.5 1.1v-.5c0-1.8-.9-3.6-2.8-5.2-1.9-1.7-4.2-2.9-5.8-2.9-.7 0-1.2-.1-1.2-.3 0-.2-.8-1.3-1.7-2.4-2.2-2.7-3-4.5-4.6-9.8-3.7-12.2-9.3-22-16-27.8-1.3-1.1-4.1-3.3-6.2-4.9-2.2-1.6-5.2-4-6.7-5.4-3.7-3.5-3.8-3.5-6-3.5h-1.9l-.1-1.9c-.1-1.3-.4-2.4-.9-3.4s-.9-2.5-1.2-4.1c-.3-2-.7-3.2-1.7-5.2-1.7-3.4-1.9-4.8-1.8-13l.1-6.5-.9-2.7c-1.6-4.8-2-11.8-.9-17.1.9-4.2.7-6.6-1.2-14.1-.8-3.3-1.7-7.7-2-9.8-1.4-9.7-1.9-12-3.7-17.6-1.3-4-2.8-7.3-4.6-9.8-4-5.7-13.1-10.1-23.5-11.4-2-.2-4.6-.6-5.8-.7-1.3-.2-4.3-.4-6.8-.6-2.5-.1-5.5-.4-6.7-.5-1.2-.2-4.8-.4-8-.6-7.9-.4-12.9-.8-13.4-1-.3-.1-.4-.7-.3-3 .1-3.4-.2-5.3-1.4-8.2-1.6-3.8-4.4-6.2-11-9.5-6.9-3.4-11.2-5.9-15.3-9.1l-4-3v-1.3c0-.7-.1-1.8-.3-2.3-.2-1-.2-1.1.5-1.2 1.7-.4 4.4-3.9 5.5-7.5 1.2-3.6 1.9-6.9 2.2-10.5.3-4.3 0-6.1-1.3-7.1-.6-.5-2.2-.5-3.3.1-.5.3-.9.4-.9.3 0-.1.3-1.2.6-2.3.5-1.8.6-3.3.8-9.4.3-13.1.3-15.7-.3-17.4-.8-2.5-3.6-6.5-7.4-10.4-7.7-7.9-11.8-10.1-17.5-9.5-1.7.2-3.1.1-5.1-.1-3-.4-2.9-.4-5.2-.1-.9.1-4.2.3-7.4.5-8.2.4-10.5 1.1-16.7 5.2-5.6 3.7-8.5 6.7-11 11.6-.7 1.3-1.5 3.2-1.8 4.1-.7 2.4-.7 7.3.1 11.8.3 2 .7 4.8.8 6.3.1 1.5.5 4.5.9 6.7s.7 4.1.7 4.2c0 .1-.5-.2-1.2-.7-1.6-1.1-3.3-1.2-4.2-.1-.7.9-1.5 4.1-1.5 6.1 0 2.1.7 6 1.6 8.4 1.7 4.6 4.2 8.8 5.7 9.6.8.4.9.6.8 1.1-.1.3-.2 1.8-.2 3.3v2.7l-1.5.8c-.8.4-3.7 1.9-6.5 3.2-17.6 8.6-20 10.3-21.7 15.5-.5 1.4-.6 2.7-.7 5.4l-.1 3.5-2.8.9c-1.5.5-3.8 1.4-5.1 1.9-2 .9-16.7 5.4-24.4 7.4-10.7 2.9-16.3 5.9-20.9 11.2-3.8 4.5-5.4 9.2-5.8 17.7-.1 2.9-.4 6-.6 7-.1.9-.5 3.5-.7 5.7-.2 2.2-.9 6.4-1.6 9.4-1.4 6.7-3 15.1-4.7 24.8-1.4 8.2-2 11.3-3.4 16.8-.5 2-1.2 4.9-1.4 6.4-1.2 6.9-1.7 7.9-5.2 9.6-2 1-2.1 1.1-2.1 2 0 1.2.6 2.4 2 4l1.1 1.3-1.1 1.1c-1.3 1.3-3.5 2.2-8 3.4-3.8 1-9.2 3.1-11.7 4.6-.9.5-2.9 2.2-4.4 3.7-3 3-4.2 5-6.1 10-1.2 3.1-1.7 5.7-2.3 11.8-.3 2.3-.7 5.4-1 6.7-.5 2.5-2.8 9.7-3.7 11.9-.3.7-.6 1.7-.7 2.2-.1.7-1.2 3.1-1.3 4.1-1.2-.1-2.3-.2-2.8-.1-1.1.2-3.6 2.5-5.5 5.2-1.1 1.5-1.3 1.7-1.8 1.5-.3-.2-.7-.5-.8-.7-.1-.2-.6-.4-1.1-.4-1.2 0-4.4-1-5.5-1.8-.5-.4-2-1.9-3.3-3.4-2.9-3.4-3.6-3.9-9.8-8.1-3.6-2.4-5.7-4-7.7-6-1.5-1.5-2.9-2.7-3.2-2.7-.7 0-1.7.5-4.2 2.2-3.4 2.2-3.8 3-2.2 5.6.5.8 1.1 2 1.3 2.6.2.6.5 1.3.7 1.5.7.8-2.4 7.3-5.4 11.6-.9 1.2-1.6 2.2-1.7 2.1-.1-.1 0-.7.2-1.5.5-2.2.4-10.5 0-12.8-.5-2.7-.8-3-3.8-3.4-1.4-.2-2.7-.5-3-.7-.9-.5-1.8-.4-2 .3-2 5-5.6 13-6.9 15.5-1.8 3.3-1.9 3.8-1.3 3.8.7 0 3.9-5.8 6.5-11.8 1.4-3.2 2.6-6.1 2.6-6.3 0-.3.2-.4.7-.3.6.2 2.9.6 4.7.9 1 .1 1.1.3 1.5 3.1.6 4.3.2 11.1-.9 14.1-1 2.7-1 2.8 0 4.3 1.6 2.5 3.8 12.5 4.4 20.2.1 1.6.1 1.8-.3 1.6-2.2-.9-4-1.3-6.6-1.6a23 23 0 0 1-3.3-.5c-.2-.1-.5-1.3-.7-2.8-.8-4.4-2.9-10.5-5.9-16.4-1.3-2.6-2-3.4-2.4-2.9-.1.1.5 1.6 1.3 3.4 3.5 7.7 5.5 13.5 5.9 17.4.3 2.5.5 2.7 4.5 3.2 4.1.5 7.7 1.6 8.1 2.4.4.7.8.7 2.5-.1.8-.4 2.2-.9 3.3-1.2a6 6 0 0 1 3.5-.1c1.6.4 1.7.4 1.9 1.6.2 1.4 1 2.9 1.5 3 .2 0 1.9.1 3.9.1 2.9.1 3.9.2 5.6.8 2.2.8 4.9 2.1 5.6 2.7.3.2.6.4.7.3.1-.1.7.5 1.3 1.1 1.6 1.7 2.7 2.2 5.2 2 3-.1 4.3-.9 11.7-6.8 1.9-1.5 4.4-3.4 5.6-4.2 2.2-1.5 5.4-3.1 5.4-2.7 0 .6-1.3 5.7-2.3 9.2-6.3 21.1-7.2 28.5-4.5 36.4 2.4 7.1 5.3 11.4 8.7 13 1.3.6 4.4 1.4 10.5 2.7 1.4.3 2.7.7 2.9.9.2.2.5 1 .6 1.8.3 2.5 1.3 5.1 2.5 6.7 2.7 3.6 5.8 5.6 10.1 6.9 1.1.3 2.9.9 4 1.2 1.1.3 3.2 1.3 4.8 2.2 1.6.9 4.7 2.7 7 4 2.3 1.3 5.9 3.5 8.1 5 6 4 13.6 7.5 19.4 9 2.6.7 2.7.7 3.2 1.8.9 2 2.5 3.9 4.4 5.3 2.4 1.9 7.6 4.4 10 4.9 5.7 1.2 14.1 1.4 19.1.5 7.1-1.4 11.8-3.5 22.8-10 7.3-4.4 8.9-5.2 12.4-6.4 2.5-.9 3-.9 4.2-.7 1.7.3 4.8.4 5.6.2.6-.2.6-.1.6.8 0 1.5.6 1.7 4.2 1.5 2.5-.2 3.1-.1 4.4.4 2 .8 6.6 1.9 9.4 2.3 4.1.5 7-.3 9.2-2.5 1.1-1.1 1.1-1.1 2.5-.9.8.1 2.8.3 4.5.4 10.6.6 17.8 2.3 31.8 7.5 6.7 2.5 10.3 3.7 14.9 4.8 9.8 2.5 12.7 2.8 28.3 2.7 11.7 0 12.8-.1 17.7-1.7 1.9-.6 2.9-1.2 5.2-2.8 4.6-3.4 6.2-6 6.6-10.6.5-5.1.3-4.8 2-5.3.8-.3 2.4-1 3.6-1.6 2.2-1.2 7.9-3.6 9.8-4.2 2.1-.7 9.3-3.7 13.7-5.8 6.9-3.3 22.4-12.9 28.8-17.9 10.7-8.3 16-13.9 19.6-21 2.1-4.1 2.7-6.7 2.5-10.1-.2-2.3-1.4-9.8-2.9-17.4-.3-1.3-.5-2.8-.6-4.1.9.3 1.7.5 2.7.5 2.4.1 3.6-.3 5.2-2 .6-.6 1.2-1.1 1.3-1.1.1.1.5-.1.7-.3.7-.6 3.4-1.9 5.6-2.7 1.6-.6 2.6-.7 5.6-.8 2-.1 3.7-.1 3.9-.1.5 0 1.2-1.5 1.5-3 .2-1.2.2-1.2 1.9-1.6a6 6 0 0 1 3.5.1c1 .3 2.5.8 3.3 1.2 1.7.9 2.1.9 2.5.1.4-.8 4.1-1.9 8.1-2.4s4.2-.7 4.5-3.2c.5-3.8 2.4-9.6 5.9-17.4.8-1.8 1.4-3.3 1.3-3.4-.5-.5-1.1.4-2.4 2.9-3 5.9-5.2 12-5.9 16.4-.3 1.4-.6 2.7-.7 2.8-.2.1-1.7.3-3.3.5-2.6.3-4.4.7-6.6 1.6-.5.2-.5 0-.3-1.6.7-7.7 2.9-17.7 4.4-20.2.9-1.5.9-1.6 0-4.3-1.1-3-1.5-9.8-.9-14.1-.4-4.2-.4-4.3.7-4.4zm-19.3-2.8c.8-.7 2.3-2.1 3.4-3.2l2-2.1 1.4.8c2.2 1.3 4.2 2.7 4.5 3.1.2.3-.1 1.2-1 3.1l-1.3 2.7-.3-1.7-.3-1.6-1.5.1c-3.2.3-5.7 2.2-6.5 5.1l-.4 1.3-.7-1.5c-.5-1.1-.7-2.1-.7-3.2-.1-1.7 0-1.8 1.4-2.9zm-18 15c.5-.3 2-1.9 3.4-3.5 2.7-3.1 3.4-3.8 8.4-7.2 1.7-1.2 3.2-2.2 3.3-2.2.1 0 .2.8.3 1.8.2 2 1.7 5.6 2.3 5.6.5 0 .4 0 1.3 5 .5 2.6.9 3.9 1.8 5.7 1.1 2.1 1.1 2.4.8 3l-.4.7-1.5-1.6c-.9-.9-3-2.8-4.9-4.2-1.9-1.4-4.1-3.3-5.1-4.2-.9-.9-2-1.7-2.5-1.8-.9-.2-3.9.8-4.5 1.5-.5.6-.4 2.6.5 6.3.9 3.8 2.3 6.7 4.2 8.7l1.4 1.4-.5.7c-1 1.3-1.9 4.4-2.5 9.1l-.2 1.4-.3-1c-.1-.5-.2-2.5-.1-4.4l.1-3.4-1.5-3.1c-1.3-2.5-1.7-3.8-2.5-7.4-.5-2.4-1.2-4.8-1.5-5.3l-.5-1 .7-.6zm-10.2-7.1c1.4.5 3.7 2.4 4.6 3.8.7 1 .9 1.7.9 2.7v.8c-.6.1-1.2.2-1.5.2-.5 0-1 .2-1.1.4 0 .1-.1.1-.2.2-5 .6-10.9 3.4-14.3 7-2 2.1-5.9 7.6-7.4 10.7-1.4 2.8-1.3 6.2.2 9.7.2.4-.1.5-1.1.8-1.9.5-3.7.4-5.2-.3-1.7-.7-2.1-1.2-2.1-2.5 0-.5-.3-1.9-.7-3-2.8-8.3-.3-16.7 7-22.8 3.4-2.8 6.6-4.3 15.1-6.9 3.7-1.2 4.5-1.3 5.8-.8zM265.3 131c-3.2.8-9.4 1.7-13.5 2-6.7.5-15.3-1.5-20.9-4.9-1.3-.7-4.2-3.8-8.2-8.7-1.3-1.7-3.7-4.4-5.2-6.1-1.5-1.7-2.7-3.2-2.7-3.4 0-.5.8-.2 1 .3.3 1 4.3 4.8 6.5 6.2 2.9 1.9 11.8 6.3 15.4 7.6 5.1 1.9 8.9 2.7 12.5 2.7 7.4 0 16.3-2.3 24.4-6.4 5.5-2.8 12.4-7.9 13.1-9.6.2-.5.4-.6 1.1-.5.5.1.9.3.9.4 0 .5-2.7 5.1-5.2 8.7-2.1 3.1-2.6 3.7-4.6 5.1-4 2.8-9.6 5.4-14.6 6.6zm13-3.4c-4.5 4.7-16.6 11.5-24.3 13.7-3.1.9-5.9 1-7.2.3-1.7-.9-10.4-7.7-12-9.3l-1.1-1.2 1.7.8c3.7 1.6 11.5 2.8 16.2 2.5 7.8-.5 15.1-2.1 20.4-4.3 3.1-1.3 6.3-3 6.9-3.6.1-.1.3-.3.4-.3.2.1-.3.7-1 1.4zm-64.1-18.9c-.8.2-4-6.7-4-8.6 0-1.1.7-2.5 1.7-3.5.7-.7 6.9-4.1 7.5-4.1.1 0 .2 1.3.1 3-.3 3.5-1.1 8.5-1.9 11.2l-.5 1.9h-1.2c-.7 0-1.4.1-1.7.1zm74.4.4c-1.6-.3-1.7-.3-2.4-1.9-1.1-2.1-1.6-5.1-1.8-10l-.2-4.2 1.4.1c.8.1 1.9.4 2.6.7 1.6.7 4 3.4 4.4 4.8.2.7.2 1.8.1 2.5-.3 1.9-1.5 6.5-2 7.4l-.4.8-1.7-.2zm-70.4-64.6c-.1-1.9-.5-5.1-.9-7.1-1.2-7.4-1-10.3.6-14.2 2.1-5 5.6-9.1 11.2-12.8 4-2.7 6.1-3.7 9.2-4.5 2.9-.7 10.1-1.2 16.2-1 2.5.1 6.5.2 9 .2 4.4.1 4.4.1 6.3 1 5.6 2.8 14.2 11.5 16.7 16.9l.9 1.9v5.8c-.1 13.9-.3 17.9-.9 20.5-.7 2.6-1.5 4.3-2.2 4.3-.2 0-.6-.6-.8-1.5-.3-.8-.8-2.1-1.3-2.9-1.9-3.3-2.5-5.7-3.3-12-.6-5-1.9-8.7-3.3-9.5-.3-.2-1-.3-1.7-.3-.9 0-1.8.5-5.2 2.7-5.3 3.5-9.2 5.4-13.2 6.4-3.5.9-4.8 1-6.8.4-2-.5-3.1-1.1-5.6-3.1-2.6-2.1-11-6.4-12.4-6.4-2.9 0-4.1 2.4-4.1 8.2 0 3.8-1.1 9.1-2.7 12.7-.7 1.6-1.3 3.6-1.5 4.4-.1.8-.3 1.7-.5 2-.3.4-.4.3-1.2-.9-.5-.7-1-1.8-1.1-2.4-.1-.6-.3-2-.6-3.1-.3-1.3-.7-3.8-.8-5.7zm2.6 50.9c.3-3.9.2-13.4-.2-17.7-.1-.8-.8-1.7-1.3-1.8-.5 0-3.2-4.7-4.2-7.3-1.4-3.5-2-6.5-2-9.5 0-2.4.7-5.1 1.3-5.4.8-.3 2.2.6 4.6 2.8 1.3 1.2 2.4 2.2 2.5 2.2.1 0 .2-.3.2-.7 0-.4.3-1 .7-1.3.4-.4.8-1.2 1-2.3.2-.9.9-2.7 1.5-4 1.7-3.6 2.5-7 2.8-12.6.2-2.6.4-5.1.6-5.6.4-1.1 1.4-2.1 2.2-2.1.3 0 2.7 1 5.2 2.3 3.1 1.6 5.4 2.9 7.1 4.3 4.3 3.4 7.1 4 12.8 2.7 3.9-.9 7.6-2.5 11.2-4.9 1.3-.9 3.4-2.2 4.5-3 2.9-1.9 3.6-1.9 4.7.5.9 1.9 1.4 4.4 1.9 9.1.4 4.2.9 5.7 2.7 9.4a48 48 0 0 1 1.9 4.4c.3.9.6 1.3 1.1 1.5.4.2.8.4.9.6.3.4.9-.1 1.5-1 .7-1.1 3.1-2.8 4-2.8 1.2 0 1.5 1 1.5 4 0 4.6-1.5 11.2-3.3 14.9-.7 1.5-3.2 4.2-3.7 4.2-.2 0-.3-.8-.3-2.5v-2.5l.9-.2c2.6-.5 3.7-4.5 1.5-5.6l-.9-.4 1.3-2.3c.8-1.4 1.6-2.4 2.1-2.6 1-.5 1-1.6 0-1.7-.8-.1-2.2 1.5-3.7 4.3-.6 1.1-1.1 1.9-1.3 1.9-.2 0-.7-2.8-1-4.8 0-.2-.3-.5-.6-.5-.6-.1-2 2.7-3.6 7.4-.6 1.7-1.2 3.1-1.4 3.1-.2 0-.4.3-.5.6-.1.4-1.2 2.6-2.3 5-1.8 3.7-2.2 4.4-2.8 4.4-.3 0-1.7.8-3 1.9-1.6 1.2-2.6 1.9-3.2 1.9-.4 0-2.2.4-3.8.9-2.7.8-6.1 1.1-6.1.7 0-.1.8-1.1 1.8-2.4 2.4-3 2.7-3.7 2.1-5.4-.7-1.7-2.1-2.7-2.5-1.7-.1.2.1.8.5 1.2 1.2 1.4 1.2 1.9-.2 3.7-.7.9-1.7 2.2-2.2 2.8-1 1.1-1 1.1-3 1.1-1.8 0-2.1-.1-2.8-.7-.7-.7-3-4.8-3-5.4 0-.2.3-.7.7-1.2.8-.9.9-1.7.4-1.7s-2.5 2-2.5 2.6c0 .7 1.5 4 2.7 5.8 1.1 1.7 1.2 1.6-1.6 2-1.1.2-1.8 0-5-1.2-2-.8-4-1.5-4.5-1.7-.4-.1-2.1-1.4-3.8-2.8l-3-2.6-1.3-3c-.7-1.7-1.4-3.6-1.6-4.2-.5-1.9-.9-2.6-1.5-2.6-.4 0-.6-.3-.8-1.2-1.3-5-1.8-6.6-2-6.9-.4-.4-1.2 1.8-1.6 4.2-.3 2.2-.3 2.2-.7 1.4-2.2-5.2-3.4-6.8-4.8-6.6-.6.1-.8.3-.9.8-.1.6 0 .7.6.5.6-.1.8 0 1.6 1.2.9 1.3 2 3.8 2 4.4 0 .1-.3.4-.7.5-2.1.8-1.2 5.1 1.1 5.1.9 0 .9-.1-.1-1.3-.8-.9-1.1-2.2-.6-2.5.1-.1.6.2 1.1.7l.9.9-.2 2.7c-.1 2.4-.1 2.8.3 3 .4.2.5.8.5 4.2 0 3.6.1 4 .6 4.6.4.4 1 2.1 1.9 5.7.7 2.8 1.6 5.9 1.9 6.9.4.9 1 2.7 1.3 3.8.3 1.2 1.2 3.3 2 4.8s1.7 3.8 2.2 5.2c.9 2.5 2.4 4.6 3.4 4.6.3 0 .9.3 1.4.6.5.3 2 .9 3.3 1.2 1.3.3 3.5 1.1 4.8 1.8 2.6 1.3 4.1 1.6 4.9.8.4-.4.6-.3 1.9.6.8.5 1.9 1 2.2 1 .4 0 1.5-.5 2.4-1 .9-.5 1.7-1 1.9-1s.3.4.5.9.5.9.8.9c.3 0 1.9-.9 3.6-1.9 4.4-2.6 4.6-2.8 5.1-2.4.2.2.6.2.8.1.8-.4 4.8-5.6 6.3-8.2 2-3.3 2.6-5 4.6-11.6 2.1-7.2 2.3-7.9 3.1-12.7.4-2.2.8-4.2.9-4.3.1-.1.1 1.5 0 3.5-.5 9.9-.5 13.5-.2 16.9.5 4.6 1.2 7.5 2.4 9.3l1 1.5-1.6 1.6c-.9.9-2 1.8-2.6 2-.5.3-2 1.2-3.3 2-5.8 3.8-13.9 7.1-20.9 8.4-3.9.8-9.1 1-11.6.6-5-.9-11.9-3.5-18.2-6.9-5.2-2.8-6.3-3.5-8.7-5.8l-1.9-1.8.7-1.7c1.3-2.5 2.3-8.2 2.7-13.6zM284 69.2c0-1.7 1.9-3.2 2.2-1.7.2 1-.2 1.9-1.1 2.3-1.1.6-1.1.6-1.1-.6zm-61.7 3.2c-.4-.4-.4-.9-.3-3.8.1-1.9.3-3.8.4-4.4l.2-.9.2 1.1c.4 2.3 1.4 4.8 2 5.4.3.3 1 1.6 1.4 2.9 1 2.8 3 6.7 3.4 6.7.2 0 .9.5 1.5 1.2 1.7 1.8 5.1 4.2 5.8 4.2.3 0 2.1.6 3.9 1.3 3.5 1.4 4.4 1.5 7.2 1 .9-.2 4-.3 6.8-.4 4.8 0 5.3-.1 7.5-.8 1.5-.5 2.6-.7 3.2-.6.7.1 1.2-.1 3.2-1.6 1.3-1 2.4-1.6 2.5-1.4.2.6 1.1.3 1.7-.4.3-.4 1.6-2.7 2.8-5 1.2-2.4 2.4-4.5 2.7-4.7.3-.3.9-1.6 1.3-3s1.2-3.6 1.7-4.8c.9-2.2.9-2.2 1.1-1.4.2.5.3 3.9.3 7.6 0 5-.1 6.9-.3 7.2-.2.2-.7 2.6-1.2 5.3-1 5.8-1.2 6.6-3.2 13.3-1.8 6-2.5 7.9-4.2 10.7-1.7 2.9-5.2 7.2-5.9 7.2-.7 0-1.5.5-5.4 2.8-2.8 1.7-3.1 1.9-3.2 1.3-.1-.3-.4-.7-.7-.9-.5-.3-1-.1-3 .9-2.6 1.3-2.7 1.3-4.9-.4-1.2-.9-2.2-1-2.4-.2-.3.8-.6.7-3.6-.7-1.5-.7-3.6-1.5-4.8-1.8-3.1-.8-5.9-2.2-6.6-3.3-.3-.5-.8-1.7-1.1-2.7-.3-1-1.4-3.4-2.3-5.3a23.8 23.8 0 0 1-2.2-6.3c-.7-3.1-1.3-5.5-2.4-8.7-.4-1.2-.9-3.2-1.1-4.5-.4-2.7-.6-3.4-1.3-3.4-.4 0-.4-.4-.3-4 0-3.7 0-4.3-.4-4.7zm-156.1 232c.5-.7 1.8-2 2.8-3.1 2.2-2.2 2.2-2.2 6.9-1.5 4.9.8 8.3 3 11.7 7.6 2.1 2.8 4.6 7.6 5.9 11.5 1 3 1.1 3.2 1.1 7.1 0 3.8-.1 4.1-.8 5.7-1.2 2.5-1.5 2.8-3.2 2.5-.8-.1-2.2-.5-3.2-.9-1-.3-2.2-.7-2.6-.7-.5 0-.8-.1-.8-.2 1.1-2.1 1.2-2.6 1.2-5.3 0-2.4-.1-3.1-.7-4.6-1.3-3.1-2.6-5-5.6-8-3.7-3.8-6.5-5.6-9.9-6.7-1.7-.5-2.7-1-3-1.5-.7-.6-.7-.7.2-1.9zm-26-14.1c.1 0 1.5 1 3.3 2.2 4.9 3.5 5.7 4.1 8.4 7.2 1.4 1.6 2.9 3.2 3.4 3.5l.8.6-.5 1c-.3.6-.9 3-1.5 5.3-.8 3.5-1.3 4.8-2.5 7.4l-1.5 3.1.1 3.4c.1 1.9 0 3.9-.1 4.4l-.3 1-.2-1.4c-.6-4.6-1.5-7.8-2.5-9.1l-.5-.7 1.4-1.4c1.9-1.9 3.3-4.8 4.2-8.7.8-3.6 1-5.7.5-6.3-.6-.7-3.6-1.7-4.5-1.5-.5.1-1.6.9-2.5 1.8-1 .9-3.2 2.8-5.1 4.2-1.8 1.4-4 3.2-4.9 4.2l-1.5 1.6-.4-.7c-.3-.6-.3-.9.8-3 .9-1.9 1.3-3.1 1.8-5.7.9-5 .9-5 1.3-5 .7 0 2.1-3.6 2.3-5.6 0-1 .2-1.8.2-1.8zM27 290c-.9-1.9-1.2-2.8-1-3.1.3-.5 2.2-1.9 4.5-3.1l1.4-.8 2 2.1c1.1 1.1 2.6 2.6 3.4 3.2 1.4 1.2 1.4 1.2 1.4 2.8 0 1.1-.2 2.2-.7 3.2l-.7 1.5-.4-1.3c-.8-2.9-3.3-4.8-6.5-5.1l-1.5-.1-.3 1.6-.3 1.7L27 290zm7.7 41.8c-.2 2.2-.2 2.4-.8 2.2-2.6-.8-5.9-.3-9.3 1.5-.1 0-.3-1-.4-2.3-.5-5.9-.9-8.7-2-13.2-.7-2.7-1.5-5.9-1.7-7.1-.6-2.7-.6-2.8 2.2-6.6 3.2-4.4 6.1-10.9 6.6-14.9.2-1.4.2-1.4 1.1-1.2.5.1 1.4.4 2 .7 2.1.9 3.6 3.2 3.6 5.6 0 .5-.3 2.7-.7 4.9-.6 3.4-.9 4.5-2 6.7-1.3 2.6-1.3 2.8-.9 3.5 1.9 3.3 2.9 12.3 2.3 20.2zm14.9 9.1c-.7-.4-2.2-1.1-3.4-1.5-1.8-.7-2.7-.8-5.9-.9-3.5-.1-3.8-.2-4.1-.7-.2-.4-.3-1.9-.2-4.6.1-5.3 0-10.5-.5-15.7-.2-2.4-.3-4.5-.1-4.9.3-.8 2.4-2.6 5.4-4.7 1.3-.9 3.5-2.7 4.7-4 2.5-2.4 2.8-2.6 4.9-1.8 1.1.5 1.2.5 1.2 1.5 0 1.7-1.6 7.5-2.5 9.2-.4.8-1.5 2.3-2.4 3.2-.9.9-1.7 1.9-1.7 2.1 0 .2.3.9.7 1.4 1 1.4 1.7 3.9 2.1 7 .5 3.8.5 3.8 1.3 3.8s.8-.1.3 2.6c-.5 2.4-.2 5.2.7 7.1.3.6.6 1.2.6 1.3.1.2-.4 0-1.1-.4zm16.2.5c-4 3.1-5.6 3.9-7.8 4-1.5 0-1.8-.1-2.7-.9-1.7-1.3-4-5-4.4-6.9-.3-1.4-.3-2 .2-4 .4-1.8.5-3.8.6-7.7l.1-5.3 1.3-2.6c1.5-2.9 1.6-3.2 2.7-8.5.5-2.2.9-4.1 1-4.2.1-.2.4-.2.7-.1.3.1 1.4.3 2.6.4 1.6.1 2.2.3 2.5.7.5.7.5 3.8 0 5.8-.3 1-.3 1.6-.1 1.7.4.1.3 1.4-.3 3.8-.3 1.2-.7 2.4-.7 2.8-.1.4.3 1.5 1.1 3 1 2.1 1.2 2.7 1.3 4.8.1 1.3.3 2.6.5 2.8.5.6 2.5.2 4.4-.7 1.6-.8 2.1-1.6 1.1-1.8-.3-.1-1.2.2-2.2.6-.9.4-1.9.7-2 .7-.1 0-.3-.5-.3-1.1 0-1.8-.6-4-1.6-6.1-.9-1.9-.9-2-.5-3.2.5-1.6.9-4.4 1.2-8.1.1-2.1.3-3 .5-3 .9 0 5 1.3 6.3 1.9 3.2 1.7 8.6 6.5 10.4 9.6 1.9 3.2 2.4 5 2.4 7.6 0 1.5-.2 2.7-.4 3.3-.4.8-.6.9-2 1-3.3.2-5.6 1.7-15.9 9.7zm95.6 96.8c-1.7-1.2-2.5-2.1-3.8-4.2l-.7-1.1h1c.9 0 1.1.1 1.3.8.6 1.7 1.1 2.3 3.1 4.3 2.2 2.2 2 2.2-.9.2zm23.8 4.7c-1.2.6-1.5.6-5 .5-6.5-.3-10.1-1.4-14.2-4.3-2.8-2-5.7-5.4-5.2-6 .1-.1 1.3-.2 2.6-.4 1.4-.2 5.4-.7 8.9-1.3 5.7-.9 9.6-1.4 12.8-1.7 1.5-.1 9.4-.2 9.4-.1 0 .4-1.7 4.4-2.5 6-1.1 2.4-4.9 6.3-6.8 7.3zm36.3-15.3c-2.4.9-3.4 1.5-10 5.4-10.5 6.1-13.7 7.7-19 9.1-4.8 1.2-4.8 1.2-2.2-1.4 2.3-2.4 3.9-5.2 5.1-9.1l.7-2.1 3.3.2c13.4.7 15.5.6 19.2-1.1 2.4-1.1 3.6-1.5 4.2-1.5.1-.1-.4.2-1.3.5zm108.7 15.1c-6.6-.5-15.3-2.5-23.6-5.5-20.5-7.4-25-8.5-36-9.3-3.3-.2-6.2-.5-6.3-.6-.3-.2.3-1.5 1.6-3.2.5-.7 1.3-1.9 1.7-2.6l.8-1.3 2.3-.2c3.6-.3 6.8.3 18.8 3.3 14.6 3.6 24.4 5.3 27.8 4.7 1.4-.3 2.2-1.1 2.2-2.2 0-.8-.3-1.2-1.8-2.6-2.8-2.6-8.5-5-17.1-7-5.5-1.3-11.7-2.9-16.5-4.4-4.4-1.3-10-2.7-12.4-2.9-1.2-.1-1.5-.3-1.6-.8-.1-.6-1.1-9.3-1-9.6 0-.1.6 0 1.4.3 4 1.2 9.1 0 13.4-3.2 1.8-1.3 5.3-5.5 5.6-6.6.1-.3.3-.6.5-.6.1 0 2.1.5 4.3 1.1 9.8 2.8 20.9 5 30.9 6.4 6.3.9 13.3 2.2 17.7 3.6 5.1 1.5 4.9 1.3 2.4 2.4-5.3 2.3-9.9 5.3-12.8 8.3-2.4 2.5-3.2 3.9-4.3 7.1-1.2 3.5-1.5 6.5-1.1 10.7.6 7.1 1.8 10.6 4.8 13.8l1.3 1.4-3-.5zm-62.4-58.6c1.1-.6 3.5-.5 7.2.3 2 .4 12.4 3 13.5 3.4.4.1-2.4 3.7-4.3 5.5-2 2-6 3.9-9 4.4-2.6.4-6.5-.6-6.7-1.8-.3-1.2-1.6-10.1-1.6-10.6s.4-.9.9-1.2zm-2.2-2.6c-.5.9-.7 1-2.2 1.3-1 .2-2.4.6-3.1.9l-1.4.6-1.4-1.6c-1.7-1.9-3.1-2.4-4.8-1.9-.6.2-1.2.5-1.4.7-.3.3-.6.2-2.1-1-2.8-2.2-6.1-3-8.7-2-2.1.8-5.8 1.7-7.7 1.9-1.6.2-1.7.1-6-2.1-2.4-1.3-4.8-2.5-5.4-2.8-.9-.5-.9-.6-.4-.8.3-.1.7-.3 1-.3.7-.3 12.7-.5 15.2-.3 1.3.1 3.2.3 4.4.5 3.7.5 10.8 1.1 16.8 1.5 3.2.1 7.2.4 8.9.5l3 .2-2.1 1.9c-1.1.9-2.3 2.2-2.6 2.8zm3.3 37.2c0-.1.2-.8.5-1.5s.5-2.6.6-4.2l.2-2.9 1.5.2c.8.1 2.9.5 4.7.9 1.8.4 5.3 1.3 7.8 2.1 4.8 1.5 9.3 2.6 16.9 4.4 6.8 1.6 13.5 4.3 15.7 6.5 1.9 1.9 1.6 2.5-1.2 2.5-4.4 0-13.6-1.7-27-5.1-10.3-2.6-13.1-3-16.9-2.8-1.6.1-2.8.1-2.8-.1zm70.5 24.2h-4.5l-1.8-1.8c-2-2.1-3.4-4.6-4-7.5-.7-3.1-1.1-8.3-.9-10.8.2-2.7 1.5-6.9 2.7-8.9 1.2-1.9 3.7-4.5 6-6.1 3.3-2.4 10.8-6.3 12.3-6.3.3 0 1.6.4 3 1 7.2 2.8 12.2 6.4 14 10.3 2.4 5.2 2.6 15 .3 20-2.4 5.2-7.5 7.7-19 9.5-2.4.4-5.1.6-8.1.6zm33.1-15.7c-.5 6-1.5 7.9-6.3 11.5-3 2.2-4.7 2.9-9 3.8-3.3.7-4 .5-1.3-.3 6.6-2 9.8-4.2 11.9-8.5 1.2-2.6 1.7-5.3 1.7-10.1 0-9-1.8-13.2-7.1-17.2-2.9-2.2-6.7-4.1-11.8-5.9-8.1-2.9-14.6-4.5-25.4-6a244.8 244.8 0 0 1-32-6.7c-6.6-1.8-15.5-4.1-17.8-4.6-.9-.2-2.9-.4-4.4-.5l-2.7-.2 1.6-.6c3-1.2 5-1 15.1 1.6 4.9 1.3 11.9 3.2 15.5 4.3 6.7 2 11.5 3.2 15.8 3.7 12.7 1.5 18.3 2.4 26 4.4 8 2 12.3 3.6 18 6.7 4.7 2.5 7.4 5.3 9.8 10.2 2.2 4.3 2.9 8.5 2.4 14.4zm76.9-82.5c1.3 6.6 2.9 16.5 3 18.6.2 3.1-.3 5.1-1.9 8.5-3.4 7-8.5 12.6-19.2 20.9-7 5.4-20.2 13.7-27.8 17.6-3.9 2-11.6 5.3-14.1 6.1-2.2.7-8 3.2-10 4.2-1.1.6-2.7 1.4-3.6 1.7l-1.6.6-.2-1.3c-1.3-9.3-5.6-16.2-12.4-20-5.5-3-11.4-5.3-19.5-7.3-4.3-1.1-10.8-2.4-13.9-2.7-5.8-.7-15.3-2-17.5-2.5-3.4-.7-4.6-1.1-10.8-3-2.7-.9-7.9-2.3-11.5-3.2-3.6-.9-7.5-1.9-8.7-2.2-3.3-.9-6.9-1.1-8.9-.5-.9.3-2 .7-2.3.9-.4.3-.7.4-.8.3-.1-.2 4.1-3.8 5.7-5 2-1.4 3.1-1.6 10.1-1.9l6.7-.4 4.4-2.4c10.8-5.8 11.6-6.5 26.1-18.8 6.1-5.1 18.9-14.7 20.9-15.5 1.7-.7 5.4-1.3 7.9-1.3 1.2 0 4.2.2 6.7.4 9.7.9 15.1 1.1 21.8.9 6.6-.2 8-.3 8-.8s-2.8-.6-8.3-.4c-5.5.2-10.6 0-20.6-.8-5.6-.5-9.4-.5-11.2-.2-.7.1-1.1.1-1 0 .7-.6 6.3-3.2 8.9-4.1 4.9-1.6 7.3-1.9 18.2-2.2 11.4-.3 16.5-.8 21.4-2.3 2.4-.7 5.2-2.3 5.3-2.9.1-.7-.3-.6-2.6.5-2.4 1.1-5.8 2-10.2 2.6-3.6.5-15.2.8-14.1.4.4-.1 2.7-.9 5.1-1.6 7.1-2.1 13.1-4.8 13.1-5.7 0-.6-1-.5-2.6.3-5.7 2.9-17.6 6.4-25.5 7.5-11.4 1.6-17.3 4.7-34.3 17.7-3.2 2.5-8.3 6.6-11.4 9.2-8.9 7.7-12.6 10.3-19.8 14.2-2.2 1.2-4.1 2.2-4.2 2.2-.1 0 .6-1.3 1.4-2.9 2.1-4.1 3.1-6.8 7.4-19.5 3.5-10.4 5-14 5.6-14.3.4-.2.3-1.2-.1-1.2-.5 0-1.6 1.4-2.4 3-.3.7-2 5.5-3.8 10.7-3.9 11.3-5 14.2-6.7 18.2-2.1 4.8-2.8 5.7-5.2 6.8-1.9.9-2.2.9-6.9 1.2-4.3.2-5.2.3-6.8 1-1.6.6-2.2.7-5.4.7-7.8 0-20-.9-28.6-2-7.3-1-16.7-.7-20 .6-.5.2-1.1.3-1.4.3-1.1 0-4.7-3-12.2-10.1-9.5-9.1-10.7-10.1-15.7-14.1-7.1-5.7-9.7-7.3-16.9-10.1-4.9-2-8.3-3.4-12-5.3-1.5-.7-3.8-1.7-5.1-2.1-3.3-1.1-14.5-3.8-17-4.2-1.9-.3-5.4-.4-3.8-.1.4.1 1.9.5 3.3.9s4.8 1.4 7.5 2.1c9.3 2.4 11.1 3 14.4 4.7 2.6 1.3 3.1 1.6 2.2 1.5-1.3-.2-11.2-.2-24.5-.1-6.7.1-9.5 0-12.7-.3-6.4-.7-8.5-.9-9.8-.7-1.1.2-1.1.2-.5.5.4.1 2.6.5 5 .8 8.8 1.1 11.2 1.2 20.5 1 4.9-.1 11.6-.3 14.9-.2 5.5 0 6.4.1 9.4.8 4.4 1 9.3 2.6 12.1 3.9 6 2.9 14.9 9.9 26.7 21.3 9.2 8.8 11.4 10.5 19.3 14.7l3.5 1.9-3-.1c-1.7-.1-3.2 0-3.6.1-.3.1-.5.3-.4.3.1 0 1.3.2 2.7.5 1.4.2 4 .5 5.9.7 3.4.3 3.4.3 7.2-.7 2.1-.5 4.1-1.1 4.4-1.3 2.1-1.1 7.4 1 8.8 3.5.3.4.6.9.8.9.4.1.5 0 1.5-1.4.4-.6.8-.8 1.6-.8 1.4 0 1.8.3 3.2 2.1.7.9 1.4 1.6 1.6 1.6.2 0 1.1-.3 1.9-.7.9-.4 2.2-.8 3-.9 1.3-.2 1.5-.1 1.8.4.3.7 2 10.6 2.8 17.6.9 7.1 1.1 11 .5 13.6-.6 2.7-3 7.7-3.3 6.9-.2-.5-.3-.4-.5.5-.4 1.3-1.6 3-3.7 5.4-2 2.2-3.4 2.8-7 2.5-2.7-.2-7.1-1.3-9.9-2.3-1.9-.7-2-.7-4.4-.4-2.8.4-3.2.2-2.5-1.1.5-1 .4-2.1-.3-2.4-.3-.1-.9.1-1.7.6-1.3.9-3.1 1-6.8.4-3.6-.6-6.3-.3-9.7 1.1-4.7 2-6 2.2-13.1 1.8-8.4-.5-18.8-.4-23.4.1-2 .2-6 .8-8.8 1.3-10.4 1.8-14.2 2-18 1.3-5.5-1.1-15.6-5.6-20.7-9.1-5.2-3.6-18.6-11.2-20.8-11.8-8.1-2.4-8.9-2.7-12.1-6.1-2.5-2.6-3.2-4-3.6-7.7l-.2-1.8 5.4.1c8.6.3 11 .6 19.3 3 1.9.6 3.9 1.1 4.6 1.2 1.1.1 1 .1-.9-.9-2.7-1.4-7.9-3.1-11.5-3.8-2.4-.5-4.7-.7-11.4-.8-4.6-.1-8.9-.4-9.5-.6-.6-.2-2.8-.7-4.8-1.1-5.5-1.2-6.7-1.7-8.5-3.6-2.9-3.3-5.8-10.2-6.3-15.3-.7-6.4.6-13.2 5.2-28.9.8-2.6 1.7-6.1 2-7.8.6-3 .6-3.1 1.2-2.5.3.3.9.6 1.5.6.5 0 1.8.3 2.9.7 2.1.7 4.8 1 6.4.6 2.4-.6 3.6-1.4 7-4.7 3.9-3.8 5.9-5.4 9.5-7.5 7.8-4.5 18-8.8 25.3-10.6 2.2-.5 3.6-1.2 5.1-2.5 1.2-1.1 8.3-5.9 10.4-7.1 1.2-.7 6.1-2.2 13.4-4.2 1.8-.5 4.4-1.3 5.7-1.7 2.2-.8 2.8-.9 2.8-.2 0 .2.3.7.7 1.3.4.5.6.9.4.9-.8 0-8.4 3.2-10.8 4.6-3.3 1.9-12.7 8.1-13 8.5-.1.2-1.2.3-2.5.3h-2.3l1.1.4c.6.2 2.5.7 4.3 1 2.6.5 4.2.6 9.6.6 6.8 0 9.2-.2 17.8-1.8 5.2-1 6.3-1.3 7.1-1.8 1-.7.2-.8-2.8-.2-1.6.3-4.2.8-5.8 1-8.9 1.4-9.3 1.4-16.5 1.4-3.9 0-7.5-.2-7.9-.3l-.9-.3 1.7-.9c.9-.5 3.2-1.9 5.1-3.2 5.5-3.5 8.3-5 12.2-6.5 2-.8 4-1.6 4.4-1.8.6-.3.8-.3 1.7.3.6.4 1.9.8 2.8 1 3.2.5 3.2.5 3 1.1-.1.3-.3 1.1-.5 1.9-.3 1.3-.2 1.6.4 2.8.4.7 1 1.6 1.4 1.9.4.3 2.2.8 4 1.2 2.3.5 4 1.1 5.6 1.9 2.9 1.5 4.8 2.2 6.9 2.4 1.6.2 1.7.1 2.6-.7.6-.5 1.3-.9 1.6-.9s2.8.6 5.7 1.3c9.6 2.4 12.2 2.7 13.7 1.4l.9-.7 1.3 1.2c.7.7 2 1.5 2.9 1.9 1.6.7 1.8.8 7.2.8h5.6l2.6-1.1 2.6-1.1 2.5 1.7c2.8 1.9 3 2 5.2 2.5l1.6.3.3 3.5c.2 2 .4 6.4.5 9.9.2 6.1.2 6.3-.3 6.3-.3 0-2-.2-3.9-.5-1.8-.3-3.4-.4-3.5-.3-.4.4.5.7 3.5 1.3 1.7.3 3.4.7 3.8.7.5.1.6.3.5.8-.1.3-.2 1.6-.2 2.7 0 1.9-.1 2.1-.7 2.4-.9.4-.9 1.2-.2 1.6.5.3.5.7.7 3.8.1 3.1.2 3.7.9 5.3.9 2 1.9 3 3.5 3.5 2.5.7 4.6.1 6.3-1.9 1.5-1.6 2.2-2.9 3.4-6.1.9-2.3 1.2-3 1.8-3.1l.7-.2h-.7c-.4 0-.6-.2-.5-.4.1-.2.3-1.1.5-1.9l.3-1.6 4.3-.8c5.8-1.1 13.8-3.1 15.4-3.9 1.3-.7 1.7-1.6.8-1.9-.3-.1-2 .1-3.9.3-4.3.6-8.9 1-12.7 1.1l-3 .1.1-2.3c.3-3.9.1-14.4-.2-15.9-.3-1.2-.2-1.6.2-2.3.4-.6.5-1.4.5-3.1 0-1.9.1-2.2.5-2.2.3 0 2.3.4 4.6.9 5.1 1 6 1.1 8.5.1 1.5-.6 2.1-1 2.6-1.7.9-1.4 2-1.7 5.1-1.3 5.2.6 11.2-.5 18.7-3.6 2.8-1.1 4.4-1.3 5.2-.3.3.3.6.9.6 1.1 0 .6.9.7 2 .1.9-.5 3-2.7 3.3-3.5.1-.5.6-.5 7.1-.6 8.6-.1 8 0 20.6-2.4 6.1-1.1 7.5-1.6 6.8-2.2-.3-.3-.9-.2-2.4.1-2 .4-2.1.4-4.5-.4-1.3-.4-4.5-1.6-7-2.6s-5.6-2.2-6.9-2.6l-2.3-.9c.1-.1 1.5.1 3.2.3l7.7.9c11.9 1.1 20.1 2.3 23.6 3.5 2.7.9 3.7 1.6 8.3 6 5 4.7 6.2 5.5 14.6 8.9 2.8 1.1 5.9 2.1 8.6 2.8 2.3.5 5.1 1.2 6 1.5 2.3.7 5 2.3 6.1 3.6 1.1 1.2 1.5 1.1.9-.2-.5-1.1-3.7-3.4-5.9-4.2-.9-.3-3.8-1.2-6.6-1.8-3.8-.9-6.3-1.8-10.4-3.5-6.3-2.6-7.7-3.5-11.6-7.2-3.9-3.7-7.7-6.7-9-7.4-1.7-.9-3.3-2.4-5.4-5.4-2.2-3.1-3.6-4.5-6.1-6.1-4.6-3-6.3-5.8-10.1-17.8-.8-2.4-2.1-6.3-3-8.5-.9-2.3-1.9-5.3-2.3-6.7-.9-3.2-2.7-14-2.7-15.9 0-2.2 1.1-7.5 2.6-12.8 1.5-5.3 1.6-6 1-6.8-.4-.5-.4-.5-.7 0-.2.3-.4 1.1-.5 1.8-.1.7-.7 3-1.3 5.1-1.2 3.8-2.1 8.3-2.5 11.6-.1 1.5.6 7.3 1.2 9.5.1.3-.2-.2-.5-1-.4-.8-1.2-2.3-1.9-3.3-1.9-3.1-4.3-8.3-4.9-10.7-.3-1.3-.9-3.7-1.3-5.4l-.7-3.2.6-2.5c.5-2.2.9-2.9 3.3-6.7 1.5-2.3 3.6-5.2 4.6-6.4 2.3-2.7 3.8-5.2 5.1-8.4 1.4-3.4 1.8-6.1 1.8-10.5 0-4.1.1-4.4-1.1 2.9-.3 1.9-.8 4.3-1.2 5.3-1 3.1-3.3 7.1-5.5 9.9-1.2 1.5-3 4.1-4 5.7-1 1.7-1.9 3-2 2.9-.1-.1.3-1.2.7-2.5.5-1.3 1.3-3.6 1.9-5.2 1.1-3 3.2-10.8 4.2-15.2.3-1.5 1-5.8 1.6-9.7.5-3.8 1.5-9.5 2.1-12.6.6-3.1 1.1-5.9 1.1-6.1 0-.7-1.5 3.8-2.4 6.9-.4 1.4-.7 2.4-.8 2.2-.4-.6-2.2-7.3-2.7-10-.3-1.7-.7-4.2-.8-5.7-.2-3.5-.6-4.1-.8-1.5-.5 4.1.3 8.7 2.5 15.8l1.4 4.6-.9 6.5c-.5 3.5-1.2 7.8-1.6 9.6-1.2 5.5-4.3 16.6-4.6 16.3-.1-.1.2-1.8.6-3.8 1.1-5.5 1.5-9.8 1.3-15.3-.2-5.1-.9-9.8-1.4-8.4-.1.4-.1 3.6-.1 7.1.2 7.2-.1 10.4-1.3 17.2-.5 2.5-.9 5.6-1 6.8-.1 1.3-.7 3.9-1.2 6-.6 2-1.1 4.5-1.1 5.4 0 1.3-.4 2.5-1.2 4.7-1.5 4-1.7 4.7-1.9 8.4-.2 2.8-.3 3.4-1.5 6.3-.7 1.7-2.1 4.6-3.1 6.4-3.4 6.1-4 8.1-3.8 11.8.1 2.6.9 4.4 3.4 8.3 2.2 3.4 2.7 4.6 3.6 8.9.4 2 1 4.7 1.4 6.1.9 3 .8 4.7-.2 6.9-1.9 3.9-3 5.7-3.9 6.7-1.1 1.1-8 4.8-10.4 5.5-3 .9-5 1.1-22.9 1.8-11.8.4-11.7.4-26.2 3.4-10.2 2.1-12 2.1-21.3.3-9.9-2-11.4-2.1-31.9-2.9-4.2-.1-13.7-1.3-16.8-2.1-1.2-.3-2.9-.9-3.7-1.3-1.8-.9-5.4-3.2-5.8-3.7-.1-.2-.9-.7-1.6-1.2-1.5-1-4.1-3.7-5.4-5.5-1.7-2.5-1.9-5.2-.5-8.4 1-2.2 2.5-4.2 5.9-7.7 2.3-2.3 3-3.3 3.8-5.1 2-4.4 2.3-7.4 1.1-12-1.4-5.2-2.8-7.8-7.5-13.7-3.2-4.1-3.5-4.5-4.9-8.4-1.5-4-2.1-6.6-2.9-11.8-.5-3.1-1-5.2-2.1-8.7-.9-2.5-1.9-6.1-2.4-8-.9-3.2-.9-3.8-1.1-8.8-.1-4.2 0-6.8.5-11.4.8-7.7 1.1-11.1 1-11.2-.2-.2-1.3 3.8-1.7 6.2-.6 3.6-1.3 11.5-1.3 14.2v2.2l-.4-1.1c-.9-2.4-2.7-9.9-3.5-15.1-1-5.9-1.2-9.5-.8-16.5.2-3.8.2-3.9-.2-2.8-1.3 3.2-1.6 10-.8 15.9 1 7.8 2.2 13 4.8 21.3.7 2.2 1.5 4.8 1.7 5.8.4 1.7.4 1.8-.1 1.1-.3-.4-1.5-1.9-2.6-3.4-5.3-6.7-5.7-7.5-7.6-12.7l-1-2.8.2 1.9c.2 1.9 1.4 5.8 2.4 7.8.3.6 1.7 2.6 3.2 4.4 6.8 8.5 9.3 13.9 10.7 22.4.8 5.1 1.4 7.7 2.7 11.1 1.6 4.3 1.1 7.6-2.2 16.3-1.7 4.4-4.7 11.3-5.7 13-.3.5-1.3 2.6-2.1 4.7-3.1 7.3-4.9 10.2-10.2 17-1.8 2.3-3.9 5.2-4.6 6.4-3.4 5.9-8.4 12.6-10.6 14.3-1.6 1.3-2.4 1.6-6.6 2.7-8.4 2.3-21.4 8.4-27.6 12.9-1.2.9-3.7 3.1-5.6 4.9-1.9 1.8-3.8 3.5-4.3 3.8l-.9.5.7-1.5c2.5-5.6 1.2-13.8-3.6-22.2-3.3-5.8-6.9-9.3-11.3-10.9-1.3-.5-3.7-1-5.8-1.3.9-1.2 2.8-5.9 4.5-11 1.9-5.6 2.5-8.7 3.1-14.5.3-2.5.7-5.4.9-6.5.6-2.6 2.3-7.1 3.6-9.5 1.3-2.4 5.2-6.4 7.6-7.8 2.4-1.4 7.9-3.6 11.5-4.5 4-1 6.9-2.3 8.1-3.7l.9-1.1.3.7c.6 1.7 1.7 6.4 2 8.7.2 1.3.4 2.8.5 3.3l.2.9.2-1.1c.3-1.5.3-4.8 0-6.4l-.2-1.3s.6.1 1.3.4c1 .3 1.9.4 4.3.2 5.8-.4 9 .1 12.8 1.9 1.9.9 3 1.8 5.4 4.1 2.8 2.7 4.3 3.9 4.3 3.4 0-1.1-6.2-7.3-8.7-8.6-3.6-1.9-9.2-2.8-13.7-2.1-1.9.3-2.5.3-3.7-.1-1.4-.4-1.6-.6-2.6-2.4-.6-1.1-1.3-2.2-1.5-2.7-.2-.4-1-1.5-1.7-2.4-1.9-2.3-1.9-2.6-.1-3.4 2-.9 3.6-2.4 4.4-4.1.3-.7.9-3.2 1.3-5.6.4-2.3 1.3-6.5 2-9.3 1.3-5.2 2.2-9.6 3.4-17a571 571 0 0 1 3.9-21.3c2-9.6 3.1-17.5 3.4-23.1.4-6.9 1.1-10.2 3.2-14.1 1-1.8 3.8-5.1 6-7 3-2.6 8.4-4.8 18.4-7.7 9.5-2.7 19.2-5.7 22.5-7.1 6.2-2.4 8-2.9 11.4-2.9 2.7 0 3.1.1 4.6.8.9.4 2.3 1.4 3.1 2 .9.7 2.5 2 3.7 2.9 1.2.9 4.4 3.5 7.3 5.8 7.8 6.3 10.2 8 17.4 12.1 2 1.1 3 1.9 3 2.3.1.3.3 2.5.4 4.9.1 2.4.5 5.6.8 7.1.3 1.5.6 4 .7 5.3.1 1.4.4 3.6.6 5 .2 1.4.5 3.8.6 5.4.2 2.6.1 3-.4 3.9-.3.6-.7 1.7-.8 2.5-.1 1-.5 2-1 2.8-1 1.5-1.1 2.8-.2 3.8.5.6.8.7 1.8.7s1.4-.1 1.8-.7c.7-.9.8-2.3.2-3.1-.3-.4-.3-.9-.2-1.9.3-1.7.3-7.9 0-10.3-.1-1-.5-3.7-.7-6-.3-2.3-.7-5.6-1.1-7.4-.4-2.5-1.1-9.3-1.1-11.7 0-.1.3-.1.7.1 1.1.4 1.1.1.1-.6-.8-.6-.9-.7-.4-1.2.7-.7.3-1.9-.7-2.2-1.1-.3-1.7-.2-1.9.5-.1.3-.3.5-.5.5-.7-.3-10-6.3-12.1-7.8-1.2-.9-3.9-3-6.1-4.8-2.2-1.8-5.1-4.2-6.5-5.2l-4.3-3.4c-.9-.8-2.6-1.9-3.8-2.5-2-1-2.4-1.1-5-1.1l-2.8-.1.2-3.2c.2-3.7.9-6.1 2.3-8 2.1-2.8 5.4-4.8 18.4-11.2 2.4-1.2 5.1-2.6 6-3.2.9-.6 1.8-1.2 2-1.3.3-.2.3.5.3 2.9 0 1.9-.1 3.1-.3 3.1-.6 0-6.9 3.2-7.9 4-1.3 1.1-2.3 3-2.3 4.6 0 1.3 1.6 5.6 2.9 7.8 1.3 2.1 2.8 4.2 5.9 7.7 1.5 1.7 3.8 4.5 5.1 6.1 3.1 3.9 11.6 12.4 15.1 15 1.5 1.1 3.6 2.8 4.7 3.6 4.1 3.2 5.8 3.6 10.8 2.3 7.7-2 17.8-7.4 24.6-13.2 1.9-1.7 4-4.3 8.2-10.6 4-5.9 5.5-9 6.7-13.5 1.5-5.7 1.2-7.7-1.6-10.5-1.8-1.9-3.2-2.6-5.5-2.8l-1.8-.2v-2.7c0-1.5.1-3.3.2-4l.2-1.2 3.4 2.8c3.6 2.9 8.5 5.8 15.6 9.4 4.3 2.1 7.5 4.4 8.8 6.2 1.5 2.2 2.4 5.3 2.6 9.3l.2 3.6-1.5-.2c-.9-.1-2.8-.2-4.2-.2-2.2 0-3.1.2-4.8.8-3 1.1-5.4 2.4-8.8 4.6-3.6 2.4-5.6 4-11.1 9-2.3 2.1-4.6 4.1-5 4.5-1.3 1.1-7 5-7.2 5-.1 0 0-.5.2-1.1.5-1.3.1-2.3-.7-2.3-1.1 0-2.3 2.5-1.4 3 .2.1.3.5.3.8 0 .5-.6 1.1-2.4 2.3-1.3.9-2.4 1.7-2.4 1.7s1.1-.4 2.4-1c2.3-1.1 2.3-1.1 2.6-.5.1.3.2 2.6.1 5-.1 3.7-.4 5.2-1.3 9.4-1.6 7-2 10.4-1.9 15.3.1 2.2.2 4.2.3 4.3.1.1-.1.7-.4 1.3-.8 1.6-1 2.8-.5 3.9.9 2.2 3 1.5 4-1.3.5-1.7.5-1.7-.1-3.1-.3-.8-.6-1.7-.6-2s-.3-1-.7-1.5c-.7-.9-.7-1.2-.7-3.7 0-4 .4-6.9 1.9-13l1.3-5.4v-10.6l1.9-1.1c2.9-1.6 6.6-4.5 11.7-9.2 2.5-2.3 5.4-4.8 6.3-5.6 4.3-3.5 10.3-6.9 14-8 1.9-.5 5.4-.5 11.1.3 1.7.2 5.6.5 8.5.6 3 .1 7.5.4 10 .6 2.5.2 6.4.5 8.7.7 2.3.1 4.3.3 4.4.4.1.1 2.6.4 5.4.8 7.8.9 11.3 1.9 16.5 4.4 3.7 1.8 6.6 3.9 8.3 6.1 3.9 4.9 6.8 14 8.5 26.4.5 3.7 1.3 7.5 2.8 13.7 1.5 6 1.5 6.5.6 11-.7 3.4-.8 4.2-.6 7.8.2 4.8.6 7.6 1.5 9.9 1.2 3.3 1.4 4.8 1 9-.3 3-.3 4.6-.1 7.3.3 3.2.4 3.6 1.8 6.3 1.1 2.2 1.5 3.3 1.7 5.1.2 1.4.6 3 1.1 4 .8 1.7 1.4 4.4 1 4.4-.1 0-.7-.4-1.4-.8-2.1-1.4-3.5-2-4.9-2-1.3 0-1.4.1-3.6 2.4-2.8 2.9-5.2 4.4-8.2 5.5-3.1 1-6.4 2.7-7.6 3.9l-.9 1 3.5-1.5c1.9-.8 4.4-1.8 5.5-2.1 3-.9 5.3-2.4 8.3-5.4 1.5-1.4 2.8-2.6 3-2.6.7 0 3.4 1.4 4.9 2.5 1.4 1 1.6 1.1 3.3 1 1 0 2.2.1 2.7.3.5.2 2 1.5 3.5 2.8 2.4 2.3 5.3 4.6 10.1 8 2.7 1.9 7.3 6.6 9.4 9.7 2 2.7 5.4 9.4 7 13.5.5 1.2 1.5 4.2 2.2 6.5 2 6.5 2.9 8.4 5.9 11.5.9.9 1 1.2.7 1.5-.2.1-3 1.1-6.2 2.2-6.5 2.1-8.8 3.2-11.9 5.9-7.7 6.5-10.4 15.5-7.3 24.3.4 1.1.7 2.4.7 2.8 0 .5.2 1.3.4 1.8.3.8.7 1.1 2.4 1.7 1.8.7 2.2.8 4.3.6 1.4-.1 2.7-.4 3.4-.7l.6-.3c.1.1.3.2.4.3.3-.4 1.4-.6 1.7-.6.4.1 3.2 1.2 5.4 2.7 1.2.8 3.7 2.7 5.6 4.2 3.9 3.1 6.1 4.8 7.7 5.7-.7.8-.6 2.2-.4 2.9zm-119.6-59.4c-.3-1.1-1-3.9-1.5-6.3-1-4.8-1.5-6.2-4-10-2.9-4.5-3.6-6.6-3.1-9.8.4-2.2 1-3.7 3.6-8.5 1.1-2.1 2.6-5.3 3.4-7 1.1-2.8 1.3-3.4 1.3-5.4 0-4 .7-6.9 2.8-11.8.1-.3.3.3.6 1.4.2 1 .7 3.1 1.1 4.7.7 3 2.3 6.5 4.8 10.7 1.9 3.2 3.7 7.2 5.5 12.7.7 2.2 1.9 5.5 2.6 7.3.7 1.8 2.2 6.1 3.3 9.5 2.3 7.1 4.1 11 5.8 13 .6.7 2.3 2.1 3.6 3 2.9 2 4.2 3.3 6.5 6.5.9 1.3 2 2.7 2.5 3.2l.9.9-1.2-.3c-3.3-.7-13.7-2.1-20.8-2.7-1.2-.1-4.8-.5-7.9-.9-5-.6-5.9-.8-6.8-1.4-.8-.5-1.4-.7-2.4-.7-1.2 0-1.4-.1-1.2-.5 1.3-3.5 1.4-4.7.6-7.6zm4.6 12.1c.1 0 1.5.4 3 .9s5 1.8 7.7 2.8c2.7 1.1 5.3 2 5.7 2.1.5.1.9.3 1 .4.1.2-4.7 1.1-9.5 1.8-1.7.2-6 .5-9.7.6l-6.7.1.5-1.5c.3-.9.9-1.9 1.5-2.5.9-.9 6.1-4.7 6.5-4.7zm-4.8-2.8c.9 0 1.7.2 2.1.5.3.3.7.8.8 1.2.1.6-.1.9-1.8 2-3.9 2.6-5.4 4.3-6.1 7.3-.4 1.7-1.7 3.8-2.7 4.5-.6.4-.7.4-1.7-.5-.9-.9-1.1-1-2.6-1-1.1 0-2.2.3-3.6.8-3.4 1.3-9.1 3.1-11.2 3.5-1.3.2-3.4.3-6.3.2-5-.2-5.7-.1-6.9 1.6-.6.8-1.2 1.1-2.8 1.7l-2 .7-5.4-1.1c-6.5-1.3-6.3-1.4-6.3 2.3 0 2.3 0 2.5-.8 3.1-.6.5-1.1.7-2.4.7-2.2 0-9.4-.8-11.2-1.3-.9-.2-2.6-.6-3.8-.9-1.7-.3-2.8-.8-4.3-1.7-1.1-.7-2.1-1.4-2.2-1.6-.1-.1.1-.4.5-.5.4-.1 1.5-1 2.4-1.9l1.7-1.7 2.7-.2c1.5-.1 5.2-.7 8.2-1.3 15.3-3.2 15.5-3.2 26-3.6 14.9-.6 20-.9 22.3-1.4 1.6-.3 3.3-1 7.1-2.9 5.4-2.7 5.9-3.1 7.9-6.5l1.1-1.9h1.3zm-52.4 48.5c2.2-.1 5-.3 6-.4 2.4-.3 4.3-.3 4.1-.2-.3.3-14.2 3.1-14.4 2.9 0 0 0-.5.1-1.1l.1-1 4.1-.2zm-7.9 7.4c-.5-.1-2.8-.4-5.3-.8-2.4-.3-4.2-.7-4-.8.2-.1 2.6-.5 5.4-.9 2.7-.4 5.1-.8 5.2-.8.1 0 .2.2.2.4s-.1 1-.3 1.7c-.3 1.3-.3 1.4-1.2 1.2zm.7.8c0 .4-1.5 4.3-2 5.3-.9 1.7-2.4 3.6-3.4 4.1-1.8.9-4.4.3-5.4-1.4-.9-1.4-1.5-4-1.5-6.6v-2.4l1.4.2c.7.1 2.4.3 3.8.4 1.3.2 3.5.3 4.8.3 1.3 0 2.3 0 2.3.1zm-11.8-3.5c-.2 0-.2-3.7.1-4.5.2-.6.3-.7 1.9-.5 1 .1 4 .3 6.7.4l5 .2-.2 1c-.1.6-.3 1.1-.4 1.2-.3.2-12.3 2.2-13.1 2.2zm13.6-5.9c-.3.3-11.5-.2-12.7-.5-.6-.1-.6-.4-.8-6-.1-3.2-.4-7.4-.6-9.2-.6-4.6-.6-4.7.4-4.4.4.1 2.1.4 3.8.6 1.7.2 4.6.5 6.6.6l3.6.2.2 1.3c.4 4.7.2 16.7-.5 17.4zm-22-28.5c-.7.9-1.5 1.4-4.9 2.7l-4 1.7h-5.2c-4.8-.1-5.3-.1-6.7-.8-.8-.4-2.1-1.3-2.9-2.2-.8-.8-1.6-1.5-1.7-1.5-.2 0-.7.5-1.2 1l-.9 1.1-2.4-.2c-1.3-.1-4.9-.8-8-1.6-3.1-.8-6.3-1.5-7.1-1.6-1.4-.2-1.6-.1-2.5.7-.6.5-1.3.9-1.7.9-1.3 0-4-.9-6.5-2.1-1.7-.9-3.6-1.5-5.7-2-4-.9-4.4-1.1-5.1-2.2-.7-1.1-.7-2.1-.1-4.1.6-2 .4-2.2-2.8-2.6a8 8 0 0 1-4.4-1.7c-1.1-.7-2.1-1.7-2.4-2.1l-.4-.8s-.2-.3.3-.7c.5-.3 1-.7 1-.7 2.4-1.3 2.8-.6 3.6.3.4.5 2 2.1 3.7 3.5 4.8 4.3 8.8 6.7 13 7.6 5 1.1 13 1.9 22.3 2.2 13.5.4 16.3.7 27 2.8 2.3.4 4.7.9 5.3 1l1.2.2-.8 1.2zm-73.3-20.8c.2.4-2.4 1.4-3.4 1.8-.1.1-.3.4-.4.4-3.1 1.3-8.2 2.8-14.4 4.5-6.4 1.7-7.9 2.3-11.6 4.8-2.4 1.6-2.4 1.6-1.6.6 1.5-2 3.8-5.4 5.6-8.5 1-1.7 3.2-4.8 4.9-6.9 5.2-6.5 6.9-9.4 10-16.5 1-2.4 2.5-5.6 3.3-7.2 3.4-6.7 7.5-17.6 7.9-20.8.1-.8.3-1.5.4-1.5.1 0 1.2 1.3 2.4 3 4.8 6.3 6.1 8.7 7.6 13.9 1.7 5.8.1 10.7-5.2 16.1-6.3 6.6-7.8 11-5.5 16.3zm59.3-113.4c-.1.3-.4.5-.9.6-1 .1-1.3-.8-.7-1.8l.5-.7.6.7c.3.4.6.9.5 1.2zM269 178c.5-1.1.9-1.3 1-.5.1 1.5-.5 3.2-1.1 3.2-.5 0-.4-1.5.1-2.7zm187.2 162.1c-.9.8-1.3.9-2.7.9-2.2 0-3.8-.9-7.8-4-10.3-8-12.7-9.5-15.5-9.8-.6-.1-1-.1-1.3-.2v-.1c-.6-.4-.7-.8-1.1-1.8-.1-.6-.1-1.3-.1-2.2 0-2.6.6-4.4 2.4-7.6 1.8-3 7.1-7.9 10.4-9.6 1.3-.7 5.4-1.9 6.3-1.9.2 0 .4.9.5 3 .2 3.8.6 6.5 1.2 8.1.4 1.2.4 1.3-.5 3.2-1 2.1-1.6 4.3-1.6 6.1 0 .6-.1 1.1-.3 1.1-.2 0-1.1-.3-2-.7-1-.4-1.9-.7-2.2-.6-1 .2-.5 1 1.1 1.8 1.9.9 3.9 1.3 4.4.7.2-.2.4-1.5.5-2.8.1-2.1.3-2.7 1.3-4.8.7-1.5 1.1-2.6 1.1-3-.1-.3-.4-1.6-.7-2.8-.7-2.3-.7-3.6-.3-3.8.2-.1.1-.7-.1-1.7-.5-2-.5-5.1 0-5.8.3-.4.9-.6 2.5-.7 1.2-.1 2.3-.3 2.6-.4.3-.1.6-.1.7.1.1.1.6 2 1 4.2 1.1 5.3 1.2 5.6 2.7 8.5l1.3 2.6.1 5.3c.1 3.9.2 5.9.6 7.7.4 2.1.5 2.6.2 4-.7 2-3.1 5.7-4.7 7zm19.6-27c-.5 5.2-.6 10.4-.5 15.7.1 2.7 0 4.2-.2 4.6-.3.6-.6.6-4.1.7-3.2.1-4.1.3-5.9.9-1.2.4-2.7 1.1-3.4 1.5-.7.4-1.2.6-1.2.5 0-.1.3-.7.6-1.3.9-1.9 1.2-4.6.7-7.1-.5-2.7-.5-2.6.3-2.6s.8 0 1.3-3.8c.4-3.2 1.1-5.6 2.1-7 .4-.6.7-1.2.7-1.4 0-.2-.7-1.1-1.7-2.1-.9-.9-2-2.4-2.4-3.2-.9-1.7-2.5-7.5-2.5-9.2 0-1 .1-1.1 1.2-1.5 2-.8 2.3-.7 4.9 1.8 1.3 1.2 3.4 3 4.7 4 3 2.1 5.1 4 5.4 4.7.2.3.2 2.4 0 4.8zm15.1-4.6c-.3 1.3-1 4.5-1.7 7.1-1.1 4.5-1.6 7.2-2 13.2-.1 1.3-.3 2.3-.4 2.3-3.4-1.8-6.7-2.3-9.3-1.5-.6.2-.6.1-.8-2.2-.6-7.9.4-16.9 2.3-20.2.4-.7.4-.9-.9-3.5-1.1-2.3-1.5-3.4-2-6.7-.4-2.2-.7-4.4-.7-4.9 0-2.4 1.5-4.6 3.6-5.6.6-.3 1.6-.6 2-.7.9-.2.9-.2 1.1 1.2.6 4 3.5 10.6 6.6 14.9 2.7 3.9 2.7 3.9 2.2 6.6z"/></svg>