<?xml version="1.0" encoding="utf-8"?><svg version="1.0" id="Слой_1" xmlns="http://www.w3.org/2000/svg" x="0" y="0" viewBox="0 0 512 400" xml:space="preserve"><style>.st0{fill:#c2b7ad}.st2{fill:#e5b39c}.st3{fill:#d9c7ca}.st4{fill:#e7dbda}.st5{fill:#535353}.st6{fill:#fbfbfb}.st7{fill:#ffbb7c}</style><path class="st0" d="M32.7 42c-1.3 2.3-1.4 5.3-2.9 7.5-.7 1.9-3 3.1-3 5.1 2.6 7.4 13.6-16 5.9-12.6zm8 10.3C39 56.4 37.5 60.8 34 64c-1 1.3-3.7 2.5-2.3 4.4 3.4 4.5 17.7-19.2 9-16.1z"/><path d="M77.3 34.6c-7.8 4.7-11.2 12.5-13.2 18.6 4.7-1.6 9.6-2.8 14.5-3.4-.9-4.5-1.6-10-1.3-15.2zm347 181.1c-2.4-3.3-5-7.5-7.4-11.5-2.5-4.2-5.1-8.5-8.2-12.3 1.8 9.5 4.5 21.8 15.6 23.8zm-25.7-39.4c-8-21.1-31.6-21.3-49-12-13.4 7.4-20.6 21.9-22.6 36.8.4.3.7.6 1.1.9 11.6-26.5 44.5-41.5 70.5-25.7zM25.4 36.8c1.3 11.5 6.4 22.6 9.2 33.7 4.2-3.2 8.5-6.2 12.8-8.8-7.1-8.3-12.4-19.1-22-24.9zm213.5 219.5c2.5 2 5.8-1.7 3.5-3.9-2.5-2.6-6.4 1.7-3.5 3.9z" fill="none"/><path class="st2" d="M327 201.1c2-14.9 9.2-29.4 22.6-36.8 17.4-9.4 41-9.1 49 12-26-15.8-58.8-.7-70.5 25.7 1.4 1.2 2.8 2.4 4.1 3.7 5.1-12 14.4-22.2 26.4-27.3 14.2-6.2 31.2-3.7 43.1 6.3 2 6.2 2.9 13.4 4.8 19.9 2.9 9.8 11.9 17.3 22.4 16.5 8.4 9.7 21.9 10.3 32.8 4.3 2.3-1.2 1.3-4.9-1.3-4.8-8.2 3.6-17.7 6-25.1-.6 3.1-.1 26.2-12.6 16-15.5-1.1 0-1.8.7-2.5 1.5-4.5 4.3-9.6 7.6-15.4 9.2-4.3 2.4-9-10-11.5-13-4.4-7.5-9.1-14.9-15.7-20.5-4.3-15.9-16.1-29.2-33.4-28.4-28.1-.2-46 19.7-50.5 44.4 1 .6 1.9 1.3 2.9 1.9l1.8 1.5zm90 3.1c2.4 4 4.9 8.2 7.4 11.5-11.2-1.9-13.9-14.2-15.5-23.8 3 3.8 5.6 8.1 8.1 12.3z"/><path class="st2" d="M479.2 237.4c-2.4.3-3.7 3.3-5.5 4.6-11 10.9-26.7 17.2-41.9 12.9-32.8-7.7-30.5-50.8-64.7-51.5-9.9.2-19.1 5.7-26.2 13.4 1 1.6 2 3.2 2.8 4.8 7.9-8.7 18.4-15.9 30.1-12.1 18 5.1 22.2 25.7 34.6 37.6 12.8 12.7 32.5 18.2 49.5 11.3 3.8-.5 32-18.1 21.3-21zm-295.7-83.2c1.2-1.5 2.5-3 3.9-4.4 4.6-4.3 10.5-7.8 16.5-9.3 2.6-1.1 7.7.4 7.6-3.6-.1-1.3-1.3-2.3-2.6-2.3-9.3.5-18.4 5.2-25.2 11.8-1.1 1.2-2.4 2.5-3.6 3.9.6.7 1.1 1.4 1.7 2 .5.6 1.1 1.3 1.7 1.9zm-11.6-24.8c7.5-6.8 17.1-9.7 28.1-12.3 3.1-.3 2.9-5.2-.3-5.2-9.2 1.8-25.7 6.8-33.1 15.2.8 1.8 1.7 3.6 2.6 5.4.9-1.1 1.8-2.4 2.7-3.1zm-11.7-16.9c8.8-10.8 24.1-14.6 37.8-14.9 3.1-.3 2.9-5.2-.3-5.2-14.3.3-29.9 4.3-39.8 14.9.7 1.4 1.3 2.9 2 4.3.1.4.2.6.3.9zm-12.8-27.2c1.6-1.5 3.5-2.9 5.7-4.1 5.8-3.1 13.5-5 20.1-5.2 3.2-.3 2.9-5.2-.3-5.2-9.7.4-21 3.5-28.5 10.1l-.6.6c1 1.4 1.9 2.9 2.9 4.4.3-.2.5-.4.7-.6zm-11.5-13.9c1.3-1.6 2.5-3.2 3.6-4 9-8.2 20.1-15.2 32.2-15.3 6 1 5.4-6.2-.4-5.1-12.6.1-24.4 6.9-34 15.5-1.1 1.3-3.4 3.1-5.3 5.1 1.4 1.2 2.7 2.5 3.9 3.8zM64.1 53.2c2.1-6.1 5.4-14 13.2-18.6.1-2.2.5-4.4 1.1-6.4-10.7 4.6-18 16.1-20.6 27.7-6-10.7 3.2-21.8 9.9-31 2.1-1.6 2.2-5.1-1-5.4-.7 0-1.3.2-1.8.7-8.4 10.6-15.1 19.5-14 32.1.4 1.6 1 4.2 2.2 6 2.8-1.5 5.5-2.9 8.2-4.1.9-.3 1.9-.7 2.8-1zm36-15.9c3.2-1.3 5.5-5.3.8-6.2-.3 0-.8.1-1.3.3-.2 2.4-.8 4.9-1.5 7.3.7-.5 1.4-.9 2-1.4z"/><path class="st0" d="M25.4 36.8c9.6 5.8 14.8 16.7 22 24.9l3-1.8c-.2-.2-.3-.4-.4-.6-6.9-8-15.2-24-25.8-26.2-4 1.4-1.7 6.8-1.2 9.8 1.1 2.6 5.1 22.5 8.9 29.8.9-.7 1.8-1.5 2.8-2.2-2.9-11.1-7.9-22.2-9.3-33.7z"/><path class="st3" d="M350 272.9c-.5 2.1-1.1 4.2-1.7 6.3 7.1 3.8 14.3 6.7 22.2 9 12.8 3 28.7 7.7 41.5 3.5 11.5-4 14.9-18.2 9.2-28.3-2.2-3.6-6.7-3.4-10.4-3.6-4.3-.4-7.9-.8-12.4-1.4-14.6-2.1-32.9-4.8-46.8-11.7 1.1 8.5.6 17.5-1.6 26.2zM78.6 49.8c5.1-.7 10.3-.8 15.3-.3.7-1.4 1.2-2.9 1.8-4.3.8-1.9 1.6-4.1 2.4-6.5.7-2.4 1.3-4.9 1.5-7.3.7-6.8-1.2-12.9-9.6-13-6.6.4-10 4.4-11.6 9.8-.6 2-.9 4.2-1.1 6.4-.3 5.2.4 10.7 1.3 15.2zm12.2 173c-15.1 0-46.3 7.1-58.2 17-6.9 6.5-5.8 20.7 0 27.6 6.2 5.9 15.5-.6 22.2-3.1 12-5.5 26.3-7 39.4-8 3.8-.2 7.7-.2 11.6 0-3.2-10.7-5.1-21.9-5.6-33.1-3.1-.2-6.2-.3-9.4-.4z"/><path class="st4" d="M332.1 205.7c-1.3-1.3-2.7-2.6-4.1-3.7-.3-.3-.7-.6-1.1-.9a31.52 31.52 0 0 0-4.8-3.4c-22.5-14.2-50.7-14.1-76.8-16.9-.1 0-.2-.1-.3-.1-8.7-1.2-17.4-3.2-26-4.7-13.5-4.1-25.7-11.1-35.6-21.8-.6-.6-1.2-1.3-1.7-2l-1.7-2c-4.3-5.3-7.8-11.3-10.8-17.6-.9-1.8-1.7-3.6-2.6-5.4-2.2-4.9-4.3-9.8-6.4-14.7a3 3 0 0 0-.4-.8c-.7-1.5-1.3-2.9-2-4.3-3.4-7.5-7-14.7-11.1-21.4-.9-1.5-1.9-3-2.9-4.4-2.5-3.6-5.1-7-8-10.2-1.2-1.3-2.5-2.6-3.8-3.9-3.8-3.6-8.1-6.9-13-9.6 9.4-4.4 18.7-10.3 22.4-20.1 3.7-10.1-8.7-14.3-16.6-11.8-11.7 2.9-21.1 13.4-26.4 24.2a34 34 0 0 0-4.6-.6c-5.1-.5-10.2-.4-15.3.3-4.9.6-9.8 1.8-14.5 3.4-.9.3-1.9.7-2.8 1-2.7 1.2-5.4 2.6-8.2 4.1l-2.7 1.5-3 1.8c-4.3 2.6-8.6 5.6-12.8 8.8-.9.7-1.8 1.4-2.8 2.2-14 11.4-26.1 25.8-29.9 41-2.8 10.6 5.8 21.9 14.7 27.4 23.6 12.8 49.9-7.2 74.4-.1 19.6 5.3 8.1 56.5 8.9 72.5a139.01 139.01 0 0 0 7.6 48.9c-16.8 4-31.8 15.2-45.1 26.6-10.2 9.5-29.1 24-18.3 38 4.9 6.5 15.7 16.6 23.6 9.1 4.6-3.9 7.6-9.6 12-13.7 12.7-11.6 30.7-22 46.6-26 6.8 8.3 15.2 15.2 25.4 21 43.7 25.5 97.8 27.3 143.9 7.1 17.4 21.2 42.1 37.8 68 47.1 11.1 4.2 23.5 7.2 29.6-5.9 4.3-8 8.2-20.2-2.2-24.8-8.8-3.7-18.7-7.5-27.1-12.2-12.2-6.5-24.5-13.3-32.8-23.9 8.9-5.5 13.8-15.4 16.9-25.6.6-2.1 1.2-4.2 1.7-6.3 2.2-8.7 2.8-17.6 1.7-26.3-1.1-8.7-3.7-17.2-7.8-24.9-.9-1.6-1.8-3.3-2.8-4.8-2.2-4.1-5.2-7.8-8.6-11.2zm-93.2 50.6c-2.9-2.2 1-6.5 3.5-3.9 2.3 2.2-1 5.9-3.5 3.9z"/><path class="st5" d="M63.5 89.9c-2.2 2.4-1.3 6.8-.6 9.8 3.6 11.4 20.5 8.6 23.3-2 .6-1.7.9-3.4 1-5.2.1-2.3-3.4-2.4-3.5-.1.4 9.3-12.8 16.4-17.4 6.5-1.8-2.4 1.8-10.4-2.8-9z"/><path class="st5" d="M80 102.7c-1.9 2.6 2.5 4.8 3.7 6.8 1 1.1 3 .4 3-1.1-.5-2.3-3-3.7-4.3-5.6-.5-.8-1.7-.8-2.4-.1zm4.5-4.7c-1.5.3-1.8 2.4-.5 3.2 2.5.6 5.4 5.1 7.7 2.7.5-.8.3-1.9-.5-2.4-2.2-1.1-4.2-3.4-6.7-3.5zm5.3-5.2c-1.7 1.6 0 5.2 2.3 3.4 1.6-1.6-.1-5.2-2.3-3.4z"/><path class="st6" d="M283.6 227.4c-.6 0-1.1.4-1.1 1-.9 6.8-2.1 13.4-3.1 20.1-28.7-6.4-21.5-.1-1.7 10.1-12.1 17.4-15.4 26.2 5.9 7.7 1.6 29.5 4.1 24.3 8.9-.5 3.5 3.5 6.9 7.1 9.3 10.7 5.1 3.3-2.1-13.7-2-15.6 27.9-2.7 23.4-7.1-1-8.3 2.9-5 6-9.9 8.9-14.9.7-1.1 2.3-3.3.1-3.6-6 4.4-12.3 8.6-18.1 13.3-1.5-5-2.1-16.6-6.1-20zM204 259.6c-3.4.4-2.7 5.7.7 5.2 3.4-.4 2.6-5.7-.7-5.2zm86.1 35.5c-3.4.4-2.7 5.7.7 5.2 3.4-.5 2.7-5.7-.7-5.2zm2.2-90.3c-3.4.4-2.7 5.7.7 5.2 3.4-.4 2.7-5.7-.7-5.2z"/><path class="st6" d="M254.4 260.6c-6.7 1.4-4.4 11.8 2.3 10.3 6.6-1.4 4.4-11.8-2.3-10.3zm-2.5-58.9c-6.7 1.4-4.4 11.8 2.3 10.3 6.6-1.4 4.3-11.8-2.3-10.3zm-43.8 9.8c-3.4.4-2.7 5.7.6 5.2 3.5-.4 2.8-5.7-.6-5.2z"/><path class="st7" d="M241.1 227.5c-3.9-.4-3.9 5.6 0 5.2 2.9-.3 2.9-4.8 0-5.2zm70.3-13.1c-6.9-.3-7.3 10.2-.5 10.5 6.9.3 7.3-10.2.5-10.5zm11.7 51.4c-3.4 0-3.4 5.3 0 5.3 3.4-.1 3.4-5.4 0-5.3z"/><path class="st0" d="M263.1 293.4c-3.3.1-3.2 5.4.3 5.2 3.4 0 3.2-5.4-.3-5.2zm72.6-48.9c-3.9-.4-3.9 5.6 0 5.2 2.9-.3 2.9-4.9 0-5.2zm-117.3-13.4c-2.6 2.2 1 6.2 3.5 3.9 2.6-2.3-.9-6.2-3.5-3.9z"/><path class="st4" d="M297.9 86c-2.6 2.2 1 6.2 3.5 3.9 2.6-2.2-1-6.2-3.5-3.9z"/><path class="st0" d="M227.1 163.9c-2.6 2.2 1 6.2 3.5 3.9 2.5-2.3-1-6.2-3.5-3.9zm35.3-62.6c-2.6 2.2 1 6.2 3.5 3.9 2.5-2.2-1-6.2-3.5-3.9zm3.5 37.7c-6.7 1.3-4.4 11.8 2.2 10.3 6.7-1.4 4.5-11.8-2.2-10.3z"/><path class="st4" d="M245.5 125.8c-6.7 1.3-4.4 11.8 2.2 10.3 6.7-1.4 4.5-11.8-2.2-10.3zm31.9-40.3c-6.7 1.3-4.4 11.8 2.2 10.3 6.7-1.4 4.5-11.8-2.2-10.3zm7.2 74.9c-2.6 2.2 1 6.2 3.5 3.9 2.5-2.2-1-6.2-3.5-3.9z"/><path class="st7" d="M294.4 74.1c-2.6 2.2 1 6.2 3.5 3.9 2.6-2.2-.9-6.2-3.5-3.9zm-45.1 77.8c-3.5-.2-3.6 5.1-.3 5.2 3.5.3 3.7-5.1.3-5.2zm52.9-29.1c-3.5-.2-3.6 5.1-.3 5.2 3.4.3 3.6-5 .3-5.2zM26.1 76.1c-1.1.8-1.3 2.6-.4 3.7 4.4 4.7 8.3 9.8 11.7 15.3 8.8 14.4 14.4 30.9 15.1 47.8.2 1.4 1.6 2.4 3 2.2C64 138.7 45.7 95.5 39 88c-2.6-2.8-8.8-14.8-12.9-11.9zm11.1 18.6c0 .1.1.1.1.2 0 0 0-.1-.1-.2zm7 137.7c-5.2 6.1-2.7 23.7.5 30.8.9 3.3 4.8 8 6.7 2.7-.4-2.9-2.7-5.4-3.3-8.4-1-3.4-1.5-6.9-1.7-10.5-.1-3.6.3-7.2 1.1-10.8 1.2-2.2-1-4.8-3.3-3.8zm3.3 4.1v.1-.1zm2.1 63.6c-4.6 2.5 3.5 12.4 5.4 15.4 2.9 3.7 6.3 7 10.3 9.5 3 1.4 9.1 6.1 11.4 2.1 1.2-4.3-5-3.8-7.3-5.7-15.6-8.8-14.7-23.8-19.8-21.3zm333.3 37.7c-3.7 5.1-4.2 12.8-8 18.3-2.9 5.1-6.3 9.9-10.9 13.6-2.6 2.1.7 6.3 3.3 4.1a49 49 0 0 0 9.3-10.5c2.1-2.9 16.2-27.8 6.3-25.5zm20.9-80.1c-3.8 1-1.4 5.9-1.8 8.7.1 5-.3 10-1.4 14.9-.6 4.2-3.6 7.8-4.4 11.8 3.2 6.6 7.1-2.8 8.1-6 1.9-3.7 6.3-30.6-.5-29.4z"/><path class="st3" d="M116 40.8c-3.6 3.6-9.4 7.2-10.4 12.3 1.9 5 5.6.2 7.4-2.2 2-2.2 4.1-4.2 6.4-6.1 2.6-2.2-.8-6.2-3.4-4zM80 58.3c-9.2-.1-8.6 10.3.1 10.5C89 69 88.7 58 80 58.3zm-46.8 65.1c-3.1-.3-7.7 6.4-4.1 7.9 2.6 0 8.8-7.2 4.1-7.9z"/><path class="st0" d="M306.3 56c-27.5 3-47.7 26-65.4 46.8-18.5 24-32 49.8-36.6 79.4-.1 4.3 5.6 4.6 5.9.2 4.9-40.9 54.4-118.5 99-119.6 14.3 4.1 9.3 23 3.4 32.7-5.4-2.8-12.6-2.7-17.8.7-4.8 2.9-10 9-7.8 15 1.6 4.2 6.6 5.1 10.7 4.5 6.9-.6 12.2-5.8 16.3-11.2 8.5 12.5.4 29.6-9.3 39.1-3.9-8.5-17.3-7.8-20.1 1.2-2.5 9.6 9.7 14.5 16.9 9.4-2.9 16-21.2 25.1-34.9 31.8-2.6 1.1-5.7 2.3-8.8 3-2.5.6-3 4.6-.9 6 4 1.4 8.6-2 12.3-3.1 12.8-5.7 27-14.4 34.5-26.2 2.9-4.7 4.4-10.2 3.4-15.6 4-3.6 9-10 11.8-15.2 5.3-10.6 7.3-26.1-1.3-35.6 3.9-6.7 7.4-16.4 6.8-24.1-.5-10-7.6-19.8-18.1-19.2zm-10.8 53.2c-3.5 0-4-.8-1.9-3.7 3.5-4.6 9.9-6.9 15.4-4.6-3.6 4.5-7.7 8.5-13.5 8.3zm-1.2 40.5c-10.9-1.9 2.9-10.1 5.6-2.2-1.8 1.2-3.6 2.1-5.6 2.2z"/><path class="st5" d="M269.8 118.3c-3.5-.2-3.6 5.1-.3 5.2 3.4.3 3.6-5.1.3-5.2zm-11.6 51.9c-3.5-.2-3.6 5.1-.3 5.2 3.5.3 3.7-5.1.3-5.2zm-17.3 81.5c-3.9-.4-3.9 5.6 0 5.2 2.9-.4 2.9-4.9 0-5.2zm72.8 28.6c-2.5 2.2.9 6.1 3.4 3.9 2.5-2.2-.9-6.2-3.4-3.9z"/><path class="st4" d="M447.1 171.6c-11.2 1.4-8.8 18.8 2.4 17.2 11.2-1.4 8.8-18.8-2.4-17.2zm59.8-8c-5.9.8-4.6 10.4 1.2 9.5 5.9-.7 4.7-10.3-1.2-9.5z"/><path class="st5" d="M477.8 195.8c-6.5-.7-6.5 9.4 0 8.7 5-.5 5-8.2 0-8.7z"/><path class="st4" d="M353.2 109.7c-7.7 1.6-5.1 13.7 2.6 11.9 7.7-1.6 5.1-13.7-2.6-11.9z"/><path class="st7" d="M387.9 78.9c-4 0-4 6.1 0 6.1 3.9.1 3.9-6.1 0-6.1z"/><path class="st0" d="M340.6 89.9c-3 2.6 1.1 7.2 4 4.5 3-2.6-1.1-7.2-4-4.5z"/><path class="st4" d="M445.3 105c.5.4.6 1.1.3 1.6-3.7 6.4-7 12.7-10.5 19.1 28.6 13.4 18.4 14-5.1 9.7-1.1 22.7-4 32.4-10.1 2.6-20.7 24-19.4 18-7.2-6.3-5.3.7-10.5 1.5-14.9 3-6.5-.5 10.7-10.3 11.9-11.9-22-20.6-15.2-21.3 6.3-6.4.9-6.1 1.4-12.4 2.2-18.5.1-1.3.2-4.3 2.3-3.1 2.2 7.7 4.8 15.3 6.7 23.2 4.3-3.3 12.4-12.7 18.1-13zM112 331.6c-8-.4-8.5 11.8-.6 12.2 8 .3 8.5-11.8.6-12.2z"/><path class="st0" d="M166.5 353c-3.9.1-3.7 6.3.3 6.1 3.9-.2 3.7-6.4-.3-6.1z"/><path class="st7" d="M223.3 371.9c-4.5-.5-4.5 6.5 0 6 3.4-.3 3.4-5.6 0-6z"/><path class="st5" d="M129.5 356c-4.5-.5-4.5 6.5 0 6 3.4-.3 3.4-5.6 0-6z"/></svg>