<svg width="257" height="55" viewBox="0 0 257 55" fill="none" xmlns="http://www.w3.org/2000/svg">
<rect width="256.173" height="54.1757" rx="27.0878" fill="#FFAF38"/>
<path d="M58.6509 34.33C56.5389 34.33 54.8449 33.626 53.5689 32.218L55.1969 30.656C55.6663 31.1253 56.1649 31.4773 56.6929 31.712C57.2209 31.9467 57.8149 32.064 58.4749 32.064C59.3843 32.064 60.0883 31.844 60.5869 31.404C61.1003 30.964 61.3569 30.348 61.3569 29.556C61.3569 28.764 61.1003 28.1553 60.5869 27.73C60.0883 27.29 59.3403 27.07 58.3429 27.07H56.8249L57.1769 24.892H58.3869C59.1789 24.892 59.8023 24.7013 60.2569 24.32C60.7116 23.924 60.9389 23.3887 60.9389 22.714C60.9389 22.1127 60.7556 21.6213 60.3889 21.24C60.0223 20.8587 59.4576 20.668 58.6949 20.668C57.5949 20.668 56.5023 21.108 55.4169 21.988L54.0089 20.426C55.4316 19.1207 57.1036 18.468 59.0249 18.468C60.0663 18.468 60.9536 18.644 61.6869 18.996C62.4349 19.3333 62.9996 19.8027 63.3809 20.404C63.7623 20.9907 63.9529 21.658 63.9529 22.406C63.9529 23.3153 63.6743 24.0707 63.1169 24.672C62.5596 25.2733 61.7749 25.684 60.7629 25.904C61.8629 26.0213 62.7503 26.4027 63.4249 27.048C64.0996 27.6787 64.4369 28.5513 64.4369 29.666C64.4369 30.59 64.1876 31.404 63.6889 32.108C63.2049 32.812 62.5229 33.362 61.6429 33.758C60.7776 34.1393 59.7803 34.33 58.6509 34.33ZM75.5079 30.92C75.5079 31.3747 75.5739 31.712 75.7059 31.932C75.8526 32.1373 76.0799 32.2987 76.3879 32.416L75.7939 34.286C75.1339 34.2273 74.5912 34.066 74.1659 33.802C73.7552 33.538 73.4399 33.1347 73.2199 32.592C72.8239 33.1787 72.3252 33.6187 71.7239 33.912C71.1372 34.1907 70.4772 34.33 69.7439 34.33C68.5852 34.33 67.6686 34 66.9939 33.34C66.3192 32.68 65.9819 31.8147 65.9819 30.744C65.9819 29.4827 66.4366 28.522 67.3459 27.862C68.2699 27.1873 69.5826 26.85 71.2839 26.85H72.7359V26.19C72.7359 25.442 72.5599 24.9213 72.2079 24.628C71.8706 24.32 71.3206 24.166 70.5579 24.166C69.7072 24.166 68.6806 24.3713 67.4779 24.782L66.8179 22.868C68.2699 22.3107 69.6779 22.032 71.0419 22.032C74.0192 22.032 75.5079 23.3667 75.5079 26.036V30.92ZM70.4919 32.284C71.4452 32.284 72.1932 31.8073 72.7359 30.854V28.5H71.5699C69.7512 28.5 68.8419 29.1747 68.8419 30.524C68.8419 31.0813 68.9812 31.514 69.2599 31.822C69.5386 32.13 69.9492 32.284 70.4919 32.284ZM88.9477 31.866V37.476H86.9017L86.5277 34H79.6417L79.2677 37.476H77.2217V31.866H77.9917C78.2997 31.6607 78.5417 31.4113 78.7177 31.118C78.9083 30.81 79.077 30.2967 79.2237 29.578C79.385 28.8593 79.517 27.8253 79.6197 26.476L79.9277 22.362H87.7377V31.866H88.9477ZM85.0317 24.342H82.3917L82.2377 26.19C82.135 27.4513 82.0103 28.4413 81.8637 29.16C81.717 29.8787 81.519 30.4433 81.2697 30.854C81.0203 31.25 80.6757 31.5873 80.2357 31.866H85.0317V24.342ZM99.7423 30.92C99.7423 31.3747 99.8083 31.712 99.9403 31.932C100.087 32.1373 100.314 32.2987 100.622 32.416L100.028 34.286C99.3683 34.2273 98.8256 34.066 98.4003 33.802C97.9896 33.538 97.6743 33.1347 97.4543 32.592C97.0583 33.1787 96.5596 33.6187 95.9583 33.912C95.3716 34.1907 94.7116 34.33 93.9783 34.33C92.8196 34.33 91.903 34 91.2283 33.34C90.5536 32.68 90.2163 31.8147 90.2163 30.744C90.2163 29.4827 90.671 28.522 91.5803 27.862C92.5043 27.1873 93.817 26.85 95.5183 26.85H96.9703V26.19C96.9703 25.442 96.7943 24.9213 96.4423 24.628C96.105 24.32 95.555 24.166 94.7923 24.166C93.9416 24.166 92.915 24.3713 91.7123 24.782L91.0523 22.868C92.5043 22.3107 93.9123 22.032 95.2763 22.032C98.2536 22.032 99.7423 23.3667 99.7423 26.036V30.92ZM94.7263 32.284C95.6796 32.284 96.4276 31.8073 96.9703 30.854V28.5H95.8043C93.9856 28.5 93.0763 29.1747 93.0763 30.524C93.0763 31.0813 93.2156 31.514 93.4943 31.822C93.773 32.13 94.1836 32.284 94.7263 32.284ZM111.278 22.362L110.926 24.518H107.516V34H104.7V24.518H101.092V22.362H111.278ZM116.864 26.036C118.683 26.036 120.01 26.3807 120.846 27.07C121.682 27.7447 122.1 28.7273 122.1 30.018C122.1 31.3233 121.653 32.3133 120.758 32.988C119.863 33.6627 118.719 34 117.326 34H112.904V22.362H115.72V26.036H116.864ZM117.04 32.042C118.463 32.042 119.174 31.3527 119.174 29.974C119.174 29.2847 118.998 28.7787 118.646 28.456C118.294 28.1187 117.693 27.95 116.842 27.95H115.72V32.042H117.04ZM136.5 27.642C138.495 27.862 139.492 28.7933 139.492 30.436C139.492 31.6387 139.03 32.5333 138.106 33.12C137.197 33.7067 135.965 34 134.41 34H129.812V22.494C131.381 22.186 132.797 22.032 134.058 22.032C135.569 22.032 136.757 22.3033 137.622 22.846C138.487 23.3887 138.92 24.1733 138.92 25.2C138.92 25.86 138.715 26.3953 138.304 26.806C137.893 27.2167 137.292 27.4953 136.5 27.642ZM134.036 23.946C133.64 23.946 133.171 23.9827 132.628 24.056V27.004H134.3C135.517 27.004 136.126 26.4833 136.126 25.442C136.126 24.4447 135.429 23.946 134.036 23.946ZM134.344 32.042C135.825 32.042 136.566 31.448 136.566 30.26C136.566 29.7173 136.397 29.3213 136.06 29.072C135.723 28.808 135.165 28.676 134.388 28.676H132.628V32.042H134.344ZM146.746 22.032C148.462 22.032 149.796 22.582 150.75 23.682C151.718 24.7673 152.202 26.2633 152.202 28.17C152.202 29.3873 151.982 30.4653 151.542 31.404C151.102 32.328 150.471 33.0467 149.65 33.56C148.828 34.0733 147.853 34.33 146.724 34.33C145.008 34.33 143.666 33.7873 142.698 32.702C141.73 31.602 141.246 30.0913 141.246 28.17C141.246 26.9527 141.466 25.882 141.906 24.958C142.346 24.034 142.976 23.3153 143.798 22.802C144.634 22.2887 145.616 22.032 146.746 22.032ZM146.746 24.166C145.059 24.166 144.216 25.5007 144.216 28.17C144.216 29.5487 144.421 30.568 144.832 31.228C145.257 31.8733 145.888 32.196 146.724 32.196C147.56 32.196 148.183 31.866 148.594 31.206C149.019 30.546 149.232 29.534 149.232 28.17C149.232 26.806 149.019 25.8013 148.594 25.156C148.183 24.496 147.567 24.166 146.746 24.166ZM161.529 34V24.518H157.657V34H154.841V22.362H164.345V34H161.529ZM173.76 22.032C175.227 22.032 176.312 22.5673 177.016 23.638C177.72 24.7087 178.072 26.212 178.072 28.148C178.072 29.3507 177.889 30.4213 177.522 31.36C177.17 32.284 176.642 33.01 175.938 33.538C175.249 34.066 174.427 34.33 173.474 34.33C172.242 34.33 171.267 33.9047 170.548 33.054V38.488L167.732 38.796V22.362H170.196L170.35 23.792C170.805 23.2053 171.325 22.7653 171.912 22.472C172.499 22.1787 173.115 22.032 173.76 22.032ZM172.682 32.174C174.31 32.174 175.124 30.8393 175.124 28.17C175.124 26.7473 174.941 25.7207 174.574 25.09C174.207 24.4593 173.657 24.144 172.924 24.144C172.455 24.144 172.015 24.2907 171.604 24.584C171.193 24.8627 170.841 25.244 170.548 25.728V30.964C171.091 31.7707 171.802 32.174 172.682 32.174ZM185.59 22.032C187.306 22.032 188.64 22.582 189.594 23.682C190.562 24.7673 191.046 26.2633 191.046 28.17C191.046 29.3873 190.826 30.4653 190.386 31.404C189.946 32.328 189.315 33.0467 188.494 33.56C187.672 34.0733 186.697 34.33 185.568 34.33C183.852 34.33 182.51 33.7873 181.542 32.702C180.574 31.602 180.09 30.0913 180.09 28.17C180.09 26.9527 180.31 25.882 180.75 24.958C181.19 24.034 181.82 23.3153 182.642 22.802C183.478 22.2887 184.46 22.032 185.59 22.032ZM185.59 24.166C183.903 24.166 183.06 25.5007 183.06 28.17C183.06 29.5487 183.265 30.568 183.676 31.228C184.101 31.8733 184.732 32.196 185.568 32.196C186.404 32.196 187.027 31.866 187.438 31.206C187.863 30.546 188.076 29.534 188.076 28.17C188.076 26.806 187.863 25.8013 187.438 25.156C187.027 24.496 186.411 24.166 185.59 24.166ZM198.371 22.032C199.134 22.032 199.816 22.142 200.417 22.362C201.033 22.582 201.613 22.9267 202.155 23.396L200.901 25.09C200.505 24.7967 200.124 24.584 199.757 24.452C199.391 24.32 198.987 24.254 198.547 24.254C196.802 24.254 195.929 25.5813 195.929 28.236C195.929 29.5853 196.157 30.5607 196.611 31.162C197.066 31.7487 197.711 32.042 198.547 32.042C198.958 32.042 199.332 31.976 199.669 31.844C200.021 31.712 200.432 31.4993 200.901 31.206L202.155 32.988C201.055 33.8827 199.801 34.33 198.393 34.33C197.279 34.33 196.311 34.088 195.489 33.604C194.668 33.1053 194.037 32.4013 193.597 31.492C193.157 30.5827 192.937 29.512 192.937 28.28C192.937 27.048 193.157 25.9627 193.597 25.024C194.037 24.0707 194.668 23.3373 195.489 22.824C196.311 22.296 197.271 22.032 198.371 22.032Z" fill="white"/>
</svg>
