<svg width="688" height="162" fill="none" xmlns="http://www.w3.org/2000/svg"><path d="M62.96 95.7H37.43V160H.72V.4h36.7v64.52h26.46L105.83.4h38.98l-52.2 77.06L146.4 160h-41.95l-41.5-64.3Zm177.1-29.18h-41.5V160h-35.34V66.52h-41.5V37.34h118.34v29.18Zm55.33 95.3c-12.92 0-24.54-2.66-34.88-7.98a61.17 61.17 0 0 1-23.94-22.57c-5.78-9.57-8.66-20.44-8.66-32.6s2.88-23.03 8.66-32.6a59.56 59.56 0 0 1 23.94-22.35c10.34-5.47 21.96-8.2 34.88-8.2 12.92 0 24.48 2.73 34.66 8.2a59.56 59.56 0 0 1 23.94 22.34c5.77 9.58 8.66 20.45 8.66 32.6 0 12.17-2.88 23.04-8.66 32.61a61.17 61.17 0 0 1-23.94 22.57c-10.19 5.32-21.74 7.98-34.66 7.98Zm0-29.18c9.12 0 16.57-3.04 22.35-9.12 5.93-6.23 8.89-14.52 8.89-24.85 0-10.34-2.96-18.55-8.9-24.63-5.77-6.23-13.22-9.34-22.34-9.34s-16.64 3.11-22.57 9.34c-5.93 6.08-8.9 14.3-8.9 24.63 0 10.33 2.97 18.62 8.9 24.85 5.93 6.08 13.45 9.12 22.57 9.12Zm227.43-66.12h-41.5V160H446V66.52h-41.5V37.34h118.33v29.18Zm67.53 10.03c15.96.15 28.04 3.73 36.25 10.72 8.2 6.99 12.31 17.02 12.31 30.1 0 13.67-4.63 24.24-13.9 31.69-9.28 7.44-22.43 11.17-39.45 11.17l-59.74-.23V37.34h35.34v39.21h29.19Zm61.78-39.21h35.35V160h-35.35V37.34Zm-69.76 97.58c6.84.15 12.08-1.3 15.73-4.33 3.65-3.04 5.47-7.6 5.47-13.68 0-5.93-1.82-10.26-5.47-13-3.5-2.73-8.74-4.18-15.73-4.33l-21.2-.23v35.57h21.2Z" fill="#0B1F30" style="mix-blend-mode:multiply" opacity=".15"/></svg>