<svg width="1332" height="256" fill="none" xmlns="http://www.w3.org/2000/svg"><path d="M81.96 131.7H56.43V196H19.72V36.4h36.7v64.52h26.46l41.95-64.52h38.98l-52.2 77.06L165.4 196h-41.95l-41.5-64.3Zm177.1-29.18h-41.5V196h-35.34v-93.48h-41.5V73.34h118.34v29.18Zm55.33 95.3c-12.92 0-24.54-2.66-34.88-7.98a61.17 61.17 0 0 1-23.94-22.57c-5.78-9.57-8.66-20.44-8.66-32.6s2.88-23.03 8.66-32.6a59.56 59.56 0 0 1 23.94-22.35c10.34-5.47 21.96-8.2 34.88-8.2 12.92 0 24.48 2.73 34.66 8.2a59.56 59.56 0 0 1 23.94 22.34c5.77 9.58 8.66 20.45 8.66 32.6 0 12.17-2.88 23.04-8.66 32.61a61.17 61.17 0 0 1-23.94 22.57c-10.19 5.32-21.74 7.98-34.66 7.98Zm0-29.18c9.12 0 16.57-3.04 22.35-9.12 5.93-6.23 8.89-14.52 8.89-24.85 0-10.34-2.96-18.55-8.9-24.63-5.77-6.23-13.22-9.34-22.34-9.34s-16.64 3.11-22.57 9.34c-5.93 6.08-8.9 14.3-8.9 24.63 0 10.33 2.97 18.62 8.9 24.85 5.93 6.08 13.45 9.12 22.57 9.12Zm227.43-66.12h-41.5V196H465v-93.48h-41.5V73.34h118.33v29.18Zm67.53 10.03c15.96.15 28.04 3.73 36.25 10.72 8.2 6.99 12.31 17.02 12.31 30.1 0 13.67-4.63 24.24-13.9 31.69-9.28 7.44-22.43 11.17-39.45 11.17l-59.74-.23V73.34h35.34v39.21h29.19Zm61.78-39.21h35.35V196h-35.35V73.34Zm-69.76 97.58c6.84.15 12.08-1.3 15.73-4.33 3.65-3.04 5.47-7.6 5.47-13.68 0-5.93-1.82-10.26-5.47-13-3.5-2.73-8.74-4.18-15.73-4.33l-21.2-.23v35.57h21.2Zm182.72-84.7c8.74 2.95 13.1 8.83 13.1 17.67 0 6.71-2.53 11.91-7.59 15.59-5.06 3.68-12.6 5.52-22.63 5.52h-39.6V50.76h37.95c9.29 0 16.56 1.7 21.8 5.1 5.25 3.31 7.87 8 7.87 14.08 0 3.68-.97 6.94-2.9 9.8a18.29 18.29 0 0 1-8 6.48Zm-36.99-4.97h16.28c7.55 0 11.32-2.66 11.32-8 0-5.24-3.77-7.87-11.32-7.87H747.1v15.87Zm18.08 29.12c7.91 0 11.87-2.71 11.87-8.14 0-2.85-.92-4.92-2.76-6.21-1.84-1.38-4.74-2.07-8.7-2.07H747.1v16.42h18.08ZM905.43 125V80.56l-22.22 37.26h-9.11l-21.67-37.4V125h-19.45V50.76h22.49l23.74 42.91 25.25-42.91h20.15l.27 74.24h-19.46Zm30.41-74.24h21.4v44.16l36.15-44.16h19.73V125h-21.39V80.84L955.72 125h-19.88V50.76Zm132.06-1.1c6.9 0 13.16 1.6 18.77 4.82a33.45 33.45 0 0 1 13.39 13.39c3.22 5.7 4.83 12.37 4.83 20 0 7.64-1.61 14.36-4.83 20.16a34.63 34.63 0 0 1-13.39 13.38 37.89 37.89 0 0 1-18.77 4.7c-9.47 0-16.92-3-22.35-8.98v34.64h-21.53V50.76h20.56v8.55c5.34-6.44 13.11-9.66 23.32-9.66Zm-3.72 58.78c5.52 0 10.03-1.84 13.52-5.52 3.59-3.77 5.38-8.79 5.38-15.04 0-6.26-1.79-11.23-5.38-14.9-3.49-3.78-8-5.66-13.52-5.66s-10.08 1.88-13.66 5.65c-3.5 3.68-5.25 8.65-5.25 14.9 0 6.26 1.75 11.28 5.25 15.05 3.58 3.68 8.14 5.52 13.66 5.52Zm118.31-20.29c0 .28-.14 2.21-.41 5.8h-56.17a17.5 17.5 0 0 0 7.18 10.9c3.77 2.67 8.46 4 14.07 4 3.87 0 7.27-.55 10.22-1.65a25.61 25.61 0 0 0 8.41-5.52l11.46 12.42c-6.99 8-17.21 12-30.64 12-8.37 0-15.78-1.6-22.22-4.83a36.38 36.38 0 0 1-14.9-13.66c-3.5-5.8-5.24-12.37-5.24-19.73 0-7.27 1.7-13.8 5.1-19.6a36.27 36.27 0 0 1 14.22-13.66 41.64 41.64 0 0 1 20.28-4.97 41.4 41.4 0 0 1 19.74 4.7 33.78 33.78 0 0 1 13.8 13.52c3.4 5.8 5.1 12.56 5.1 20.28Zm-38.5-22.21c-4.88 0-8.97 1.38-12.28 4.14-3.31 2.76-5.34 6.53-6.07 11.31h36.57c-.74-4.69-2.76-8.42-6.08-11.18-3.31-2.85-7.36-4.27-12.14-4.27Z" fill="#0B1F30" style="mix-blend-mode:multiply" opacity=".15"/><path d="M862.35 211.34v33.94h-20.01V229h-63.62v-74.24h21.39v56.58h29.94v-56.58h21.53v56.58h10.76Zm3.87-56.58h21.4v44.16l36.15-44.16h19.73V229h-21.39v-44.16L886.1 229h-19.88v-74.24Zm190.85 36.84c0 11.5-3.86 20.61-11.59 27.33-7.64 6.62-18.58 10.44-32.84 11.45v25.4H992.9v-25.4c-14.26-1.01-25.25-4.78-32.98-11.32-7.64-6.62-11.45-15.77-11.45-27.46 0-11.5 3.77-20.42 11.31-26.77 7.64-6.35 18.68-10.03 33.12-11.04V126.6h19.74v27.19c14.26 1.01 25.2 4.74 32.84 11.18 7.73 6.44 11.59 15.32 11.59 26.63Zm-87.77 0c0 6.63 1.89 11.73 5.66 15.32 3.77 3.59 9.75 5.84 17.94 6.76v-43.2c-8.19.84-14.17 3-17.94 6.5-3.77 3.4-5.66 8.27-5.66 14.62Zm43.34 22.08c8.18-.92 14.16-3.17 17.94-6.76 3.86-3.59 5.79-8.7 5.79-15.32 0-6.35-1.93-11.22-5.79-14.63-3.78-3.5-9.76-5.65-17.94-6.48v43.2Zm93.09-60.03c6.9 0 13.16 1.61 18.77 4.83a33.45 33.45 0 0 1 13.39 13.39c3.22 5.7 4.83 12.37 4.83 20 0 7.64-1.61 14.36-4.83 20.16a34.63 34.63 0 0 1-13.39 13.38 37.89 37.89 0 0 1-18.77 4.7c-9.47 0-16.92-3-22.35-8.98v34.64h-21.53V154.76h20.56v8.55c5.34-6.44 13.11-9.66 23.32-9.66Zm-3.72 58.79c5.52 0 10.03-1.84 13.52-5.52 3.59-3.77 5.38-8.79 5.38-15.04 0-6.26-1.79-11.23-5.38-14.9-3.49-3.78-8-5.66-13.52-5.66s-10.08 1.88-13.66 5.65c-3.5 3.68-5.25 8.65-5.25 14.9 0 6.26 1.75 11.28 5.25 15.05 3.58 3.68 8.14 5.52 13.66 5.52Zm85.19-33.95c9.66.1 16.98 2.26 21.94 6.49 4.97 4.23 7.46 10.3 7.46 18.21 0 8.28-2.81 14.68-8.42 19.19-5.61 4.5-13.57 6.76-23.88 6.76l-36.15-.14v-74.24h21.39v23.73h17.66Zm37.4-23.73h21.39V229h-21.39v-74.24Zm-42.23 59.06c4.14.1 7.32-.78 9.52-2.62 2.21-1.84 3.32-4.6 3.32-8.28 0-3.59-1.11-6.21-3.32-7.87-2.11-1.65-5.29-2.53-9.52-2.62l-12.83-.14v21.53h12.83Zm97.95-18.35c0-4.79 1.05-8.74 3.17-11.87 2.21-3.13 5.38-6.58 9.52-10.35a53.55 53.55 0 0 0 6.63-6.9c1.47-1.93 2.2-4.1 2.2-6.49 0-3.4-1.38-6.07-4.14-8-2.66-2.03-6.25-3.04-10.76-3.04-4.32 0-8.19.92-11.59 2.76a24.11 24.11 0 0 0-8.42 7.45l-16.7-9.8a38.76 38.76 0 0 1 15.6-13.66c6.62-3.22 14.44-4.83 23.46-4.83 10.58 0 19.04 2.26 25.39 6.77 6.44 4.5 9.66 10.76 9.66 18.76 0 3.78-.65 7.09-1.93 9.94a25.4 25.4 0 0 1-4.56 7.31 99.5 99.5 0 0 1-6.9 6.77c-3.4 3.03-5.89 5.6-7.45 7.72a11.85 11.85 0 0 0-2.35 7.46h-20.83Zm10.48 34.63c-3.77 0-6.94-1.2-9.52-3.58a12.24 12.24 0 0 1-3.72-8.97c0-3.5 1.24-6.4 3.72-8.7 2.49-2.39 5.66-3.59 9.52-3.59 3.87 0 7.04 1.2 9.53 3.6a11.34 11.34 0 0 1 3.72 8.69c0 3.5-1.29 6.48-3.86 8.97-2.49 2.39-5.61 3.58-9.39 3.58Z" fill="#0B1F30" style="mix-blend-mode:multiply" opacity=".15"/></svg>