<svg width="748" height="1132" viewBox="0 0 748 1132" fill="none" xmlns="http://www.w3.org/2000/svg">
<g style="mix-blend-mode:multiply" opacity="0.5">
<path fill-rule="evenodd" clip-rule="evenodd" d="M905.669 450.844C988.147 560.929 1009.25 699.981 983.921 835.091C959.625 964.674 889.373 1081.94 775.052 1147.5C660.128 1213.41 524.652 1210.03 397.894 1171.18C252.619 1126.64 87.8559 1068.06 42.6249 922.973C-2.87017 777.04 107.233 640.518 193.081 514.199C280.277 385.894 367.096 231.843 521.66 218.101C678.418 204.164 811.236 324.802 905.669 450.844Z" fill="#F4F4F4"/>
</g>
<g style="mix-blend-mode:multiply" opacity="0.5">
<path fill-rule="evenodd" clip-rule="evenodd" d="M1057.12 283.137C1156.92 416.427 1182.46 584.79 1151.8 748.381C1122.41 905.279 1037.4 1047.27 899.078 1126.65C760.022 1206.45 596.099 1202.36 442.724 1155.31C266.945 1101.39 67.5845 1030.46 12.8559 854.788C-42.1922 678.093 91.0309 512.793 194.904 359.847C300.41 204.496 405.46 17.9718 592.478 1.33327C782.152 -15.5416 942.859 130.526 1057.12 283.137Z" fill="#F4F4F4"/>
</g>
</svg>
