<svg width="369" height="301" viewBox="0 0 369 301" fill="none" xmlns="http://www.w3.org/2000/svg" xmlns:xlink="http://www.w3.org/1999/xlink">
<mask id="mask0_3_1415" style="mask-type:alpha" maskUnits="userSpaceOnUse" x="0" y="-63" width="449" height="364">
<path d="M211.117 -45.5C155.117 -41.2459 98.6167 -63 58.6167 -37.5C18.6166 -12 18.951 6.21306 8.11666 41.5C-3.78268 89.3019 -1.57214 114.82 8.11666 159.5C21.5314 208.474 31.8217 233.535 66.6167 264C112.825 302.068 138.67 309.599 184.617 291.5L291.617 243.5L393.617 206.5C426.432 184.436 434.844 171.212 442.617 147C450.519 92.1541 453.511 61.6801 429.117 13C403.055 -34.165 384.484 -50.1853 335.117 -63C291.024 -60.848 267.117 -49.7541 211.117 -45.5Z" fill="#C4C4C4"/>
</mask>
<g mask="url(#mask0_3_1415)">
<path fill-rule="evenodd" clip-rule="evenodd" d="M203.562 -48.2307C266.828 -51.0237 336.175 -84.9986 384.078 -43.6211C438.253 3.17333 462.114 86.4095 437.003 153.411C413.911 215.025 335.438 222.283 274.799 247.955C220.234 271.055 166.889 312.182 111.462 291.23C52.1008 268.792 17.6114 207.612 4.15145 145.651C-9.11782 84.5689 -2.83678 15.0755 42.0014 -28.5196C82.9053 -68.2896 146.537 -45.7133 203.562 -48.2307Z" fill="#C4C4C4"/>
<path fill-rule="evenodd" clip-rule="evenodd" d="M203.562 -48.2307C266.828 -51.0237 336.175 -84.9986 384.078 -43.6211C438.253 3.17333 462.114 86.4095 437.003 153.411C413.911 215.025 335.438 222.283 274.799 247.955C220.234 271.055 166.889 312.182 111.462 291.23C52.1008 268.792 17.6114 207.612 4.15145 145.651C-9.11782 84.5689 -2.83678 15.0755 42.0014 -28.5196C82.9053 -68.2896 146.537 -45.7133 203.562 -48.2307Z" fill="url(#pattern0)"/>
</g>
<defs>
<pattern id="pattern0" patternContentUnits="objectBoundingBox" width="1" height="1">
<use xlink:href="#image0_3_1415" transform="translate(-0.103158) scale(0.000603158 0.000750188)"/>
</pattern>
<image id="image0_3_1415" width="2000" height="1333"
  xlink:href="https://icdn.lenta.ru/images/2021/04/27/16/20210427163138131/square_320_c09ebae17387b7d6eeb9fa0d42afe5ee.jpg">
</image>
</defs>
</svg>
